<svg width="4167" height="4168" viewBox="0 0 4167 4168" fill="none" xmlns="http://www.w3.org/2000/svg">
<g clip-path="url(#clip0_18_398)">
<path d="M2932.1 1352.12C2935.72 1352.21 2939.35 1352.3 2942.97 1352.4C3020.11 1354.39 3097.18 1357.54 3174.18 1362.44C3176.28 1362.57 3178.38 1362.71 3180.47 1362.84C3188.29 1363.33 3196.1 1363.84 3203.91 1364.38C3206.23 1364.54 3208.56 1364.69 3210.88 1364.84C3232.67 1366.28 3251.73 1368.48 3267.07 1385.85C3274.92 1396.31 3278.16 1407.87 3278.13 1420.73C3278.13 1422.14 3278.13 1422.14 3278.13 1423.58C3278.14 1426.74 3278.14 1429.91 3278.13 1433.08C3278.14 1435.38 3278.14 1437.68 3278.14 1439.97C3278.15 1446.32 3278.15 1452.67 3278.15 1459.02C3278.15 1465.21 3278.15 1471.39 3278.16 1477.57C3278.17 1490.38 3278.17 1503.19 3278.17 1515.99C3278.18 1528.97 3278.18 1541.96 3278.19 1554.94C3278.19 1555.76 3278.19 1556.58 3278.19 1557.42C3278.19 1560.76 3278.19 1564.09 3278.19 1567.43C3278.21 1607.89 3278.23 1648.35 3278.23 1688.82C3278.24 1701.94 3278.24 1715.06 3278.24 1728.18C3278.25 1729.56 3278.25 1729.56 3278.25 1730.98C3278.25 1734.72 3278.25 1738.47 3278.25 1742.21C3278.27 1806.25 3278.28 1870.28 3278.29 1934.32C3278.29 1939.35 3278.29 1944.38 3278.29 1949.41C3278.29 1950.41 3278.29 1951.41 3278.29 1952.44C3278.29 1962.55 3278.29 1972.66 3278.3 1982.77C3278.3 1984.8 3278.3 1986.82 3278.3 1988.85C3278.3 2053.96 3278.33 2119.07 3278.36 2184.19C3278.38 2230.97 3278.4 2277.75 3278.41 2324.53C3278.41 2325.49 3278.41 2326.45 3278.41 2327.44C3278.41 2348.56 3278.42 2369.67 3278.42 2390.79C3278.42 2399.28 3278.42 2407.78 3278.42 2416.28C3278.42 2417.67 3278.42 2417.67 3278.42 2419.09C3278.42 2449.05 3278.44 2479.02 3278.46 2508.98C3278.48 2539.15 3278.48 2569.33 3278.47 2599.5C3278.47 2603.67 3278.47 2607.84 3278.47 2612.01C3278.47 2612.83 3278.47 2613.65 3278.47 2614.49C3278.47 2627.43 3278.48 2640.38 3278.49 2653.32C3278.51 2666.05 3278.51 2678.77 3278.5 2691.5C3278.49 2698.31 3278.49 2705.12 3278.51 2711.93C3278.52 2718.12 3278.52 2724.31 3278.5 2730.5C3278.5 2732.73 3278.5 2734.96 3278.51 2737.19C3278.6 2755.59 3276.59 2771.71 3263.38 2785.75C3251.89 2796.6 3239.58 2800.99 3224.02 2800.86C3222.85 2800.86 3221.68 2800.87 3220.48 2800.87C3217.26 2800.87 3214.05 2800.86 3210.83 2800.85C3207.35 2800.84 3203.87 2800.84 3200.4 2800.84C3194.38 2800.84 3188.36 2800.83 3182.35 2800.82C3173.65 2800.79 3164.95 2800.79 3156.25 2800.78C3142.14 2800.77 3128.02 2800.75 3113.91 2800.73C3100.2 2800.7 3086.5 2800.68 3072.79 2800.66C3071.52 2800.66 3071.52 2800.66 3070.23 2800.66C3065.98 2800.66 3061.74 2800.65 3057.5 2800.65C3022.33 2800.62 2987.17 2800.57 2952 2800.5C2952.03 2799.46 2952.06 2798.42 2952.09 2797.35C2953.37 2751.32 2954.54 2705.29 2955.19 2659.25C2955.2 2658.55 2955.21 2657.85 2955.22 2657.12C2955.43 2641.85 2955.63 2626.58 2955.81 2611.3C2955.89 2603.81 2955.98 2596.31 2956.08 2588.82C2956.09 2588.07 2956.1 2587.33 2956.11 2586.56C2956.4 2562.58 2956.97 2538.62 2957.68 2514.65C2958.41 2489.93 2958.86 2465.21 2958.97 2440.47C2958.99 2436.94 2959.01 2433.41 2959.03 2429.88C2959.04 2429.19 2959.04 2428.5 2959.05 2427.78C2959.11 2418.14 2959.36 2408.53 2959.77 2398.9C2963.08 2327.17 2963.08 2327.17 2929.78 2266.16C2912.61 2247.5 2893.12 2231.05 2873.02 2215.66C2867.04 2211.03 2861.41 2206.04 2856.07 2200.69C2855.18 2199.8 2854.28 2198.9 2853.36 2197.98C2852.39 2197.01 2851.42 2196.04 2850.45 2195.06C2849.4 2194.01 2848.35 2192.96 2847.3 2191.92C2844.44 2189.05 2841.58 2186.18 2838.72 2183.32C2835.62 2180.22 2832.53 2177.12 2829.43 2174.02C2824.07 2168.66 2818.72 2163.3 2813.36 2157.93C2805.61 2150.17 2797.85 2142.41 2790.1 2134.65C2777.5 2122.05 2764.91 2109.44 2752.32 2096.84C2751.19 2095.71 2751.19 2095.71 2750.03 2094.55C2743.92 2088.44 2737.82 2082.32 2731.71 2076.2C2726.37 2070.86 2721.03 2065.51 2715.68 2060.16C2714.93 2059.41 2714.18 2058.66 2713.41 2057.88C2700.86 2045.32 2688.31 2032.76 2675.76 2020.21C2668.03 2012.47 2660.29 2004.73 2652.56 1996.98C2647.27 1991.68 2641.97 1986.37 2636.67 1981.07C2633.61 1978.01 2630.55 1974.95 2627.5 1971.89C2624.7 1969.09 2621.9 1966.29 2619.1 1963.49C2618.09 1962.47 2617.08 1961.46 2616.07 1960.45C2611.82 1956.18 2607.58 1951.94 2603.01 1948.01C2597.86 1943.59 2593.12 1938.75 2588.34 1933.95C2587.27 1932.89 2586.21 1931.83 2585.15 1930.77C2582.25 1927.87 2579.36 1924.96 2576.46 1922.06C2573.33 1918.93 2570.2 1915.79 2567.07 1912.66C2561.64 1907.23 2556.22 1901.81 2550.8 1896.38C2542.96 1888.52 2535.11 1880.67 2527.26 1872.82C2514.52 1860.06 2501.78 1847.31 2489.03 1834.55C2487.89 1833.41 2487.89 1833.41 2486.73 1832.24C2480.54 1826.05 2474.36 1819.86 2468.18 1813.68C2462.77 1808.27 2457.37 1802.86 2451.97 1797.45C2451.21 1796.68 2450.44 1795.92 2449.66 1795.14C2436.97 1782.43 2424.27 1769.72 2411.57 1757.02C2403.74 1749.18 2395.92 1741.35 2388.09 1733.51C2382.73 1728.15 2377.37 1722.78 2372.01 1717.41C2368.91 1714.32 2365.82 1711.22 2362.73 1708.13C2359.9 1705.29 2357.07 1702.45 2354.23 1699.62C2353.21 1698.59 2352.19 1697.57 2351.17 1696.55C2346.12 1691.49 2341.05 1686.53 2335.62 1681.88C2331.9 1678.7 2328.43 1675.24 2324.94 1671.81C2323.76 1670.69 2323.76 1670.69 2322.56 1669.55C2321.83 1668.83 2321.1 1668.11 2320.34 1667.36C2319.67 1666.72 2319.01 1666.07 2318.32 1665.4C2317 1663.5 2317 1663.5 2317.07 1661.75C2318.46 1658.38 2320.94 1656.16 2323.49 1653.65C2324.07 1653.07 2324.64 1652.5 2325.23 1651.91C2327.13 1650.01 2329.03 1648.12 2330.94 1646.23C2332.27 1644.91 2333.59 1643.59 2334.92 1642.26C2337.7 1639.49 2340.48 1636.72 2343.27 1633.95C2346.83 1630.42 2350.38 1626.88 2353.93 1623.34C2357.32 1619.94 2360.73 1616.56 2364.13 1613.17C2364.77 1612.53 2365.41 1611.89 2366.07 1611.23C2367.91 1609.4 2369.76 1607.57 2371.6 1605.74C2372.13 1605.21 2372.66 1604.68 2373.21 1604.13C2375.37 1602 2377.5 1599.9 2379.88 1598C2385.28 1593.65 2388.27 1589.22 2391.38 1583.08C2392.4 1581.15 2393.43 1579.22 2394.46 1577.29C2395 1576.26 2395.54 1575.24 2396.11 1574.18C2413.94 1540.93 2435.55 1510.46 2459.18 1481.1C2460.27 1479.74 2461.35 1478.39 2462.44 1477.03C2523.78 1400.31 2595.89 1362.82 2932.1 1352.12Z" fill="#FDFDFD"/>
<path d="M2215 1762.5C2219.29 1766.1 2223.4 1769.78 2227.35 1773.75C2228.08 1774.48 2228.08 1774.48 2228.82 1775.23C2229.86 1776.27 2230.9 1777.32 2231.94 1778.37C2233.59 1780.03 2235.25 1781.69 2236.9 1783.35C2241.01 1787.47 2245.11 1791.6 2249.22 1795.73C2252.69 1799.22 2256.17 1802.72 2259.65 1806.21C2261.27 1807.83 2262.88 1809.46 2264.5 1811.09C2265.51 1812.1 2266.51 1813.11 2267.52 1814.12C2268.39 1814.99 2269.26 1815.86 2270.15 1816.76C2272.23 1818.76 2274.31 1820.64 2276.5 1822.5C2281.84 1827.16 2286.82 1832.18 2291.82 1837.2C2292.89 1838.28 2293.97 1839.36 2295.05 1840.44C2297.99 1843.38 2300.94 1846.33 2303.88 1849.28C2307.06 1852.46 2310.24 1855.64 2313.42 1858.83C2318.93 1864.34 2324.43 1869.85 2329.94 1875.36C2337.9 1883.34 2345.87 1891.32 2353.85 1899.29C2366.79 1912.25 2379.73 1925.2 2392.68 1938.15C2393.45 1938.93 2394.22 1939.7 2395.02 1940.5C2401.3 1946.79 2407.58 1953.07 2413.86 1959.36C2419.35 1964.86 2424.84 1970.35 2430.32 1975.85C2431.1 1976.62 2431.87 1977.39 2432.67 1978.19C2445.56 1991.1 2458.46 2004 2471.35 2016.91C2479.31 2024.86 2487.25 2032.82 2495.2 2040.78C2500.64 2046.23 2506.09 2051.68 2511.54 2057.13C2514.68 2060.28 2517.82 2063.42 2520.96 2066.56C2523.83 2069.45 2526.71 2072.33 2529.59 2075.21C2530.63 2076.25 2531.67 2077.28 2532.71 2078.33C2541.59 2087.24 2550.49 2095.03 2560.83 2102.21C2563.06 2103.78 2565.28 2105.34 2567.5 2106.91C2568.08 2107.33 2568.66 2107.74 2569.27 2108.17C2607.23 2135.08 2643.21 2164.31 2678.16 2195.01C2680.49 2197.06 2682.83 2199.1 2685.17 2201.15C2764.7 2270.86 2818.52 2340.11 2825.97 2448.48C2826.46 2456 2826.85 2463.52 2827.23 2471.04C2827.42 2474.38 2827.6 2477.72 2827.78 2481.06C2832.89 2587.06 2818.21 2696.02 2810 2800.5C2660.84 2800.5 2511.68 2800.5 2358 2800.5C2358 2645.73 2358 2490.96 2358 2331.5C2263.95 2331.5 2169.9 2331.5 2073 2331.5C2073 2486.27 2073 2641.04 2073 2800.5C1998.98 2800.58 1924.95 2800.66 1848.69 2800.75C1825.32 2800.79 1801.94 2800.82 1777.86 2800.86C1749.32 2800.88 1749.32 2800.88 1735.96 2800.88C1726.63 2800.89 1717.29 2800.9 1707.96 2800.92C1697.19 2800.95 1686.42 2800.96 1675.65 2800.95C1670.15 2800.95 1664.64 2800.96 1659.13 2800.98C1654.14 2801 1649.16 2801 1644.17 2800.98C1642.37 2800.98 1640.58 2800.99 1638.79 2801C1623.13 2801.1 1607.86 2798.96 1593.19 2793.25C1592.41 2792.95 1591.63 2792.66 1590.83 2792.35C1568.31 2783.5 1551.42 2767.1 1534.66 2750.25C1533.48 2749.07 1532.3 2747.89 1531.11 2746.71C1528.6 2744.19 1526.08 2741.67 1523.57 2739.14C1519.58 2735.15 1515.6 2731.15 1511.61 2727.16C1503.15 2718.69 1494.7 2710.22 1486.25 2701.75C1477.11 2692.59 1467.97 2683.42 1458.82 2674.26C1454.86 2670.3 1450.91 2666.34 1446.95 2662.37C1444.49 2659.9 1442.03 2657.43 1439.56 2654.97C1438.42 2653.83 1437.29 2652.69 1436.15 2651.55C1430.79 2646.16 1425.42 2640.86 1419.64 2635.91C1417.54 2634.1 1415.56 2632.18 1413.6 2630.22C1412.46 2629.08 1412.46 2629.08 1411.3 2627.91C1410.51 2627.12 1409.72 2626.32 1408.91 2625.5C1407.66 2624.25 1407.66 2624.25 1406.38 2622.98C1403.75 2620.34 1401.13 2617.7 1398.5 2615.06C1396.71 2613.26 1394.91 2611.46 1393.12 2609.67C1388.74 2605.28 1384.37 2600.89 1380 2596.5C1381.44 2593.21 1383.22 2591.03 1385.75 2588.5C1386.93 2587.31 1386.93 2587.31 1388.14 2586.1C1389 2585.24 1389.87 2584.38 1390.77 2583.49C1391.69 2582.56 1392.6 2581.64 1393.55 2580.69C1396.1 2578.14 1398.66 2575.58 1401.22 2573.03C1403.98 2570.28 1406.73 2567.52 1409.49 2564.76C1414.89 2559.36 1420.29 2553.96 1425.69 2548.57C1431.99 2542.28 1438.28 2535.99 1444.57 2529.7C1455.8 2518.47 1467.03 2507.25 1478.27 2496.03C1489.17 2485.14 1500.06 2474.26 1510.95 2463.37C1511.62 2462.7 1512.29 2462.03 1512.98 2461.34C1513.98 2460.33 1513.98 2460.33 1515.01 2459.31C1527.41 2446.91 1539.81 2434.51 1552.21 2422.12C1556.6 2417.73 1560.98 2413.35 1565.36 2408.97C1570.71 2403.63 1576.06 2398.28 1581.41 2392.94C1584.13 2390.22 1586.86 2387.49 1589.59 2384.77C1592.55 2381.81 1595.51 2378.85 1598.47 2375.89C1599.33 2375.04 1600.18 2374.18 1601.06 2373.3C1604.6 2369.77 1608.15 2366.31 1611.95 2363.06C1617.01 2358.69 1621.68 2353.95 1626.4 2349.21C1627.43 2348.18 1628.46 2347.15 1629.5 2346.12C1632.32 2343.3 1635.13 2340.48 1637.95 2337.65C1640.99 2334.6 1644.04 2331.56 1647.08 2328.51C1652.36 2323.23 1657.63 2317.95 1662.9 2312.67C1670.53 2305.03 1678.16 2297.4 1685.79 2289.76C1698.19 2277.36 1710.58 2264.95 1722.98 2252.54C1723.72 2251.8 1724.46 2251.06 1725.22 2250.3C1730.48 2245.03 1735.74 2239.77 1741 2234.5C1747.01 2228.48 1753.02 2222.47 1759.02 2216.46C1759.76 2215.71 1760.5 2214.97 1761.27 2214.21C1773.61 2201.85 1785.96 2189.49 1798.31 2177.13C1805.93 2169.52 1813.54 2161.9 1821.15 2154.28C1826.36 2149.05 1831.57 2143.83 1836.79 2138.62C1839.8 2135.61 1842.81 2132.6 1845.81 2129.58C1848.56 2126.82 1851.32 2124.07 1854.08 2121.31C1855.07 2120.31 1856.07 2119.32 1857.06 2118.32C1861.89 2113.48 1866.76 2108.79 1871.95 2104.33C1876.27 2100.48 1880.31 2096.32 1884.4 2092.21C1885.43 2091.18 1886.46 2090.15 1887.5 2089.12C1890.32 2086.3 1893.13 2083.48 1895.95 2080.65C1898.99 2077.6 1902.04 2074.56 1905.08 2071.51C1910.36 2066.23 1915.63 2060.95 1920.9 2055.67C1928.53 2048.03 1936.16 2040.4 1943.79 2032.76C1956.19 2020.36 1968.58 2007.95 1980.98 1995.54C1981.72 1994.8 1982.46 1994.06 1983.22 1993.3C1988.48 1988.03 1993.74 1982.77 1999 1977.5C2005.01 1971.48 2011.02 1965.47 2017.02 1959.46C2017.76 1958.71 2018.5 1957.97 2019.27 1957.21C2031.61 1944.85 2043.96 1932.49 2056.31 1920.13C2063.93 1912.52 2071.54 1904.9 2079.15 1897.28C2084.36 1892.05 2089.57 1886.83 2094.79 1881.62C2097.8 1878.61 2100.81 1875.6 2103.81 1872.58C2106.56 1869.82 2109.32 1867.07 2112.08 1864.31C2113.07 1863.31 2114.07 1862.32 2115.06 1861.32C2120.01 1856.35 2125 1851.52 2130.33 1846.94C2132.34 1845.21 2134.24 1843.39 2136.11 1841.51C2136.82 1840.8 2137.53 1840.09 2138.26 1839.36C2139.01 1838.61 2139.76 1837.86 2140.53 1837.09C2141.34 1836.28 2142.15 1835.47 2142.98 1834.63C2145.64 1831.98 2148.29 1829.32 2150.94 1826.66C2152.79 1824.81 2154.64 1822.96 2156.49 1821.11C2160.84 1816.75 2165.19 1812.39 2169.54 1808.03C2174.5 1803.06 2179.46 1798.09 2184.42 1793.13C2194.62 1782.92 2204.81 1772.71 2215 1762.5Z" fill="#FDFDFD"/>
<path d="M1658.73 1366.13C1662.75 1366.14 1666.76 1366.14 1670.77 1366.13C1677.79 1366.13 1684.8 1366.13 1691.81 1366.14C1702.24 1366.16 1712.67 1366.16 1723.1 1366.16C1740.65 1366.15 1758.2 1366.16 1775.75 1366.18C1793.12 1366.2 1810.49 1366.21 1827.85 1366.22C1829.47 1366.22 1829.47 1366.22 1831.13 1366.22C1836.62 1366.22 1842.11 1366.22 1847.6 1366.22C1886.47 1366.23 1925.33 1366.25 1964.19 1366.27C2001.93 1366.3 2039.68 1366.32 2077.42 1366.34C2078.58 1366.34 2079.75 1366.34 2080.95 1366.34C2092.64 1366.34 2104.33 1366.34 2116.02 1366.35C2139.84 1366.36 2163.66 1366.36 2187.47 1366.37C2189.11 1366.37 2189.11 1366.37 2190.79 1366.37C2263.86 1366.4 2336.93 1366.45 2410 1366.5C2408.48 1369.69 2406.9 1371.85 2404.4 1374.35C2403.65 1375.1 2402.9 1375.86 2402.13 1376.63C2401.31 1377.45 2400.48 1378.26 2399.64 1379.1C2398.77 1379.97 2397.91 1380.84 2397.02 1381.73C2394.64 1384.11 2392.27 1386.48 2389.89 1388.85C2387.39 1391.34 2384.9 1393.83 2382.41 1396.32C2378.22 1400.51 2374.03 1404.69 2369.84 1408.87C2365 1413.69 2360.17 1418.51 2355.35 1423.34C2350.2 1428.49 2345.04 1433.64 2339.88 1438.79C2338.41 1440.26 2336.93 1441.74 2335.45 1443.21C2332.68 1445.98 2329.91 1448.74 2327.14 1451.51C2326.33 1452.32 2325.52 1453.13 2324.68 1453.96C2323.92 1454.72 2323.15 1455.48 2322.37 1456.27C2321.38 1457.25 2321.38 1457.25 2320.38 1458.24C2318.42 1460.1 2316.43 1461.86 2314.38 1463.62C2309.2 1468.13 2304.37 1472.99 2299.52 1477.86C2298.48 1478.9 2297.44 1479.94 2296.4 1480.98C2293.56 1483.82 2290.72 1486.67 2287.88 1489.51C2284.82 1492.59 2281.74 1495.66 2278.67 1498.73C2273.36 1504.05 2268.04 1509.37 2262.73 1514.7C2255.04 1522.4 2247.35 1530.1 2239.65 1537.8C2227.16 1550.3 2214.66 1562.8 2202.17 1575.31C2201.42 1576.06 2200.68 1576.81 2199.91 1577.58C2194.6 1582.88 2189.3 1588.19 2184 1593.5C2177.94 1599.56 2171.89 1605.63 2165.83 1611.69C2165.08 1612.44 2164.34 1613.18 2163.57 1613.95C2151.12 1626.41 2138.67 1638.87 2126.22 1651.33C2118.55 1659.01 2110.88 1666.69 2103.21 1674.37C2097.95 1679.63 2092.7 1684.9 2087.44 1690.16C2084.4 1693.19 2081.37 1696.22 2078.34 1699.26C2075.57 1702.04 2072.79 1704.82 2070.01 1707.6C2069.01 1708.61 2068.01 1709.61 2067.01 1710.61C2062.16 1715.48 2057.26 1720.2 2052.05 1724.68C2047.74 1728.51 2043.71 1732.66 2039.64 1736.75C2038.61 1737.78 2037.58 1738.8 2036.55 1739.83C2033.75 1742.64 2030.94 1745.45 2028.14 1748.26C2025.11 1751.3 2022.07 1754.33 2019.04 1757.37C2013.78 1762.62 2008.53 1767.88 2003.28 1773.14C1995.69 1780.75 1988.09 1788.36 1980.48 1795.96C1968.14 1808.32 1955.79 1820.67 1943.45 1833.03C1942.71 1833.77 1941.98 1834.51 1941.21 1835.27C1935.98 1840.51 1930.74 1845.76 1925.5 1851C1919.52 1856.99 1913.53 1862.98 1907.55 1868.97C1906.44 1870.08 1906.44 1870.08 1905.31 1871.21C1893.02 1883.52 1880.72 1895.83 1868.42 1908.14C1860.83 1915.72 1853.25 1923.31 1845.68 1930.9C1840.49 1936.1 1835.29 1941.3 1830.1 1946.5C1827.1 1949.5 1824.1 1952.49 1821.11 1955.49C1818.37 1958.24 1815.62 1960.99 1812.88 1963.74C1811.89 1964.73 1810.9 1965.72 1809.91 1966.71C1805.09 1971.54 1800.23 1976.23 1795.05 1980.67C1790.74 1984.51 1786.71 1988.66 1782.64 1992.75C1781.61 1993.78 1780.58 1994.8 1779.55 1995.83C1776.75 1998.64 1773.94 2001.45 1771.14 2004.26C1768.11 2007.3 1765.07 2010.33 1762.04 2013.37C1756.78 2018.62 1751.53 2023.88 1746.28 2029.14C1738.69 2036.75 1731.09 2044.36 1723.48 2051.96C1711.14 2064.32 1698.79 2076.67 1686.45 2089.03C1685.34 2090.14 1685.34 2090.14 1684.21 2091.27C1678.98 2096.51 1673.74 2101.76 1668.5 2107C1662.52 2112.99 1656.53 2118.98 1650.55 2124.97C1649.44 2126.08 1649.44 2126.08 1648.31 2127.21C1636.02 2139.52 1623.72 2151.83 1611.42 2164.14C1603.83 2171.72 1596.25 2179.31 1588.68 2186.9C1583.49 2192.1 1578.29 2197.3 1573.1 2202.5C1570.1 2205.5 1567.1 2208.49 1564.11 2211.49C1561.37 2214.24 1558.62 2216.99 1555.88 2219.74C1554.89 2220.73 1553.9 2221.72 1552.91 2222.71C1548.09 2227.54 1543.23 2232.23 1538.05 2236.67C1533.74 2240.51 1529.71 2244.66 1525.64 2248.75C1524.61 2249.78 1523.58 2250.8 1522.55 2251.83C1519.75 2254.64 1516.94 2257.45 1514.14 2260.26C1511.11 2263.3 1508.07 2266.33 1505.04 2269.37C1499.78 2274.62 1494.53 2279.88 1489.28 2285.14C1481.69 2292.75 1474.09 2300.36 1466.48 2307.96C1454.14 2320.32 1441.79 2332.67 1429.45 2345.03C1428.34 2346.14 1428.34 2346.14 1427.21 2347.27C1421.98 2352.51 1416.74 2357.76 1411.5 2363C1405.52 2368.99 1399.53 2374.98 1393.55 2380.97C1392.44 2382.08 1392.44 2382.08 1391.31 2383.21C1379.02 2395.52 1366.72 2407.83 1354.42 2420.14C1346.83 2427.72 1339.25 2435.31 1331.68 2442.9C1326.49 2448.1 1321.29 2453.3 1316.1 2458.5C1313.1 2461.5 1310.1 2464.49 1307.11 2467.49C1304.37 2470.24 1301.62 2472.99 1298.88 2475.74C1297.89 2476.73 1296.9 2477.72 1295.91 2478.71C1290.45 2484.19 1284.91 2489.5 1279 2494.5C1272.84 2489.41 1267.23 2483.86 1261.6 2478.2C1260.57 2477.17 1259.54 2476.13 1258.5 2475.1C1256.29 2472.88 1254.08 2470.67 1251.87 2468.45C1248.37 2464.94 1244.87 2461.43 1241.37 2457.92C1233.3 2449.84 1225.23 2441.75 1217.17 2433.66C1209.78 2426.25 1202.38 2418.84 1194.99 2411.43C1191.51 2407.95 1188.03 2404.47 1184.56 2400.98C1182.4 2398.81 1180.23 2396.63 1178.06 2394.46C1177.06 2393.46 1176.06 2392.46 1175.06 2391.46C1173.69 2390.08 1172.31 2388.7 1170.94 2387.33C1170.17 2386.56 1169.41 2385.79 1168.62 2385C1166.57 2383.05 1164.51 2381.2 1162.37 2379.36C1157.08 2374.77 1152.16 2369.82 1147.21 2364.88C1146.14 2363.81 1145.07 2362.74 1143.99 2361.68C1141.06 2358.76 1138.12 2355.83 1135.19 2352.91C1132.67 2350.4 1130.15 2347.89 1127.63 2345.38C1118.61 2336.41 1109.6 2327.42 1100.59 2318.43C1099.88 2317.72 1099.17 2317.01 1098.43 2316.28C1084.29 2302.18 1070.14 2288.07 1056.01 2273.95C1052.9 2270.85 1049.8 2267.76 1046.7 2264.66C1045.93 2263.89 1045.15 2263.12 1044.36 2262.32C1031.86 2249.85 1019.35 2237.39 1006.84 2224.93C993.972 2212.13 981.121 2199.31 968.282 2186.48C961.079 2179.28 953.87 2172.09 946.646 2164.92C940.496 2158.81 934.357 2152.69 928.234 2146.55C925.113 2143.42 921.986 2140.3 918.844 2137.19C915.961 2134.34 913.095 2131.48 910.241 2128.6C909.213 2127.56 908.178 2126.54 907.137 2125.52C896.379 2114.97 888.883 2102.46 888.619 2087.03C888.657 2068.94 893.935 2055.07 906.874 2041.99C907.734 2041.15 908.594 2040.31 909.48 2039.44C910.867 2038.05 910.867 2038.05 912.282 2036.63C914.787 2034.12 917.307 2031.62 919.831 2029.13C922.487 2026.5 925.128 2023.86 927.772 2021.22C932.208 2016.79 936.652 2012.37 941.104 2007.96C947.362 2001.76 953.602 1995.55 959.839 1989.32C964.186 1984.99 968.538 1980.66 972.89 1976.33C973.938 1975.29 974.986 1974.24 976.034 1973.2C979.482 1969.77 982.935 1966.34 986.39 1962.92C987.677 1961.64 987.677 1961.64 988.99 1960.33C990.203 1959.13 990.203 1959.13 991.44 1957.91C992.132 1957.22 992.823 1956.53 993.536 1955.83C995.528 1953.95 997.552 1952.16 999.63 1950.37C1004.81 1945.86 1009.63 1941 1014.47 1936.14C1015.52 1935.1 1016.56 1934.06 1017.6 1933.02C1020.44 1930.18 1023.28 1927.33 1026.12 1924.49C1029.18 1921.41 1032.26 1918.34 1035.33 1915.27C1040.64 1909.95 1045.96 1904.63 1051.27 1899.3C1058.96 1891.6 1066.65 1883.9 1074.35 1876.2C1086.84 1863.7 1099.34 1851.2 1111.83 1838.69C1112.58 1837.94 1113.32 1837.19 1114.09 1836.42C1119.4 1831.12 1124.7 1825.81 1130 1820.5C1136.06 1814.44 1142.11 1808.37 1148.17 1802.31C1148.92 1801.56 1149.66 1800.82 1150.43 1800.05C1162.88 1787.59 1175.33 1775.13 1187.78 1762.67C1195.45 1754.99 1203.12 1747.31 1210.79 1739.63C1216.05 1734.37 1221.3 1729.1 1226.56 1723.84C1229.59 1720.81 1232.63 1717.78 1235.66 1714.74C1238.43 1711.96 1241.21 1709.18 1243.99 1706.4C1244.99 1705.39 1245.99 1704.39 1246.99 1703.39C1251.84 1698.52 1256.73 1693.81 1261.94 1689.33C1266.3 1685.45 1270.36 1681.27 1274.47 1677.14C1275.52 1676.1 1276.56 1675.06 1277.6 1674.02C1280.44 1671.18 1283.28 1668.33 1286.12 1665.49C1289.18 1662.41 1292.26 1659.34 1295.33 1656.27C1300.64 1650.95 1305.96 1645.63 1311.27 1640.3C1318.96 1632.6 1326.65 1624.9 1334.35 1617.2C1346.84 1604.7 1359.34 1592.2 1371.83 1579.69C1372.58 1578.94 1373.32 1578.19 1374.09 1577.42C1379.4 1572.12 1384.7 1566.81 1390 1561.5C1396.06 1555.44 1402.11 1549.37 1408.17 1543.31C1408.92 1542.56 1409.66 1541.82 1410.43 1541.05C1422.88 1528.59 1435.33 1516.13 1447.78 1503.67C1455.45 1495.99 1463.12 1488.31 1470.79 1480.63C1476.05 1475.37 1481.3 1470.1 1486.56 1464.84C1489.59 1461.81 1492.63 1458.78 1495.66 1455.74C1498.43 1452.96 1501.21 1450.18 1503.99 1447.4C1504.99 1446.39 1505.99 1445.39 1506.99 1444.39C1511.94 1439.42 1516.91 1434.56 1522.26 1430.02C1525.51 1427.18 1528.49 1424.05 1531.51 1420.95C1532.92 1419.51 1534.34 1418.08 1535.75 1416.64C1537.93 1414.42 1540.11 1412.2 1542.28 1409.97C1553.45 1398.52 1564.76 1388.24 1579.06 1380.81C1579.76 1380.45 1580.45 1380.09 1581.17 1379.72C1586.74 1376.93 1592.44 1374.66 1598.31 1372.63C1599.08 1372.35 1599.85 1372.08 1600.64 1371.79C1619.45 1365.66 1639.2 1366.07 1658.73 1366.13ZM1141.54 2027.65C1137.72 2031.94 1134.78 2036.49 1132 2041.5C1131.47 2042.43 1130.93 2043.37 1130.38 2044.33C1119.98 2063.66 1118.24 2086.48 1124 2107.5C1128.11 2120.32 1134.11 2131.39 1143 2141.5C1143.65 2142.25 1144.31 2143 1144.98 2143.77C1155.19 2154.71 1167.92 2161.85 1182 2166.5C1183.48 2167.01 1183.48 2167.01 1184.99 2167.53C1200.9 2172.1 1219.47 2170.9 1235 2165.5C1236.78 2164.88 1236.78 2164.88 1238.59 2164.25C1260.5 2155.72 1275.9 2138.91 1286.31 2118.25C1295.55 2097 1295.61 2073.27 1287.25 2051.75C1278.1 2029.59 1261.2 2013.6 1239.53 2003.96C1203.87 1989.75 1167.89 2000.7 1141.54 2027.65Z" fill="#FDFDFD"/>
<path d="M598.33 3357.5C573.997 3357.5 551.997 3353.33 532.33 3345C512.997 3336.67 497.663 3324.67 486.33 3309C474.997 3293.33 469.163 3274.83 468.83 3253.5H543.83C544.83 3267.83 549.83 3279.17 558.83 3287.5C568.163 3295.83 580.83 3300 596.83 3300C613.163 3300 625.997 3296.17 635.33 3288.5C644.663 3280.5 649.33 3270.17 649.33 3257.5C649.33 3247.17 646.163 3238.67 639.83 3232C633.497 3225.33 625.497 3220.17 615.83 3216.5C606.497 3212.5 593.497 3208.17 576.83 3203.5C554.163 3196.83 535.663 3190.33 521.33 3184C507.33 3177.33 495.163 3167.5 484.83 3154.5C474.83 3141.17 469.83 3123.5 469.83 3101.5C469.83 3080.83 474.997 3062.83 485.33 3047.5C495.663 3032.17 510.163 3020.5 528.83 3012.5C547.497 3004.17 568.83 3000 592.83 3000C628.83 3000 657.997 3008.83 680.33 3026.5C702.997 3043.83 715.497 3068.17 717.83 3099.5H640.83C640.163 3087.5 634.997 3077.67 625.33 3070C615.997 3062 603.497 3058 587.83 3058C574.163 3058 563.163 3061.5 554.83 3068.5C546.83 3075.5 542.83 3085.67 542.83 3099C542.83 3108.33 545.83 3116.17 551.83 3122.5C558.163 3128.5 565.83 3133.5 574.83 3137.5C584.163 3141.17 597.163 3145.5 613.83 3150.5C636.497 3157.17 654.997 3163.83 669.33 3170.5C683.663 3177.17 695.997 3187.17 706.33 3200.5C716.663 3213.83 721.83 3231.33 721.83 3253C721.83 3271.67 716.997 3289 707.33 3305C697.663 3321 683.497 3333.83 664.83 3343.5C646.163 3352.83 623.997 3357.5 598.33 3357.5ZM1163.02 3005V3354H1093.02V3127L999.518 3354H946.518L852.518 3127V3354H782.518V3005H862.018L973.018 3264.5L1084.02 3005H1163.02ZM1394.22 3357.5C1361.56 3357.5 1331.56 3349.83 1304.22 3334.5C1276.89 3319.17 1255.22 3298 1239.22 3271C1223.22 3243.67 1215.22 3212.83 1215.22 3178.5C1215.22 3144.5 1223.22 3114 1239.22 3087C1255.22 3059.67 1276.89 3038.33 1304.22 3023C1331.56 3007.67 1361.56 3000 1394.22 3000C1427.22 3000 1457.22 3007.67 1484.22 3023C1511.56 3038.33 1533.06 3059.67 1548.72 3087C1564.72 3114 1572.72 3144.5 1572.72 3178.5C1572.72 3212.83 1564.72 3243.67 1548.72 3271C1533.06 3298 1511.56 3319.17 1484.22 3334.5C1456.89 3349.83 1426.89 3357.5 1394.22 3357.5ZM1394.22 3295C1415.22 3295 1433.72 3290.33 1449.72 3281C1465.72 3271.33 1478.22 3257.67 1487.22 3240C1496.22 3222.33 1500.72 3201.83 1500.72 3178.5C1500.72 3155.17 1496.22 3134.83 1487.22 3117.5C1478.22 3099.83 1465.72 3086.33 1449.72 3077C1433.72 3067.67 1415.22 3063 1394.22 3063C1373.22 3063 1354.56 3067.67 1338.22 3077C1322.22 3086.33 1309.72 3099.83 1300.72 3117.5C1291.72 3134.83 1287.22 3155.17 1287.22 3178.5C1287.22 3201.83 1291.72 3222.33 1300.72 3240C1309.72 3257.67 1322.22 3271.33 1338.22 3281C1354.56 3290.33 1373.22 3295 1394.22 3295ZM1786.8 3357.5C1754.14 3357.5 1724.14 3349.83 1696.8 3334.5C1669.47 3319.17 1647.8 3298 1631.8 3271C1615.8 3243.67 1607.8 3212.83 1607.8 3178.5C1607.8 3144.5 1615.8 3114 1631.8 3087C1647.8 3059.67 1669.47 3038.33 1696.8 3023C1724.14 3007.67 1754.14 3000 1786.8 3000C1819.8 3000 1849.8 3007.67 1876.8 3023C1904.14 3038.33 1925.64 3059.67 1941.3 3087C1957.3 3114 1965.3 3144.5 1965.3 3178.5C1965.3 3212.83 1957.3 3243.67 1941.3 3271C1925.64 3298 1904.14 3319.17 1876.8 3334.5C1849.47 3349.83 1819.47 3357.5 1786.8 3357.5ZM1786.8 3295C1807.8 3295 1826.3 3290.33 1842.3 3281C1858.3 3271.33 1870.8 3257.67 1879.8 3240C1888.8 3222.33 1893.3 3201.83 1893.3 3178.5C1893.3 3155.17 1888.8 3134.83 1879.8 3117.5C1870.8 3099.83 1858.3 3086.33 1842.3 3077C1826.3 3067.67 1807.8 3063 1786.8 3063C1765.8 3063 1747.14 3067.67 1730.8 3077C1714.8 3086.33 1702.3 3099.83 1693.3 3117.5C1684.3 3134.83 1679.8 3155.17 1679.8 3178.5C1679.8 3201.83 1684.3 3222.33 1693.3 3240C1702.3 3257.67 1714.8 3271.33 1730.8 3281C1747.14 3290.33 1765.8 3295 1786.8 3295ZM2254.88 3005V3061.5H2161.88V3354H2091.88V3061.5H1998.88V3005H2254.88ZM2595.46 3005V3354H2525.46V3205.5H2375.96V3354H2305.96V3005H2375.96V3148.5H2525.46V3005H2595.46ZM2963.49 3354L2886.49 3218H2853.49V3354H2783.49V3005H2914.49C2941.49 3005 2964.49 3009.83 2983.49 3019.5C3002.49 3028.83 3016.66 3041.67 3025.99 3058C3035.66 3074 3040.49 3092 3040.49 3112C3040.49 3135 3033.83 3155.83 3020.49 3174.5C3007.16 3192.83 2987.33 3205.5 2960.99 3212.5L3044.49 3354H2963.49ZM2853.49 3165.5H2911.99C2930.99 3165.5 2945.16 3161 2954.49 3152C2963.83 3142.67 2968.49 3129.83 2968.49 3113.5C2968.49 3097.5 2963.83 3085.17 2954.49 3076.5C2945.16 3067.5 2930.99 3063 2911.99 3063H2853.49V3165.5ZM3173.81 3061.5V3149H3291.31V3204.5H3173.81V3297H3306.31V3354H3103.81V3004.5H3306.31V3061.5H3173.81ZM3668.42 3354H3598.42L3439.92 3114.5V3354H3369.92V3004.5H3439.92L3598.42 3244.5V3004.5H3668.42V3354ZM3975.1 3005V3061.5H3882.1V3354H3812.1V3061.5H3719.1V3005H3975.1Z" fill="#FDFDFD"/>
</g>
<defs>
<clipPath id="clip0_18_398">
<rect width="4167" height="4167" fill="white" transform="translate(0 0.5)"/>
</clipPath>
</defs>
</svg>
