<?xml version="1.0" encoding="UTF-8"?>
<svg version="1.1" xmlns="http://www.w3.org/2000/svg" width="4167" height="4167">
<path d="M0 0 C1375.11 0 2750.22 0 4167 0 C4167 1375.11 4167 2750.22 4167 4167 C2791.89 4167 1416.78 4167 0 4167 C0 2791.89 0 1416.78 0 0 Z " fill="#FEFEFE" transform="translate(0,0)"/>
<path d="M0 0 C3.37778792 0.10826484 6.75567981 0.21251947 10.13362086 0.3158868 C56.92336373 1.76012277 103.66723805 4.05437108 150.3322024 7.80210815 C152.9004608 8.0062436 155.46920678 8.20274669 158.03818214 8.39762968 C162.0086703 8.70153538 165.97593323 9.0328855 169.94227491 9.38673048 C171.36845635 9.51077997 172.79534219 9.62705493 174.22288086 9.73436344 C186.88640809 10.70102485 196.92023599 14.08135043 205.40180457 23.84631425 C210.95380618 32.36358946 211.69687067 39.55164707 211.62950575 49.64430028 C211.63429041 51.08031358 211.64082397 52.51632191 211.64893895 53.95232025 C211.66615939 57.89769462 211.65853465 61.84268785 211.64682751 65.78806798 C211.63848235 70.08063686 211.65329335 74.37313648 211.66513252 78.66568851 C211.68266184 86.18881635 211.6852789 93.71183531 211.67812598 101.2349785 C211.6675173 112.42222988 211.67969712 123.60937576 211.69629184 134.79661567 C211.7267906 155.93880803 211.73018005 177.08095253 211.72524579 198.22316227 C211.721582 214.54817663 211.72509533 230.87317526 211.73369467 247.19818765 C211.73489947 249.54270142 211.73610186 251.88721519 211.73730188 254.23172897 C211.73911636 257.76458987 211.7409337 261.29745078 211.74276658 264.83031168 C211.75962857 297.68199727 211.76829501 330.53367695 211.75995314 363.38536626 C211.75964039 364.62410639 211.75932764 365.86284653 211.75900541 367.13912424 C211.75739382 373.41769956 211.75570227 379.69627486 211.7539788 385.97485016 C211.75346554 387.84530218 211.75346554 387.84530218 211.75294191 389.75354111 C211.7522486 392.2752139 211.75155154 394.79688669 211.75085074 397.31855947 C211.74013544 436.55904778 211.75599844 475.79944622 211.79291785 515.03991777 C211.83433888 559.11675277 211.85580692 603.19353209 211.84776688 647.27038765 C211.84697617 651.96906878 211.84625308 656.66774991 211.84557211 661.36643106 C211.84539065 662.52338358 211.84520919 663.6803361 211.84502222 664.87234779 C211.84268913 682.34664738 211.85599555 699.82089078 211.87719595 717.29517633 C211.90127893 737.16579833 211.9044422 757.03629648 211.87961562 776.90692029 C211.86634187 788.02902699 211.86965835 799.15083772 211.89679265 810.27292084 C211.9132562 817.70161133 211.90791997 825.13007963 211.88484211 832.55875198 C211.8723035 836.79183862 211.86919221 841.02434688 211.89256878 845.25740055 C211.91366248 849.11254471 211.90687886 852.96662117 211.87835973 856.82170838 C211.87037422 858.85281984 211.89165525 860.88398301 211.91431385 862.91498378 C211.79123875 873.31384027 208.82069295 881.57803305 201.87055457 889.420533 C194.32047555 896.28271593 185.93289513 898.61052563 175.95153296 898.60328752 C174.88544294 898.60456916 174.88544294 898.60456916 173.79781574 898.60587668 C171.42254072 898.60752037 169.04733673 898.60202835 166.67206824 898.59655839 C164.96691892 898.59627625 163.26176949 898.59643477 161.55662024 898.5970009 C156.93102014 898.59728783 152.30544596 898.5914078 147.67985189 898.58442694 C142.84452044 898.57817619 138.00918839 898.57758824 133.17385352 898.57640153 C124.01898675 898.5732933 114.86413193 898.56508674 105.70927042 898.55505204 C95.28613796 898.54387515 84.86300493 898.53837648 74.43986797 898.53335661 C53.00009017 898.52290372 31.56032312 898.50531409 10.12055457 898.483033 C10.13248825 897.83266818 10.14442193 897.18230336 10.15671724 896.51223052 C10.86229141 857.79852245 11.37004082 819.08660545 11.62778949 780.36721732 C11.65903808 775.69821129 11.69190711 771.02921797 11.72577918 766.36023027 C11.73249405 765.43088271 11.73920892 764.50153516 11.74612727 763.54402556 C11.85811592 748.57712022 12.1007578 733.61512761 12.39340261 718.65078834 C12.69166252 703.24730193 12.84555552 687.84702594 12.87086183 672.44065523 C12.88904733 663.80456715 12.97046958 655.17938966 13.21776259 646.54656488 C15.57660029 605.23551129 15.57660029 605.23551129 -1.50717777 569.29562211 C-8.24128918 562.26384495 -15.66958746 556.10968927 -23.63556898 550.52684385 C-32.07304153 544.59299831 -39.20850436 537.29522827 -46.46843469 530.00756913 C-47.52124626 528.95447709 -48.57428028 527.9016074 -49.62751567 526.84893924 C-52.50364349 523.97310535 -55.37665895 521.09418003 -58.24916041 518.2147246 C-61.35438514 515.10310027 -64.46253733 511.99440253 -67.57034814 508.88536149 C-72.95037896 503.50244947 -78.32863175 498.11776632 -83.70572412 492.73191911 C-91.48821955 484.9368461 -99.27397318 477.14503382 -107.06061095 469.35409892 C-119.70591889 456.70172971 -132.34935733 444.0474942 -144.99126184 431.39172441 C-145.74724611 430.63491232 -146.50323038 429.87810024 -147.28212327 429.09835446 C-153.41572878 422.95800455 -159.54924371 416.81756417 -165.68275487 410.67712003 C-171.04433724 405.30948491 -176.40595578 399.94188594 -181.76762903 394.5743416 C-182.52268789 393.81845461 -183.27774675 393.06256762 -184.05568618 392.28377497 C-196.65157646 379.67419228 -209.24943525 367.06657805 -221.84869659 354.46036369 C-229.61451222 346.6900714 -237.37854605 338.91800686 -245.14027905 331.14363641 C-250.4588182 325.81666232 -255.77913188 320.49146497 -261.10083675 315.1676535 C-264.16942816 312.09771919 -267.23718744 309.02696509 -270.30273759 305.95399362 C-273.11208835 303.13786761 -275.92376565 300.32408594 -278.7372635 297.51210332 C-279.75149982 296.4975968 -280.76489374 295.48224722 -281.77732986 294.46594417 C-286.78352515 289.44152604 -291.82902624 284.54341434 -297.21226585 279.92353553 C-299.23346786 278.17714502 -301.14333972 276.34223526 -303.03044641 274.45228654 C-304.10712579 273.37766916 -304.10712579 273.37766916 -305.20555627 272.28134233 C-305.9622561 271.52104722 -306.71895593 270.76075212 -307.49858606 269.97741777 C-308.3190542 269.15709565 -309.13952234 268.33677354 -309.98485315 267.49159318 C-312.67084708 264.80490781 -315.35329087 262.11470786 -318.03569543 259.42443925 C-319.90734376 257.55092402 -321.77918865 255.67760726 -323.65129602 253.80455095 C-328.05879021 249.3939628 -332.46373158 244.9808344 -336.86773574 240.56676173 C-341.88638622 235.53688967 -346.90791522 230.5098955 -351.92967451 225.48312753 C-362.24944509 215.15293643 -372.56556994 204.81910981 -382.87944543 194.483033 C-382.50191822 194.06500395 -382.124391 193.64697491 -381.73542356 193.21627831 C-378.03611356 189.02600443 -374.97937061 184.73255228 -372.08717859 179.95961076 C-354.73388253 151.98451687 -335.31375838 125.76973041 -314.08910191 100.62711233 C-313.20096285 99.57465996 -312.31401428 98.52120178 -311.42827284 97.46673077 C-249.40634116 23.63898934 -185.5729979 1.85336392 0 0 Z " fill="#0356EF" transform="translate(2610.8794454336166,1283.5169669985771)"/>
<path d="M0 0 C3.87186228 1.79940662 6.54145361 4.26930805 9.51434326 7.28056335 C10.05931245 7.82452926 10.60428164 8.36849517 11.16576505 8.92894489 C12.99127249 10.75349951 14.80953465 12.58510697 16.62792969 14.41674805 C17.93528264 15.72630226 19.24308394 17.03540901 20.55130005 18.34410095 C23.36867978 21.16441545 26.18287159 23.98785993 28.99465179 26.81375694 C33.44477309 31.28614638 37.90197315 35.75143552 42.36016846 40.21577454 C49.41624608 47.28323968 56.46763861 54.35535815 63.51700902 61.4295128 C76.12576078 74.08252825 88.73999744 86.73006942 101.35955739 99.37230521 C105.78562065 103.80675291 110.20885853 108.24399395 114.62981367 112.68353403 C117.38850319 115.45291234 120.14925969 118.22022339 122.91051865 120.98703957 C124.18521009 122.26518412 125.45902988 123.54419869 126.731884 124.82417297 C128.47814661 126.57998306 130.22756393 128.33259258 131.97772217 130.08451843 C132.47307803 130.58415137 132.96843389 131.08378432 133.47880054 131.59855765 C136.16230027 134.27782373 138.91857442 136.81881611 141.79273033 139.2931509 C146.52133197 143.39414555 150.92378628 147.79125893 155.33859253 152.22506714 C156.24648187 153.13280762 157.15437121 154.0405481 158.08977234 154.97579587 C160.58983073 157.47556086 163.08677959 159.97841123 165.58320761 162.48180103 C168.28340165 165.18840283 170.98653109 167.89207024 173.6893158 170.59608459 C178.36545377 175.27510137 183.03981422 179.95588773 187.71300888 184.63784409 C194.47124574 191.40865896 201.23274113 198.17621238 207.99512078 204.94288935 C218.97018658 215.92501261 229.94338118 226.90900337 240.91503906 237.89453125 C241.57091629 238.55123629 242.22679353 239.20794134 242.90254582 239.88454653 C247.56007912 244.54798252 252.2175459 249.21148493 256.875 253.875 C262.20568063 259.21261358 267.53639513 264.55019333 272.8671875 269.88769531 C273.52408093 270.54541687 274.18097436 271.20313842 274.85777365 271.88079093 C285.79704837 282.83373473 296.73827417 293.78472753 307.6809026 304.73432076 C314.43024752 311.48815266 321.17780454 318.24376157 327.92308743 325.00165041 C332.53796944 329.62493595 337.15459806 334.24647236 341.77262668 338.86661486 C344.4394691 341.53480659 347.10546101 344.20383474 349.76928902 346.87503624 C352.6512883 349.76498322 355.5370944 352.65109795 358.42330933 355.53683472 C359.27192626 356.38904661 360.12054319 357.2412585 360.99487579 358.119295 C361.76375472 358.88679958 362.53263365 359.65430416 363.32481194 360.44506645 C363.99106146 361.11223777 364.65731098 361.77940908 365.34374988 362.46679771 C366.9370384 364.08494423 366.9370384 364.08494423 369 365 C369 456.41 369 547.82 369 642 C276.6 642 184.2 642 89 642 C89 545.97 89 449.94 89 351 C30.92 351 -27.16 351 -87 351 C-87 447.03 -87 543.06 -87 642 C-155.2790625 642.12375 -155.2790625 642.12375 -224.9375 642.25 C-239.29628662 642.28641602 -253.65507324 642.32283203 -268.44897461 642.36035156 C-286.01867676 642.37841797 -286.01867676 642.37841797 -294.25074768 642.3817749 C-299.98506789 642.38549287 -305.71923077 642.40011359 -311.45350647 642.42230225 C-318.07871495 642.4479001 -324.70377347 642.45931217 -331.32903168 642.4537798 C-334.71278763 642.45138682 -338.09594286 642.45726074 -341.4796809 642.47686052 C-358.38601681 642.57019213 -375.1756471 642.52182173 -390.4375 634.25 C-391.04013672 633.95351562 -391.64277344 633.65703125 -392.26367188 633.3515625 C-402.7530854 627.92486276 -410.96460929 619.29137868 -419.125 610.9375 C-420.99907614 609.02640587 -422.87765554 607.11998182 -424.7578125 605.21484375 C-425.5739502 604.38073975 -426.39008789 603.54663574 -427.23095703 602.68725586 C-429.33419505 600.64613958 -431.44787091 598.73371472 -433.66879272 596.82922363 C-437.97932131 593.06931995 -442.03538208 589.09883951 -446.06835938 585.04516602 C-446.83030609 584.28336533 -447.59225281 583.52156464 -448.37728882 582.73667908 C-450.86848996 580.2447872 -453.35614087 577.74938353 -455.84375 575.25390625 C-457.58087631 573.51491277 -459.31822509 571.7761415 -461.05578613 570.0375824 C-465.60846211 565.48110475 -470.15812581 560.921631 -474.70715332 556.36151123 C-479.35762892 551.7007708 -484.01096844 547.04289164 -488.6640625 542.38476562 C-497.7788352 533.25929708 -506.8905236 524.1307554 -516 515 C-512.5645761 510.92345659 -509.08529629 506.9598385 -505.31494141 503.18554688 C-504.44028229 502.3077356 -503.56562317 501.42992432 -502.66445923 500.5255127 C-501.73620331 499.59928101 -500.80794739 498.67304932 -499.8515625 497.71875 C-498.87024633 496.73675835 -497.88907849 495.75461845 -496.90805054 494.77233887 C-494.86056685 492.72338901 -492.81130689 490.67623737 -490.76074219 488.63037109 C-488.1530434 486.02836131 -485.54985114 483.42189663 -482.94799232 480.81404877 C-480.92502734 478.78744237 -478.89965219 476.76325805 -476.87357712 474.73976135 C-475.45218553 473.31934682 -474.03278178 471.89694395 -472.61343384 470.4744873 C-471.7324704 469.59667603 -470.85150696 468.71886475 -469.94384766 467.81445312 C-469.18028961 467.05169067 -468.41673157 466.28892822 -467.6300354 465.50305176 C-465.61992967 463.58999816 -463.59294359 461.78588733 -461.48557091 459.98641205 C-456.29813904 455.45601372 -451.45912533 450.59158933 -446.60083008 445.71435547 C-445.56864252 444.68188742 -444.53623247 443.64964176 -443.5036211 442.61759758 C-440.6845011 439.79877144 -437.8684931 436.97685464 -435.05299997 434.15440655 C-432.00912609 431.10413192 -428.96232365 428.05678498 -425.91586304 425.00909424 C-420.64223668 419.73258693 -415.37038835 414.45430865 -410.09970093 409.17486572 C-402.47105155 401.53363757 -394.83914295 393.89567123 -387.20635045 386.25858188 C-374.81061384 373.8557843 -362.41674679 361.45112042 -350.02441406 349.04492188 C-349.28338287 348.30306287 -348.54235167 347.56120386 -347.77886498 346.79686427 C-342.51919348 341.53129263 -337.25958895 336.26565409 -332 331 C-325.99190818 324.98497989 -319.98378606 318.96999006 -313.97558594 312.95507812 C-313.23546206 312.21412612 -312.49533818 311.47317411 -311.7327863 310.70976901 C-299.38549905 298.34878877 -287.03624283 285.98977743 -274.68558407 273.63216591 C-267.07331555 266.01542107 -259.46282875 258.39690426 -251.85464358 250.77608061 C-246.64122875 245.55423005 -241.42603872 240.33415694 -236.20945764 235.11546946 C-233.20162408 232.10629317 -230.19462232 229.09629769 -227.18983078 226.08408356 C-224.43599344 223.3234694 -221.67982802 220.56520149 -218.92184293 217.80873132 C-217.92779486 216.81441312 -216.93458872 215.8192523 -215.94234145 214.82313704 C-211.07762756 209.94035064 -206.16756291 205.20424317 -200.9395895 200.71291244 C-197.3017857 197.50025359 -193.90711936 194.0406542 -190.4831543 190.60340881 C-189.66369198 189.78480092 -188.84422966 188.96619303 -187.99993515 188.12277883 C-185.27231829 185.39680064 -182.54827573 182.66727935 -179.82421875 179.93774414 C-177.86296631 177.97565145 -175.90095761 176.01431563 -173.9389801 174.052948 C-169.72440776 169.83889834 -165.51166067 165.62303122 -161.3001709 161.40590096 C-155.21116664 155.30874697 -149.11938141 149.2143777 -143.02692819 143.12067025 C-133.1408304 133.23238739 -123.2569648 123.34187649 -113.37451172 113.44995117 C-103.77835724 103.84460847 -94.18114617 94.24032347 -84.58251953 84.63745117 C-83.69405403 83.74859159 -83.69405403 83.74859159 -82.78763974 82.84177525 C-79.81599187 79.86882228 -76.84432329 76.89589001 -73.87264442 73.92296803 C-49.2452187 49.28518666 -24.62141929 24.64378377 0 0 Z " fill="#0356EF" transform="translate(2164,1540)"/>
<path d="M0 0 C0.82916105 -0.00115384 1.6583221 -0.00230769 2.51260924 -0.0034965 C5.29708765 -0.00614798 8.0815085 -0.00165306 10.86598396 0.00279331 C12.87994021 0.00235731 14.8938964 0.00148187 16.90785229 0.00020415 C22.44686987 -0.00203512 27.98586815 0.00197275 33.52488327 0.00698221 C39.49620374 0.01129463 45.46752309 0.00983972 51.43884468 0.00907993 C61.78618172 0.0085552 72.13351291 0.01166184 82.48084831 0.01731777 C93.33321729 0.02323456 104.18558375 0.02708367 115.03795433 0.02817059 C115.71269277 0.02823933 116.38743122 0.02830806 117.08261628 0.02837889 C120.5092644 0.02871722 123.93591252 0.0290186 127.36256064 0.02930576 C151.63422145 0.03140624 175.90587897 0.03814378 200.17753792 0.04760838 C223.75729034 0.05679256 247.33704187 0.0638763 270.91679573 0.06811619 C272.00701984 0.06831348 272.00701984 0.06831348 273.11926868 0.06851475 C280.41824671 0.06983327 287.71722476 0.07110909 295.01620281 0.07235361 C309.88509557 0.07488983 324.75398826 0.07771108 339.62288094 0.08070469 C340.3065303 0.08084198 340.99017967 0.08097927 341.69454568 0.08112072 C387.34838302 0.09032156 433.00221846 0.10618758 478.65605354 0.12304783 C477.69862468 1.24572757 476.74038979 2.36771995 475.78181493 3.48942137 C475.24828439 4.11430446 474.71475385 4.73918754 474.16505571 5.38300648 C472.45718778 7.35236138 470.67992312 9.22499659 468.83735847 11.06872654 C468.14229698 11.76660786 467.44723549 12.46448917 466.73111153 13.18351841 C465.98914024 13.92346546 465.24716896 14.66341251 464.4827137 15.4257822 C463.68514153 16.2251067 462.88756935 17.02443119 462.06582832 17.84797764 C459.4447568 20.4734282 456.82007036 23.09522976 454.19511604 25.71679783 C452.36182988 27.55075823 450.52869213 29.38486701 448.69569588 31.21911716 C444.85923553 35.0570492 441.02102788 38.89322128 437.18144417 42.7280283 C432.7602576 47.14377763 428.34267945 51.56311227 423.92696536 55.98433352 C419.65777552 60.25863193 415.38575142 64.53008491 411.11254692 68.80037022 C409.30420706 70.6080455 407.49660281 72.416457 405.68976402 74.22563267 C403.15832342 76.75962845 400.62367217 79.29037001 398.08818245 81.82031345 C397.35025963 82.56026051 396.61233681 83.30020756 395.85205269 84.06257725 C394.80100098 85.10939922 394.80100098 85.10939922 393.7287159 86.17736912 C393.13181261 86.77389538 392.53490932 87.37042164 391.91991806 87.98502445 C390.0021893 89.79615267 388.04699403 91.51387559 386.04671478 93.23154545 C380.91381161 97.70217935 376.13425183 102.51245148 371.33281136 107.33276463 C370.3088734 108.35698308 369.28471294 109.38097913 368.26035118 110.40477371 C365.46403431 113.20079676 362.67082928 115.99991013 359.8781395 118.7995553 C356.85880595 121.82529005 353.83654341 124.84809667 350.81462288 127.87124729 C345.58355831 133.10519271 340.35427175 138.34090905 335.12614632 143.57779026 C327.55903537 151.15748048 319.98866477 158.73390843 312.41741037 166.30945957 C300.1215023 178.61242849 287.82746381 190.91726371 275.53495979 203.22363377 C274.79990983 203.95951155 274.06485986 204.69538933 273.30753565 205.45356643 C268.0903251 210.67667711 262.87318154 215.89985469 257.65605354 221.12304783 C251.69646433 227.08956533 245.73684481 233.05605257 239.77714729 239.02246189 C239.0429974 239.75743991 238.30884751 240.49241792 237.55245066 241.249668 C225.30460462 253.51120727 213.05478943 265.77077744 200.8035717 278.02894783 C193.25272203 285.58427369 185.70365403 293.14137141 178.15688801 300.70077634 C172.98552291 305.88057749 167.81238232 311.05860089 162.63785076 316.23523879 C159.65432034 319.22011187 156.67162159 322.2058039 153.6911335 325.1937151 C150.95950154 327.93212451 148.22554086 330.66818691 145.48976088 333.40245211 C144.5037881 334.38869498 143.51865707 335.37578029 142.53448534 336.36382043 C138.34296594 340.57104076 134.16413723 344.74851079 129.65842628 348.62067509 C124.62166089 352.9496224 119.9791996 357.6680402 115.29484749 362.37072849 C114.26678473 363.39907174 113.23849948 364.4271926 112.21001291 365.45511198 C109.40229448 368.26253657 106.59768796 371.07305166 103.79359651 373.88409829 C100.76199279 376.92210298 97.7274603 379.95717976 94.69326973 382.99260044 C89.44092427 388.2478268 84.19035682 393.50482411 78.94095039 398.76298618 C71.34307023 406.37344537 63.74193063 413.98064251 56.13990718 421.58696276 C43.79408484 433.93984601 31.45013207 446.29459556 19.1077137 458.65087986 C18.36967312 459.38974825 17.63163253 460.12861665 16.87122709 460.88987499 C11.63278606 466.13421616 6.39441202 471.37862421 1.15605354 476.62304783 C-4.82778697 482.61381663 -10.81165779 488.60455517 -16.79560661 494.5952158 C-17.90131194 495.70216332 -17.90131194 495.70216332 -19.02935475 496.83147341 C-31.3269214 509.14273316 -43.6264571 521.45202392 -55.92739534 533.75991488 C-63.50895444 541.34595023 -71.08873184 548.93375749 -78.66620743 556.52387178 C-83.8585974 561.72469763 -89.05276271 566.92374589 -94.24831903 572.12140858 C-97.24400102 575.11843326 -100.23885127 578.11627702 -103.23149109 581.11633968 C-105.97422574 583.86585147 -108.71928879 586.61301662 -111.46617132 589.35838431 C-112.45618175 590.34866485 -113.44535033 591.33978791 -114.43355983 592.33186561 C-119.36950141 597.28622016 -124.35065054 602.10637552 -129.6572051 606.66298354 C-131.75144211 608.47578114 -133.72788505 610.38395225 -135.68476677 612.34361362 C-136.44462379 613.10209599 -137.20448082 613.86057835 -137.98736382 614.64204502 C-138.79081734 615.44909382 -139.59427086 616.25614262 -140.42207146 617.08764744 C-141.72592545 618.39128239 -141.72592545 618.39128239 -143.05611992 619.7212534 C-145.41482698 622.08053347 -147.77130848 624.44199413 -150.12678719 626.80449462 C-152.59799747 629.28200048 -155.07208259 631.75663223 -157.54585075 634.2315836 C-162.21896393 638.90779192 -166.88952442 643.58654109 -171.55914974 648.26623207 C-176.88009386 653.59839402 -182.20391319 658.92768134 -187.52796364 664.2567414 C-198.46980365 675.20900464 -209.40806742 686.16483234 -220.34394646 697.12304783 C-226.63649605 691.92978658 -232.35945006 686.23566057 -238.10932732 680.45532322 C-239.18088592 679.3818423 -240.25267475 678.30859115 -241.32467461 677.23555088 C-243.62158736 674.93549179 -245.91694074 672.63389198 -248.21108627 670.33107281 C-251.84460349 666.68396073 -255.48199659 663.04073059 -259.11996269 659.39805698 C-267.49902194 651.00698599 -275.87305428 642.61090415 -284.24703026 634.21476078 C-291.92338049 626.51819072 -299.60080771 618.82270311 -307.28230578 611.13127035 C-310.89261027 607.51600719 -314.50046782 603.89832558 -318.10642231 600.27872384 C-320.35701785 598.02062614 -322.60972179 595.76464064 -324.86297989 593.5092001 C-325.90061874 592.46970213 -326.93739943 591.42934666 -327.9732151 590.38803196 C-332.93718251 585.39856161 -337.93286154 580.54525795 -343.27380466 575.96245193 C-347.78382079 571.95512151 -352.00015637 567.63276943 -356.27046013 563.37353611 C-357.34707889 562.3031964 -358.42388162 561.2330417 -359.50085258 560.16305637 C-363.0080686 556.67669359 -366.51012003 553.18516646 -370.01191521 549.69336033 C-371.22400925 548.48531941 -372.43613522 547.27731051 -373.64829254 546.06933308 C-379.339928 540.39669982 -385.02918277 534.72169221 -390.71550483 529.04373276 C-397.25884398 522.51017901 -403.81039339 515.98500418 -410.36898059 509.46675789 C-415.4547902 504.41115214 -420.53285761 499.34785248 -425.6052416 494.278777 C-428.62804979 491.2583122 -431.65403057 488.24120123 -434.68826675 485.23221302 C-437.54122948 482.40261424 -440.38441867 479.56354161 -443.22059631 476.71712208 C-444.25832659 475.67889854 -445.2994401 474.64404303 -446.34428978 473.61298466 C-455.90348889 464.17287607 -461.52544227 456.62967382 -461.71894646 442.99804783 C-461.77147024 433.09206226 -458.83767227 426.15859061 -452.07011795 418.85942841 C-450.37968515 417.15899789 -448.62819573 415.61331854 -446.79942131 414.06361485 C-441.58719789 409.53297931 -436.74036908 404.65183064 -431.8688488 399.76147556 C-430.82841164 398.72075792 -429.787752 397.68026264 -428.74689102 396.63996887 C-425.9049679 393.79833963 -423.06615691 390.95361942 -420.22786045 388.1083684 C-417.15944622 385.03355389 -414.08810389 381.96166663 -411.0171032 378.88943577 C-405.70091506 373.57036658 -400.38650494 368.24952634 -395.07325554 362.92752171 C-387.38306774 355.22475561 -379.68962113 347.5252509 -371.99529052 339.82662332 C-359.49972537 327.32399709 -347.00602978 314.81950456 -334.51386833 302.31347752 C-333.76685591 301.56563728 -333.01984348 300.81779704 -332.25019431 300.04729497 C-326.94806186 294.73926237 -321.64599637 289.43116288 -316.34394646 284.12304783 C-310.28735203 278.05952512 -304.2307273 271.99603268 -298.17402458 265.93261814 C-297.42792671 265.18569214 -296.68182884 264.43876614 -295.91312194 263.66920602 C-283.46639347 251.2087848 -271.01769623 238.75033231 -258.56759644 226.29327965 C-250.89390908 218.61511583 -243.22200346 210.93517992 -235.55239916 203.25293756 C-230.2969346 197.98903759 -225.03969511 192.72691478 -219.78106451 187.4661777 C-216.74892781 184.43269821 -213.71762305 181.39839927 -210.68852806 178.36188221 C-207.91248535 175.57906332 -205.13411518 172.7985899 -202.35392499 170.01991475 C-201.35180162 169.01752122 -200.35052037 168.01428489 -199.35019755 167.01009452 C-194.41231331 162.05401582 -189.43126684 157.23505493 -184.12301195 152.67708087 C-181.4369722 150.33079596 -178.92646021 147.82803188 -176.42019463 145.29263401 C-175.87941912 144.74989066 -175.33864361 144.20714732 -174.78148097 143.64795721 C-172.99625158 141.85509854 -171.21467663 140.05865401 -169.43305779 138.26220798 C-168.1428922 136.96520138 -166.85246966 135.66845033 -165.56181145 134.37193394 C-162.79471143 131.59156267 -160.02904749 128.80977363 -157.26439667 126.02696705 C-152.88303123 121.61760763 -148.49611845 117.21379564 -144.10803032 112.81112766 C-142.60117338 111.29912758 -141.09432319 109.78712077 -139.58747959 108.27510738 C-138.83315092 107.51819316 -138.07882226 106.76127893 -137.30163515 105.98142791 C-127.09743233 95.7412827 -116.89799003 85.49643186 -106.70893669 75.24121189 C-99.82117636 68.30881279 -92.92620012 61.38367742 -86.02311724 54.46653497 C-82.37826561 50.81364945 -78.73715948 47.15720179 -75.10497284 43.49171925 C-71.68510537 40.04055466 -68.25580711 36.59904002 -64.81939125 33.16435528 C-63.56834399 31.91063636 -62.32067176 30.65353783 -61.07688141 29.39261913 C-44.08142751 12.17355752 -25.00756542 -0.08581394 0 0 Z " fill="#0356EF" transform="translate(1806.3439464569092,1294.8769521713257)"/>
<path d="M0 0 C1.22639996 0.65785518 2.45296059 1.31541094 3.6796875 1.97265625 C16.54202567 8.97784992 27.50910631 17.87086126 38 28 C38.56412598 28.54076172 39.12825195 29.08152344 39.70947266 29.63867188 C63.21275793 52.58311981 77.290124 85.02469438 83 117 C83.309375 118.670625 83.309375 118.670625 83.625 120.375 C86.63963761 139.80266459 86.24591173 160.62596435 83 180 C82.89816406 180.65532715 82.79632812 181.3106543 82.69140625 181.98583984 C77.96977661 212.21738518 64.84125117 240.74557705 45 264 C44.55543457 264.52432617 44.11086914 265.04865234 43.65283203 265.58886719 C18.23123961 295.25513179 -20.02420292 314.70627067 -59 318 C-75.23846574 318.85989781 -91.0534108 318.16569891 -107 315 C-108.70542969 314.69255859 -108.70542969 314.69255859 -110.4453125 314.37890625 C-147.39578127 306.92398711 -182.30828664 282.68946922 -203.55078125 251.765625 C-207.76785755 245.38607313 -211.46851085 238.77807979 -215 232 C-215.37898438 231.29456055 -215.75796875 230.58912109 -216.1484375 229.86230469 C-237.58251468 189.67340997 -239.47805206 139.28135931 -227 96 C-225.3013404 90.53873103 -223.24123346 85.25883334 -221 80 C-220.71817871 79.32549805 -220.43635742 78.65099609 -220.14599609 77.95605469 C-203.64911179 38.98660628 -172.1195394 8.86675355 -133.27392578 -7.25146484 C-90.5823073 -24.202675 -40.31244618 -22.29576963 0 0 Z " fill="#0356EF" transform="translate(1428,2311)"/>
<path d="M0 0 C1.83901142 0.93293806 3.69109012 1.83525576 5.54541016 2.73730469 C40.93711002 20.35432091 68.16319759 53.85906127 81.17089844 90.92675781 C83.46934705 97.83387334 85.27250495 104.82628758 86.83837891 111.93261719 C87.0882959 113.03065674 87.0882959 113.03065674 87.34326172 114.15087891 C97.29360035 160.22527302 88.28418035 210.25280396 63.53222656 250.03173828 C56.79133305 260.36500631 48.54151066 269.22948544 39.83837891 277.93261719 C39.26216797 278.55523438 38.68595703 279.17785156 38.09228516 279.81933594 C25.31912718 293.4184718 7.77321541 302.63311869 -9.16162109 309.93261719 C-10.10521484 310.36316406 -11.04880859 310.79371094 -12.02099609 311.23730469 C-22.90052626 315.87117865 -34.58005643 317.81135059 -46.16162109 319.93261719 C-47.28052734 320.14015625 -48.39943359 320.34769531 -49.55224609 320.56152344 C-80.54811465 323.74832811 -111.30673188 318.87330711 -139.16162109 304.93261719 C-140.16660645 304.44124268 -140.16660645 304.44124268 -141.19189453 303.93994141 C-150.255064 299.48384608 -158.31114747 294.33828035 -166.16162109 287.93261719 C-166.72768066 287.47338867 -167.29374023 287.01416016 -167.87695312 286.54101562 C-186.54206491 271.30522959 -200.27408959 253.34203618 -211.16162109 231.93261719 C-211.49145996 231.28776367 -211.82129883 230.64291016 -212.16113281 229.97851562 C-232.99458931 188.35516449 -233.2777797 136.16739004 -219.36035156 92.41357422 C-217.60491756 87.43571874 -215.477158 82.6723184 -213.16162109 77.93261719 C-212.79020996 77.16369141 -212.41879883 76.39476563 -212.03613281 75.60253906 C-193.68793155 38.07862439 -162.83904369 8.04905149 -123.16162109 -6.06738281 C-122.14712891 -6.44507812 -121.13263672 -6.82277344 -120.08740234 -7.21191406 C-112.267125 -9.99964978 -104.3372662 -11.67875565 -96.16162109 -13.06738281 C-94.95119141 -13.27492188 -93.74076172 -13.48246094 -92.49365234 -13.69628906 C-61.34221428 -18.31251253 -28.18748078 -14.33718794 0 0 Z " fill="#0356EF" transform="translate(1761.16162109375,2308.0673828125)"/>
<path d="M0 0 C29.7 0 59.4 0 90 0 C104 36 104 36 110 52 C111.57765279 56.12734327 113.15923183 60.25274362 114.75 64.375 C115.61981025 66.63280534 116.48960137 68.89061805 117.359375 71.1484375 C117.79701172 72.2837793 118.23464844 73.41912109 118.68554688 74.58886719 C120.7931073 80.05819004 122.89642774 85.52914229 125 91 C127.40512331 97.25434051 129.81048545 103.50858701 132.21875 109.76171875 C136.53660438 120.97631554 140.8418367 132.19565146 145.1355896 143.41949463 C148.22274628 151.48882622 151.31377537 159.55666899 154.40689087 167.62371826 C156.42232584 172.88073268 158.43566029 178.13853457 160.44482422 183.39794922 C162.41631077 188.55845491 164.39295583 193.71695655 166.3732605 198.87408447 C167.1215198 200.82546432 167.86789355 202.77756827 168.61233521 204.73040771 C169.64286933 207.432873 170.67998101 210.13272266 171.71875 212.83203125 C172.17531227 214.03635048 172.17531227 214.03635048 172.64109802 215.26499939 C174.24233566 219.48672058 174.24233566 219.48672058 177 223 C177.25990723 222.3100293 177.51981445 221.62005859 177.78759766 220.90917969 C179.06482475 217.52206424 180.34416482 214.13575233 181.625 210.75 C181.86819977 210.10710022 182.11139954 209.46420044 182.36196899 208.80181885 C185.2994298 201.04344343 188.26258055 193.29596176 191.28515625 185.5703125 C191.561353 184.86432419 191.83754974 184.15833588 192.12211609 183.43095398 C192.68885517 181.98267529 193.25562283 180.53440778 193.82241821 179.08615112 C199.6858104 164.09930663 205.36221516 149.050292 210.94772339 133.95779419 C216.091831 120.06238393 221.34361079 106.21287485 226.6854248 92.39233398 C231.58531005 79.71445362 236.40496645 67.00908836 241.14550781 54.27075195 C243.34499225 48.36995498 245.58393604 42.49446321 247.94360352 36.65600586 C250.24764345 30.86315852 252.42313481 25.01980403 254.625 19.1875 C255.36180416 17.23743465 256.09889117 15.28747735 256.83651733 13.33772278 C257.50050725 11.58239373 258.16361105 9.82672956 258.82666016 8.07104492 C259.85840467 5.37060501 260.92637434 2.68406415 262 0 C291.7 0 321.4 0 352 0 C352 108.24 352 216.48 352 328 C326.92 328 301.84 328 276 328 C275.67 264.31 275.34 200.62 275 135 C272.03 143.91 269.06 152.82 266 162 C264.68 165.3 263.36 168.6 262 172 C261.34218663 173.77136032 260.69587626 175.54713388 260.0715332 177.33056641 C259.7456572 178.25784546 259.41978119 179.18512451 259.08403015 180.14050293 C258.74305801 181.11765259 258.40208588 182.09480225 258.05078125 183.1015625 C257.68092606 184.15557251 257.31107086 185.20958252 256.93000793 186.29553223 C256.13578373 188.55951057 255.34251129 190.82382298 254.55010986 193.08843994 C252.86082899 197.91568271 251.16639627 202.74111173 249.47216797 207.56661987 C248.59955682 210.05199757 247.72716253 212.53745142 246.85498047 215.02297974 C242.62939615 227.06326985 238.38398523 239.09648676 234.125 251.125 C233.77630859 252.10995453 233.42761719 253.09490906 233.06835938 254.10971069 C227.65187046 269.40300199 222.17953016 284.67555517 216.63931274 299.92446899 C213.37478618 308.93366389 210.18984245 317.96211305 207 327 C186.54 327 166.08 327 145 327 C141.6896875 317.780625 141.6896875 317.780625 138.3125 308.375 C137.62712158 306.46638184 136.94174316 304.55776367 136.2355957 302.59130859 C131.62599937 289.75307722 127.03121815 276.90975227 122.46875 264.0546875 C121.14598743 260.32807028 119.82308277 256.60150355 118.5 252.875 C118.1526178 251.89655121 117.8052356 250.91810242 117.44732666 249.91000366 C113.74738238 239.49224033 110.03928522 229.07774433 106.2734375 218.68359375 C105.9824115 217.88008484 105.6913855 217.07657593 105.39154053 216.24871826 C104.04407373 212.5308087 102.69340331 208.81410447 101.33789062 205.09912109 C98.46308494 197.19736377 95.7131127 189.26461127 93.09786987 181.27278137 C91.72206264 177.08495823 90.25476762 172.94782454 88.68942261 168.82710266 C87.76953757 166.38923018 86.91211279 163.9318978 86.0625 161.46875 C85.72476563 160.49292969 85.38703125 159.51710938 85.0390625 158.51171875 C84.34635417 156.50390625 83.65364583 154.49609375 82.9609375 152.48828125 C82.62320313 151.51246094 82.28546875 150.53664063 81.9375 149.53125 C81.48697266 148.22510742 81.48697266 148.22510742 81.02734375 146.89257812 C79.73175602 143.24473511 78.35922901 139.6246107 77 136 C76.67 199.36 76.34 262.72 76 328 C50.92 328 25.84 328 0 328 C0 219.76 0 111.52 0 0 Z " fill="#0356EF" transform="translate(810,2298)"/>
<path d="M0 0 C9.81276418 -0.48899345 19.62259012 -0.86082084 29.44510174 -1.08805561 C34.0082537 -1.19720333 38.56301861 -1.34476574 43.12133789 -1.58422852 C72.48700888 -3.08697463 72.48700888 -3.08697463 79.86950684 1.96279907 C84.30895629 6.7520984 86.73597072 12.11331585 88.89569569 18.21281719 C90.77022972 22.94400313 93.58928155 27.07513934 96.375 31.3125 C96.97094971 32.27567139 97.56689941 33.23884277 98.1809082 34.23120117 C106.7030674 47.98547515 115.27325355 61.70976467 123.9375 75.375 C129.32571985 83.87834152 134.59787157 92.45139574 139.86474609 101.03027344 C146.23461193 111.39925988 152.67953605 121.72022249 159.14111328 132.03222656 C162.88791236 138.01411382 166.62637299 144.00121646 170.36645508 149.98730469 C173.53848204 155.06354284 176.71257649 160.13846668 179.890625 165.2109375 C180.53708984 166.24347656 181.18355469 167.27601563 181.84960938 168.33984375 C183.05325286 170.2622096 184.25759321 172.18413946 185.46289062 174.10546875 C191.04749149 183.02806533 196.50987037 192.01615151 202 201 C202.495 101.505 202.495 101.505 203 0 C228.08 0 253.16 0 279 0 C279 107.91 279 215.82 279 327 C253.59 327 228.18 327 202 327 C196.57823245 318.56613937 191.17426592 310.13420763 185.875 301.625 C184.57422767 299.54035902 183.27344615 297.45572377 181.97265625 295.37109375 C181.31668457 294.31905762 180.66071289 293.26702148 179.98486328 292.18310547 C176.76311566 287.01642091 173.53847269 281.8515474 170.3125 276.6875 C169.37349854 275.18437256 169.37349854 275.18437256 168.41552734 273.65087891 C164.62671055 267.59016098 160.82182415 261.5399506 157 255.5 C149.30101223 243.33264116 141.68742066 231.11191904 134.06347656 218.89746094 C132.14688186 215.82722552 130.22984443 212.75726727 128.3125 209.6875 C127.37204834 208.18159302 127.37204834 208.18159302 126.41259766 206.64526367 C122.64998878 200.62518794 118.86446073 194.62027538 115.0625 188.625 C110.34777786 181.18769183 105.72821207 173.6942513 101.125 166.1875 C93.25557997 153.35677995 85.35034207 140.52551311 77 128 C76.67 194 76.34 260 76 328 C51.25 328 26.5 328 1 328 C0 327 0 327 -0.1241985 324.77906793 C-0.12381878 323.78609927 -0.12343906 322.79313061 -0.12304783 321.77007198 C-0.12503888 320.62901058 -0.12702993 319.48794918 -0.12908131 318.31231016 C-0.12616847 317.04288291 -0.12325563 315.77345566 -0.12025452 314.46556091 C-0.1206901 313.11588793 -0.12156477 311.76621503 -0.12284368 310.41654259 C-0.12509117 306.6904766 -0.12106391 302.96443909 -0.11606562 299.23837674 C-0.11176493 295.22676855 -0.11320727 291.21516209 -0.1139679 287.20355225 C-0.11449337 280.24743199 -0.11134409 273.29132108 -0.10573006 266.33520317 C-0.09761827 256.27770624 -0.09500017 246.22021386 -0.09374207 236.16271401 C-0.09155104 219.84683607 -0.08488958 203.53096312 -0.07543945 187.21508789 C-0.06626664 171.36157252 -0.05918517 155.5080585 -0.05493164 139.65454102 C-0.05466892 138.67805619 -0.05440619 137.70157135 -0.05413551 136.69549607 C-0.05283051 131.79697542 -0.0515668 126.89845475 -0.05032361 121.99993408 C-0.03994941 81.33328591 -0.02232973 40.66664324 0 0 Z " fill="#0457EF" transform="translate(3081,2298)"/>
<path d="M0 0 C155.28703704 0 155.28703704 0 172.625 6.125 C173.92219971 6.57286865 173.92219971 6.57286865 175.24560547 7.02978516 C188.62036422 11.8284002 200.52711737 18.30867577 211 28 C211.72574219 28.65742188 212.45148437 29.31484375 213.19921875 29.9921875 C232.36856743 48.17568396 240.70345459 75.05187933 241.40698242 100.86035156 C241.58694458 119.0062956 238.24468522 134.83952805 230 151 C229.46503906 152.05703125 228.93007812 153.1140625 228.37890625 154.203125 C218.1329615 172.97507173 202.97643618 184.84989213 184 194 C183.09652832 194.43916748 183.09652832 194.43916748 182.17480469 194.88720703 C178.64178807 196.52010585 175.89575772 197.35415979 172 197 C172.43570313 197.73863281 172.87140625 198.47726563 173.3203125 199.23828125 C174.21363281 200.76001953 174.21363281 200.76001953 175.125 202.3125 C175.70507812 203.29863281 176.28515625 204.28476563 176.8828125 205.30078125 C181.50944465 213.30298966 185.80503052 221.49441412 190.14916992 229.65185547 C196.28595645 241.16774059 202.5313473 252.61125473 208.93725586 263.98046875 C213.2005537 271.55109237 217.37566848 279.16563401 221.5144043 286.80493164 C225.7778269 294.6501146 230.17621748 302.41625906 234.63696289 310.15087891 C235.14864014 311.04597168 235.66031738 311.94106445 236.1875 312.86328125 C236.63480469 313.63969971 237.08210938 314.41611816 237.54296875 315.21606445 C239.55020524 319.05127185 241.24194043 323.04436596 243 327 C214.62 327 186.24 327 157 327 C153.7 320.4 150.4 313.8 147 307 C143.36296675 300.05126585 143.36296675 300.05126585 139.69921875 293.1171875 C137.72281069 289.38290585 135.7717667 285.63627352 133.83203125 281.8828125 C128.89737545 272.33501003 123.95876175 262.80474414 118.6875 253.4375 C115.35149647 247.50814616 112.19275611 241.52680976 109.19604492 235.41918945 C105.56841973 228.04792083 101.71654702 220.79381089 97.85986328 213.5402832 C97.10938721 212.11655396 97.10938721 212.11655396 96.34375 210.6640625 C95.89193359 209.81279785 95.44011719 208.9615332 94.97460938 208.08447266 C94 206 94 206 94 204 C87.73 204 81.46 204 75 204 C75 244.59 75 285.18 75 327 C50.25 327 25.5 327 0 327 C0 219.09 0 111.18 0 0 Z " fill="#0356EF" transform="translate(2572,2298)"/>
<path d="M0 0 C25.08 0 50.16 0 76 0 C76 42.24 76 84.48 76 128 C114.61 128 153.22 128 193 128 C193 85.76 193 43.52 193 0 C218.08 0 243.16 0 269 0 C269 108.24 269 216.48 269 328 C243.92 328 218.84 328 193 328 C193 283.45 193 238.9 193 193 C154.39 193 115.78 193 76 193 C76 237.55 76 282.1 76 328 C50.92 328 25.84 328 0 328 C0 219.76 0 111.52 0 0 Z " fill="#0456EF" transform="translate(2137,2298)"/>
<path d="M0 0 C1.28777344 1.06347656 1.28777344 1.06347656 2.6015625 2.1484375 C20.39050813 17.46520338 32.13310516 39.47712505 34 63 C34 66.63 34 70.26 34 74 C6.94 74 -20.12 74 -48 74 C-48.99 68.06 -48.99 68.06 -50 62 C-54.53956198 52.30742172 -60.77345273 46.04275675 -70.671875 41.875 C-74.9489073 40.75052202 -78.90956932 40.67009711 -83.3125 40.6875 C-84.11623047 40.67138672 -84.91996094 40.65527344 -85.74804688 40.63867188 C-94.05500637 40.63198888 -101.30763157 42.50664763 -107.49609375 48.25 C-114.18683783 56.03559311 -114.73934327 65.13504839 -114 75 C-112.19732224 83.05775238 -107.82850463 88.65784674 -101.06958008 93.33618164 C-98.97651541 94.57747424 -96.85727973 95.71077564 -94.6875 96.8125 C-93.46740234 97.44188477 -93.46740234 97.44188477 -92.22265625 98.08398438 C-79.03703003 104.6866375 -65.02786948 109.46466232 -51.1796875 114.46484375 C-18.45237527 126.323483 15.90341589 139.88404758 32.19091797 173.16210938 C34.42681617 178.24112013 35.77896763 183.59848391 37 189 C37.1757959 189.75063721 37.3515918 190.50127441 37.53271484 191.2746582 C38.40047711 196.33569802 38.18592067 201.46761582 38.18530273 206.59033203 C38.18747087 208.59802335 38.2059294 210.60567566 38.22460938 212.61328125 C38.25857097 235.36755243 30.83211527 256.63034211 16 274 C15.57847656 274.56460938 15.15695312 275.12921875 14.72265625 275.7109375 C7.24200159 285.39713472 -4.11323177 292.76722301 -15 298 C-15.845625 298.42667969 -16.69125 298.85335937 -17.5625 299.29296875 C-51.44080949 315.67756783 -92.86061682 314.85455957 -128 303 C-143.37040723 297.35372796 -156.13385503 289.32583014 -168 278 C-168.60199219 277.47277344 -169.20398438 276.94554688 -169.82421875 276.40234375 C-185.57903343 262.04306044 -193.34797436 240.60673337 -196 220 C-196 216.37 -196 212.74 -196 209 C-169.27 209 -142.54 209 -115 209 C-113.68 214.28 -112.36 219.56 -111 225 C-107.08410107 233.81077259 -101.17606255 240.44193493 -92 244 C-80.13304205 247.75747366 -67.52402657 246.816196 -56.19921875 241.74609375 C-48.95429811 237.80700356 -45.76885085 233.29578065 -42.6875 225.8125 C-40.97468639 216.31416999 -40.82708097 207.13454764 -46.37109375 198.984375 C-57.84462595 184.56679497 -78.4440698 178.9564238 -95.30447388 173.37420654 C-99.49541105 171.98317208 -103.67546444 170.56020992 -107.85546875 169.13671875 C-108.66483383 168.8611615 -109.47419891 168.58560425 -110.30809021 168.30169678 C-140.52824983 157.97752997 -171.34901244 144.7668304 -187 115 C-197.60852866 92.22645546 -198.95445715 62.83220584 -190.67578125 39.12109375 C-181.28384561 13.62734632 -163.12662914 -3.00257058 -138.95703125 -14.69140625 C-97.2101682 -33.16590971 -35.91608537 -30.10442107 0 0 Z " fill="#0456EF" transform="translate(734,2318)"/>
<path d="M0 0 C62.7 0 125.4 0 190 0 C190 21.12 190 42.24 190 64 C152.38 64 114.76 64 76 64 C76 85.78 76 107.56 76 130 C109.33 130 142.66 130 177 130 C177 150.46 177 170.92 177 192 C143.67 192 110.34 192 76 192 C76 215.43 76 238.86 76 263 C113.62 263 151.24 263 190 263 C190 284.12 190 305.24 190 327 C127.3 327 64.6 327 0 327 C0 219.09 0 111.18 0 0 Z " fill="#0356EF" transform="translate(2851,2298)"/>
<path d="M0 0 C79.2 0 158.4 0 240 0 C240 21.12 240 42.24 240 64 C212.94 64 185.88 64 158 64 C158 151.12 158 238.24 158 328 C132.92 328 107.84 328 82 328 C82 240.88 82 153.76 82 64 C54.94 64 27.88 64 0 64 C0 42.88 0 21.76 0 0 Z " fill="#0356EF" transform="translate(1868,2298)"/>
<path d="M0 0 C79.2 0 158.4 0 240 0 C240 21.12 240 42.24 240 64 C212.61 64 185.22 64 157 64 C157 150.79 157 237.58 157 327 C132.25 327 107.5 327 82 327 C82 240.21 82 153.42 82 64 C54.94 64 27.88 64 0 64 C0 42.88 0 21.76 0 0 Z " fill="#0356EF" transform="translate(3389,2298)"/>
<path d="M0 0 C1.55849571 1.33476387 3.10125719 2.68819606 4.625 4.0625 C5.30949219 4.65417969 5.99398438 5.24585937 6.69921875 5.85546875 C22.81515483 20.70492655 31.11256395 43.62927161 32.625 65.0625 C33.84601614 96.96564018 30.97475778 127.29182615 8.578125 152.05078125 C-6.13981449 167.51634516 -25.88191057 174.7853648 -46.84790039 175.40161133 C-68.79409623 175.6917535 -88.24853771 169.39715563 -104.375 154.0625 C-123.59716937 135.32521418 -130.37023018 109.96802386 -130.71826172 83.94213867 C-130.85195985 68.41534243 -130.34778169 53.94782528 -125.375 39.0625 C-125.15038086 38.38509766 -124.92576172 37.70769531 -124.69433594 37.00976562 C-117.80519873 17.17466606 -103.11808234 1.0991784 -84.58203125 -8.36328125 C-58.06142542 -20.49618999 -23.22037545 -17.96226612 0 0 Z " fill="#FEFEFE" transform="translate(1741.375,2380.9375)"/>
<path d="M0 0 C3.6710157 3.00139123 6.97982563 6.2877234 10.26367188 9.70410156 C11.01261719 10.45691406 11.7615625 11.20972656 12.53320312 11.98535156 C31.15229968 31.63686457 34.48731524 57.13436297 34.63867188 82.95410156 C34.65072662 84.1103302 34.65072662 84.1103302 34.6630249 85.28991699 C34.87397438 112.00876326 26.27434037 136.61198759 7.89257812 156.23535156 C-1.94245534 165.66664802 -13.56082182 171.48590051 -26.73632812 174.70410156 C-27.73684204 174.96900391 -27.73684204 174.96900391 -28.75756836 175.23925781 C-34.61407452 176.69676227 -40.15389825 177.00694659 -46.17382812 176.95410156 C-47.48963867 176.96570312 -47.48963867 176.96570312 -48.83203125 176.97753906 C-55.01728155 176.95930693 -60.72239494 176.11188884 -66.73632812 174.70410156 C-67.7134375 174.49269531 -68.69054688 174.28128906 -69.69726562 174.06347656 C-88.99478974 169.19225688 -104.95593317 156.70664164 -115.17773438 139.75878906 C-130.97919749 112.18419107 -133.04266719 76.84062894 -125.21435547 46.38842773 C-121.49965531 32.93279117 -115.12243595 21.09330488 -105.73632812 10.70410156 C-105.06085938 9.93582031 -104.38539062 9.16753906 -103.68945312 8.37597656 C-95.55858332 -0.34838739 -85.12427799 -6.75107795 -73.73632812 -10.29589844 C-72.80691406 -10.59367187 -71.8775 -10.89144531 -70.91992188 -11.19824219 C-47.73057058 -17.3725848 -19.59134171 -14.6218844 0 0 Z " fill="#FEFEFE" transform="translate(1400.736328125,2379.2958984375)"/>
<path d="M0 0 C11.9415721 7.667141 21.03685941 17.85209582 25.21875 31.60546875 C26.09660537 36.5643065 26.26926517 41.40840756 26.3125 46.4375 C26.32273193 47.35571533 26.33296387 48.27393066 26.34350586 49.2199707 C26.16714975 62.98684682 20.60497927 74.64731698 11.1875 84.625 C0.57057696 94.66105795 -11.348994 99.91107594 -25.875 99.75 C-26.84219971 99.74170166 -27.80939941 99.73340332 -28.8059082 99.72485352 C-42.89597957 99.3934473 -54.48231435 94.69305537 -64.875 85.0625 C-76.355793 72.72821879 -80.69487834 58.2411373 -80.3984375 41.7421875 C-79.83574813 28.76690491 -73.44207988 17.95907591 -65.125 8.3125 C-45.9923991 -7.8249014 -22.38292214 -12.4004152 0 0 Z " fill="#FDFEFE" transform="translate(1568.125,1691.6875)"/>
<path d="M0 0 C55.90769231 0 55.90769231 0 66.125 10.0625 C72.21578624 17.47144147 71.7116088 25.91330302 71 35 C69.37231656 41.799184 64.44174777 45.93635719 59 50 C58.01 50.495 58.01 50.495 57 51 C57.97839844 51.58394531 57.97839844 51.58394531 58.9765625 52.1796875 C66.54688673 57.02558826 71.13834596 62.41503788 74 71 C75.09246222 80.61090177 73.64867004 88.06164272 68 96 C62.46801107 101.83241529 57.89237656 103.36920781 50 106 C33.5 106 17 106 0 106 C0 71.02 0 36.04 0 0 Z " fill="#020202" transform="translate(1351,2744)"/>
<path d="M0 0 C9.3225 -0.0825 18.645 -0.165 28.25 -0.25 C32.62813965 -0.30462402 32.62813965 -0.30462402 37.09472656 -0.36035156 C39.44335192 -0.37204885 41.79198548 -0.3822382 44.140625 -0.390625 C45.33155762 -0.41108887 46.52249023 -0.43155273 47.74951172 -0.45263672 C58.68777266 -0.45713251 68.54686361 1.72544884 77.03125 8.96484375 C85.16166009 17.36949386 88.04629627 28.03645735 88.375 39.5 C88.05147423 51.25945833 84.8144416 61.91784607 76.875 70.75 C69.50554198 77.68406335 60.06783577 80.13590008 50.17822266 80.11352539 C49.04199463 80.11340454 47.9057666 80.11328369 46.73510742 80.11315918 C44.96744019 80.10548523 44.96744019 80.10548523 43.1640625 80.09765625 C42.06924561 80.09664917 40.97442871 80.09564209 39.84643555 80.09460449 C35.77261298 80.08938851 31.69880539 80.07542727 27.625 80.0625 C18.50875 80.041875 9.3925 80.02125 0 80 C0 53.6 0 27.2 0 0 Z " fill="#FEFEFE" transform="translate(2648,2365)"/>
<path d="M0 0 C9.18103506 6.8510581 14.47455762 16.55656673 16.32421875 27.734375 C17.62918235 41.1953949 16.01674056 54.83974767 7.32421875 65.734375 C0.23188904 74.20709103 -8.60719686 79.49128783 -19.67578125 80.734375 C-32.1676399 81.69871088 -41.95099135 79.81031474 -51.67578125 71.6484375 C-59.91060123 63.76745744 -65.44376088 52.75669186 -66.01171875 41.28125 C-66.18491494 32.08377083 -66.01139763 24.06899157 -61.67578125 15.734375 C-61.24007812 14.86425781 -60.804375 13.99414062 -60.35546875 13.09765625 C-54.53159663 2.4523818 -46.21784335 -3.13772913 -34.79296875 -6.8828125 C-22.26236548 -9.14849353 -10.65641635 -6.75854349 0 0 Z " fill="#040404" transform="translate(2892.67578125,2771.265625)"/>
<path d="M0 0 C9.35284989 7.87608412 16.26836027 17.87298546 17.625 30.25 C18.63793025 44.11935264 16.10517758 56.02512209 7.625 67.25 C0.55255055 75.10981199 -8.99588848 80.798572 -19.6953125 81.453125 C-33.78803174 81.62675193 -43.46230104 78.65588064 -54.0625 69.125 C-62.58140069 60.22880534 -64.55864842 49.83161195 -64.625 38.0625 C-64.645625 37.16724609 -64.66625 36.27199219 -64.6875 35.34960938 C-64.75391524 23.85147052 -61.17471328 13.47932167 -53.265625 4.984375 C-38.84932007 -8.437702 -16.77784489 -11.83177501 0 0 Z " fill="#040404" transform="translate(2778.375,2770.75)"/>
<path d="M0 0 C50.36111111 0 50.36111111 0 61.4375 7.25 C68.27265782 14.58529132 71.45280454 22.95288186 71.24609375 32.875 C70.58371514 41.28615692 67.60890992 48.65211922 62 55 C57.54764203 58.737782 53.71814027 60.95399152 48 62 C50.28785681 66.147944 52.57980584 70.29361218 54.875 74.4375 C55.21403351 75.04970398 55.55306702 75.66190796 55.90237427 76.29266357 C60.55079613 84.67842489 65.26990429 93.01446048 70.20458984 101.23608398 C73 105.90652302 73 105.90652302 73 107 C66.07 107 59.14 107 52 107 C50.83082031 104.7828125 49.66164063 102.565625 48.45703125 100.28125 C47.30923247 98.10964413 46.16040226 95.93858692 45.01147461 93.76757812 C44.22003241 92.27075158 43.42964575 90.77336639 42.64038086 89.27539062 C41.49877549 87.10915653 40.35411867 84.94458591 39.20703125 82.78125 C38.83836945 82.08596191 38.46970764 81.39067383 38.08987427 80.67431641 C36.16611443 77.07744631 34.17168937 73.58050103 31.94921875 70.15625 C30 67 30 67 30 64 C25.71 64 21.42 64 17 64 C17 78.19 17 92.38 17 107 C11.39 107 5.78 107 0 107 C0 71.69 0 36.38 0 0 Z " fill="#040404" transform="translate(880,2744)"/>
<path d="M0 0 C3.20276468 2.47939883 6.13180714 5.14353799 9 8 C9.57878906 8.57621094 10.15757812 9.15242188 10.75390625 9.74609375 C11.16511719 10.15988281 11.57632813 10.57367187 12 11 C12.61875 9.96875 13.2375 8.9375 13.875 7.875 C18.38126098 1.54569327 25.6458561 -1.97414149 33 -4 C42.94331161 -5.01318104 51.21224327 -4.10893627 59.4375 1.73046875 C65.66134055 6.85899526 70.38429619 12.96992644 72 21 C72.08669889 23.0163954 72.11769534 25.03545681 72.11352539 27.05371094 C72.11344986 28.27467468 72.11337433 29.49563843 72.11329651 30.75360107 C72.10813522 32.06725647 72.10297394 33.38091187 72.09765625 34.734375 C72.09579021 36.0962926 72.09436718 37.45821088 72.09336853 38.82012939 C72.08955803 42.39741889 72.07974032 45.97466752 72.06866455 49.55194092 C72.05841884 53.20519457 72.05386415 56.85845486 72.04882812 60.51171875 C72.03811669 67.67449992 72.02053182 74.83723902 72 82 C66.72 82 61.44 82 56 82 C55.9906543 80.41131104 55.98130859 78.82262207 55.97167969 77.18579102 C55.93166387 71.26461238 55.86587163 65.34394695 55.79248047 59.4230957 C55.7643382 56.86554582 55.74309031 54.30791006 55.72900391 51.75024414 C55.70748187 48.06351973 55.66078065 44.37782066 55.609375 40.69140625 C55.60814636 39.55667374 55.60691772 38.42194122 55.60565186 37.25282288 C55.47157726 29.90648669 54.67468727 23.01223343 49.51776123 17.38160706 C44.08804715 12.63446074 39.15751147 12.65338698 32.23828125 12.72265625 C27.62385254 13.11786064 25.59974908 14.08956458 22 17 C17.66421799 22.36267775 16.90301831 26.88386234 16.79467773 33.61645508 C16.77473251 34.71721878 16.75478729 35.81798248 16.73423767 36.95210266 C16.71752518 38.1293541 16.70081268 39.30660553 16.68359375 40.51953125 C16.6524221 42.34009285 16.6524221 42.34009285 16.62062073 44.19743347 C16.55531084 48.06906551 16.49632637 51.94076455 16.4375 55.8125 C16.39429715 58.43946002 16.35068229 61.06641329 16.30664062 63.69335938 C16.19964838 70.12883782 16.0983285 76.56438358 16 83 C10.39 83 4.78 83 -1 83 C-1.01458252 81.37578125 -1.02916504 79.7515625 -1.04418945 78.078125 C-1.10231275 72.03216927 -1.17954572 65.98658048 -1.26245117 59.94091797 C-1.29563439 57.32802298 -1.32368671 54.71505745 -1.34643555 52.10205078 C-1.38010208 48.33856239 -1.43242649 44.57571661 -1.48828125 40.8125 C-1.49467117 39.65073242 -1.5010611 38.48896484 -1.50764465 37.29199219 C-1.63561485 30.17696665 -1.9324015 23.6004998 -6.75390625 17.94140625 C-7.35074219 17.48636719 -7.94757812 17.03132813 -8.5625 16.5625 C-9.16191406 16.08941406 -9.76132813 15.61632813 -10.37890625 15.12890625 C-15.48543837 11.57279111 -22.02872113 12.51032793 -28 13 C-33.20110034 15.42120188 -36.63183894 19.1073314 -39.08944702 24.3033905 C-40.08529963 27.25261551 -40.27675671 29.60053711 -40.31884766 32.70825195 C-40.33871735 33.82903641 -40.35858704 34.94982086 -40.37905884 36.10456848 C-40.39061005 37.3036937 -40.40216125 38.50281891 -40.4140625 39.73828125 C-40.43342865 40.97418503 -40.4527948 42.21008881 -40.4727478 43.48344421 C-40.52232555 46.75651967 -40.56362829 50.029561 -40.60089111 53.30279541 C-40.64102019 56.64793457 -40.69223452 59.99288373 -40.7421875 63.33789062 C-40.83816821 69.89182779 -40.92222625 76.44582251 -41 83 C-46.61 83 -52.22 83 -58 83 C-58 54.95 -58 26.9 -58 -2 C-52.39 -2 -46.78 -2 -41 -2 C-40.67 0.31 -40.34 2.62 -40 5 C-39.5153125 4.60167969 -39.030625 4.20335938 -38.53125 3.79296875 C-27.28493058 -5.0959491 -12.90621329 -7.84367508 0 0 Z " fill="#030303" transform="translate(2605,2768)"/>
<path d="M0 0 C7.38861584 4.96538771 13.77324616 12.12724213 16.6875 20.625 C20.10822752 38.36281743 20.10822752 38.36281743 17.6875 45.625 C-2.4425 45.625 -22.5725 45.625 -43.3125 45.625 C-40.35627323 55.47908922 -38.59873273 60.49241764 -29.9375 65.625 C-22.68249484 67.62638073 -15.98386545 67.31027393 -9.3125 63.625 C-6.41323618 61.10390103 -4.44044383 58.81691574 -2.3125 55.625 C-0.43310547 55.28442383 -0.43310547 55.28442383 1.8203125 55.33203125 C2.62597656 55.34169922 3.43164062 55.35136719 4.26171875 55.36132812 C5.10347656 55.38646484 5.94523437 55.41160156 6.8125 55.4375 C8.08673828 55.45780273 8.08673828 55.45780273 9.38671875 55.47851562 C11.48724837 55.51391781 13.58745293 55.56772599 15.6875 55.625 C14.2013594 65.02609163 8.60142265 71.44942848 1.1484375 77 C-8.56175362 83.41180874 -20.39329464 84.16613492 -31.64453125 81.9765625 C-41.96843934 78.87541424 -49.7175636 72.83012471 -55.3125 63.625 C-62.05777735 50.93586439 -63.59414373 36.47730757 -59.6875 22.625 C-55.4389176 10.71114306 -47.64826571 2.18983044 -36.3125 -3.375 C-24.13884407 -7.43288531 -11.07936539 -6.52817626 0 0 Z " fill="#050505" transform="translate(2325.3125,2769.375)"/>
<path d="M0 0 C6.19007525 4.97286717 10.81871673 11.35068144 13.32421875 18.8671875 C13.71609375 20.0221875 14.10796875 21.1771875 14.51171875 22.3671875 C15.90261192 28.23212036 17.04909557 38.41743386 14.32421875 43.8671875 C-5.80578125 43.8671875 -25.93578125 43.8671875 -46.67578125 43.8671875 C-43.72065496 53.71760847 -41.96304401 58.67487791 -33.36328125 63.8671875 C-26.60406513 65.70019526 -19.98838213 65.70117413 -13.43359375 63.06640625 C-11.23548226 61.56680575 -10.54758184 60.012278 -9.30078125 57.6796875 C-7.92578125 55.54296875 -7.92578125 55.54296875 -5.67578125 53.8671875 C0.23037604 52.79555189 6.37771037 53.41839441 12.32421875 53.8671875 C11.33326506 62.40177619 6.39766377 68.49190317 -0.17578125 73.8046875 C-9.93449334 80.85817838 -20.85048534 82.19157497 -32.67578125 80.8671875 C-42.62952413 78.24003352 -51.32357304 72.71733544 -57.29296875 64.28515625 C-64.51681561 51.65362741 -67.08311724 37.03936447 -63.42578125 22.8671875 C-59.9304652 12.07519786 -54.00409865 2.58729732 -43.86328125 -3.13671875 C-29.5262542 -9.66518642 -13.27017085 -8.59035214 0 0 Z " fill="#050505" transform="translate(1781.67578125,2771.1328125)"/>
<path d="M0 0 C9.13070813 6.54502087 14.66469854 14.53379416 17.375 25.375 C17.375 31.975 17.375 38.575 17.375 45.375 C-2.755 45.375 -22.885 45.375 -43.625 45.375 C-40.50825045 57.11281978 -40.50825045 57.11281978 -31.9375 64.25 C-25.48645401 67.18659949 -20.08814712 67.36235852 -13.375 65.1875 C-8.45945569 63.12140468 -5.54773682 59.75910523 -2.625 55.375 C-0.74560547 55.03442383 -0.74560547 55.03442383 1.5078125 55.08203125 C2.31347656 55.09169922 3.11914062 55.10136719 3.94921875 55.11132812 C4.79097656 55.13646484 5.63273437 55.16160156 6.5 55.1875 C7.77423828 55.20780273 7.77423828 55.20780273 9.07421875 55.22851562 C11.17474837 55.26391781 13.27495293 55.31772599 15.375 55.375 C14.10673094 63.78096935 7.94472163 71.19651354 1.375 76.375 C-9.64264681 83.04084901 -21.67305536 84.13285166 -34.22265625 81.18359375 C-44.19199457 77.82806036 -51.99654402 70.66683286 -56.9375 61.4375 C-57.52551369 60.0942154 -58.08802423 58.73948915 -58.625 57.375 C-58.92277344 56.69695313 -59.22054687 56.01890625 -59.52734375 55.3203125 C-63.67231709 44.27978443 -63.22257338 29.8120477 -58.87890625 18.9453125 C-53.27656744 7.46139058 -45.3887087 -0.54773944 -33.16015625 -4.78125 C-21.62195632 -7.53511871 -10.10787313 -6.18849375 0 0 Z " fill="#050505" transform="translate(3191.625,2769.625)"/>
<path d="M0 0 C9.63183565 6.89203788 14.11877325 15.13445636 17.3125 26.3125 C17.3125 32.5825 17.3125 38.8525 17.3125 45.3125 C-2.8175 45.3125 -22.9475 45.3125 -43.6875 45.3125 C-41.81618658 53.7334104 -40.63110301 58.5464505 -33.8671875 63.69921875 C-27.97865505 67.09644901 -22.08124577 67.12791588 -15.51953125 65.91015625 C-11.07059508 64.59354651 -9.35123177 62.97053203 -6.8125 59.125 C-4.958901 56.72802919 -3.65003175 55.48313581 -0.62451172 54.94677734 C4.70519731 54.60211334 9.9939407 54.90727643 15.3125 55.3125 C14.85232985 56.58325722 14.38796624 57.85249633 13.921875 59.12109375 C13.53467285 60.18154907 13.53467285 60.18154907 13.13964844 61.26342773 C9.90005766 69.28877762 3.26363367 76.02941846 -4.60546875 79.53515625 C-15.48871128 83.59850571 -27.95409309 84.05099402 -38.6875 79.3125 C-49.40550115 73.7204994 -56.91954138 64.79426233 -60.6875 53.3125 C-63.43078458 38.49876328 -62.9426836 23.83610914 -55.11328125 10.6640625 C-42.65342984 -6.82039099 -18.10955158 -11.17009316 0 0 Z " fill="#040404" transform="translate(1048.6875,2769.6875)"/>
<path d="M0 0 C8.6790864 6.46190803 12.42266814 14.57504162 15.32421875 24.73046875 C15.32421875 31.00046875 15.32421875 37.27046875 15.32421875 43.73046875 C-5.13578125 43.73046875 -25.59578125 43.73046875 -46.67578125 43.73046875 C-42.15475056 56.7766921 -42.15475056 56.7766921 -32.2890625 63.8515625 C-26.39043685 65.83540521 -19.90385527 65.66356198 -14.23828125 63.04296875 C-10.26303616 60.75394443 -7.72828727 57.83548079 -5.67578125 53.73046875 C0.59421875 53.73046875 6.86421875 53.73046875 13.32421875 53.73046875 C10.07330494 63.62455427 4.86425771 71.3881127 -4.30078125 76.73046875 C-14.96907259 81.91797124 -27.346767 82.40627204 -38.67578125 78.73046875 C-41.84567534 77.29514071 -44.75873115 75.62276672 -47.67578125 73.73046875 C-48.54203125 73.17359375 -49.40828125 72.61671875 -50.30078125 72.04296875 C-59.99012605 62.60860671 -63.72302204 51.76084121 -64.14648438 38.52539062 C-64.28505855 24.71416416 -61.8857717 14.42533521 -52.67578125 3.73046875 C-37.85919966 -10.3301648 -16.81217283 -10.68905808 0 0 Z " fill="#040404" transform="translate(1521.67578125,2771.26953125)"/>
<path d="M0 0 C1.12535156 0.00580078 1.12535156 0.00580078 2.2734375 0.01171875 C3.02367188 0.00785156 3.77390625 0.00398438 4.546875 0 C10.14682697 0.01010822 10.14682697 0.01010822 11.2734375 1.13671875 C11.43347238 3.8009856 11.53286639 6.44232303 11.58984375 9.109375 C11.61062485 9.90701767 11.63140594 10.70466034 11.65281677 11.526474 C11.71839908 14.08396486 11.77723717 16.64156155 11.8359375 19.19921875 C11.87911449 20.92904757 11.92272851 22.65886554 11.96679688 24.38867188 C12.07408922 28.63791135 12.17533176 32.88725765 12.2734375 37.13671875 C12.80815674 36.72534668 13.34287598 36.31397461 13.89379883 35.89013672 C14.6030249 35.35018066 15.31225098 34.81022461 16.04296875 34.25390625 C16.74268799 33.71878418 17.44240723 33.18366211 18.16333008 32.63232422 C25.24646659 27.61192687 32.78461611 27.25580332 41.2734375 28.13671875 C50.51414578 30.15812369 56.72967102 34.73095501 62.5859375 42.01171875 C67.28884311 50.72080322 67.68433741 58.55060863 67.56640625 68.359375 C67.5607991 69.71414211 67.5565343 71.06891538 67.55354309 72.4236908 C67.54218216 75.95996401 67.51279271 79.49585748 67.47943115 83.03198242 C67.4485394 86.65212876 67.43499728 90.27233749 67.41992188 93.89257812 C67.38791273 100.97411207 67.33682492 108.05539039 67.2734375 115.13671875 C64.62753736 115.16356554 61.98190654 115.18348232 59.3359375 115.19921875 C58.58119141 115.20759766 57.82644531 115.21597656 57.04882812 115.22460938 C55.12349437 115.23324316 53.19808169 115.18896208 51.2734375 115.13671875 C49.59745683 113.46073808 50.13144046 111.40180839 50.11572266 109.10131836 C50.10546051 108.02607407 50.09519836 106.95082977 50.08462524 105.84300232 C50.07732391 104.67020218 50.07002258 103.49740204 50.0625 102.2890625 C50.03441629 99.82225916 50.00575174 97.35546238 49.9765625 94.88867188 C49.93538716 90.98706346 49.89851447 87.08557547 49.87207031 83.18383789 C49.84437794 79.42698565 49.79848564 75.67069638 49.75 71.9140625 C49.74674713 70.75543198 49.74349426 69.59680145 49.74014282 68.40306091 C49.62847696 61.00667425 49.40609721 54.26937846 43.8984375 48.76171875 C37.36469932 44.71702369 30.65404429 43.8730166 23.14453125 45.63671875 C18.23539193 47.50282787 15.82101916 50.57199078 13.18789673 54.93572998 C12.03812661 57.70308257 11.99366308 59.91942409 11.95458984 62.91503906 C11.93472015 64.07594055 11.91485046 65.23684204 11.89437866 66.43292236 C11.87705185 68.30497345 11.87705185 68.30497345 11.859375 70.21484375 C11.84000885 71.49655457 11.8206427 72.77826538 11.8006897 74.09881592 C11.74943123 77.4984624 11.70977221 80.8981484 11.67254639 84.29797363 C11.63246709 87.77036262 11.58139272 91.24258808 11.53125 94.71484375 C11.43456537 101.52201584 11.35013685 108.32929295 11.2734375 115.13671875 C8.46087469 115.16356187 5.64856509 115.18348063 2.8359375 115.19921875 C2.03349609 115.20759766 1.23105469 115.21597656 0.40429688 115.22460938 C-1.63951471 115.23323305 -3.68340152 115.18900025 -5.7265625 115.13671875 C-7.3127349 113.55054635 -6.85254792 111.93366754 -6.85354614 109.73327637 C-6.85636597 108.78254745 -6.85918579 107.83181854 -6.86209106 106.85227966 C-6.86006683 105.80081253 -6.8580426 104.7493454 -6.85595703 103.66601562 C-6.85770935 102.56532242 -6.85946167 101.46462921 -6.86126709 100.33058167 C-6.86568818 96.67219491 -6.86274671 93.01385604 -6.859375 89.35546875 C-6.86004797 86.82580557 -6.86101793 84.29614245 -6.86227417 81.76647949 C-6.86375149 76.45678026 -6.86169008 71.14709838 -6.85693359 65.83740234 C-6.85149101 59.69065917 -6.85325368 53.54394916 -6.85876 47.39720678 C-6.8638369 41.49454311 -6.86330956 35.59188979 -6.86037827 29.68922424 C-6.85970874 27.17249039 -6.8605383 24.6557557 -6.86285782 22.13902283 C-6.86538283 18.628466 -6.86154588 15.11797385 -6.85595703 11.60742188 C-6.85798126 10.55595474 -6.86000549 9.50448761 -6.86209106 8.42115784 C-6.85927124 7.47042892 -6.85645142 6.51970001 -6.85354614 5.54016113 C-6.85316912 4.70908089 -6.85279209 3.87800064 -6.85240364 3.02173615 C-6.57547841 -1.12642138 -3.44256411 0.00621401 0 0 Z " fill="#0A0A0A" transform="translate(3026.7265625,2735.86328125)"/>
<path d="M0 0 C6.13561493 4.44242959 11.89486848 9.49302156 14 17 C14.495 20.96 14.495 20.96 15 25 C8.73 25 2.46 25 -4 25 C-4.99 22.69 -5.98 20.38 -7 18 C-10.22021087 14.02840659 -13.57482254 12.30761838 -18.6484375 11.6640625 C-25.03176597 11.5726108 -28.837671 12.15571244 -34 16 C-37.11936357 20.67904536 -36.57880377 25.52362584 -36 31 C-33.49172661 36.01654678 -29.07074015 38.03881668 -24 40 C-20.72506324 41.06015581 -17.44096694 42.07554895 -14.14770508 43.07641602 C-2.8174918 46.54711006 7.60440019 49.81196588 13.9375 60.4375 C17.24649525 67.69099291 17.33473259 76.06574918 15.265625 83.71484375 C14.33252851 85.95198083 13.27185299 87.9390105 12 90 C11.49146484 90.93392578 11.49146484 90.93392578 10.97265625 91.88671875 C6.8345215 98.67561597 -0.66200681 102.44814765 -8 105 C-19.96026958 107.21024356 -32.16361967 106.04890046 -42.65625 99.70703125 C-47.89288276 95.89301706 -51.72935636 91.09488557 -54 85 C-54.51288371 81.65619937 -54.77148952 78.38195514 -55 75 C-49.06 75 -43.12 75 -37 75 C-36.15364583 77.18098958 -35.30729167 79.36197917 -34.4609375 81.54296875 C-32.5242489 84.80012686 -30.29057173 87.15300731 -27 89 C-24.08554267 89.47301172 -21.88068512 89.6626742 -19 89.5625 C-17.97132813 89.57893555 -17.97132813 89.57893555 -16.921875 89.59570312 C-11.84197945 89.5229947 -8.89993714 88.17815773 -5 85 C-1.70987966 80.28416084 -1.0044018 75.5914404 -2 70 C-5.97871953 62.3372809 -14.46775571 60.75466157 -22.21533203 58.29736328 C-22.98087402 58.05614746 -23.74641602 57.81493164 -24.53515625 57.56640625 C-36.39283944 53.80710339 -46.43311909 50.33065214 -53 39 C-56.08428895 31.70986247 -56.41742052 22.64224919 -53.4375 15.25 C-48.92141223 6.50305105 -42.11021986 0.11622249 -32.796875 -3.109375 C-22.32915272 -5.56476665 -9.42308227 -5.57022137 0 0 Z " fill="#040404" transform="translate(2491,2746)"/>
<path d="M0 0 C8.614764 5.99167881 13.09618006 13.38199381 15.57341003 23.51052856 C16.45079486 28.63072509 16.26199749 33.81625517 16.23046875 38.99609375 C16.23001053 40.22538101 16.22955231 41.45466827 16.2290802 42.72120667 C16.22607073 45.30560274 16.21822377 47.88999722 16.20581055 50.47436523 C16.18744903 54.44853156 16.18530175 58.42228037 16.18554688 62.39648438 C16.18063523 64.9088562 16.17480846 67.42122644 16.16796875 69.93359375 C16.16685593 71.12826767 16.1657431 72.32294159 16.16459656 73.55381775 C16.15821671 74.64908279 16.15183685 75.74434784 16.14526367 76.87280273 C16.14145187 77.84128647 16.13764008 78.8097702 16.13371277 79.80760193 C16 82 16 82 15 83 C12.30345146 83.07319621 9.63308542 83.09242537 6.9375 83.0625 C6.17888672 83.05798828 5.42027344 83.05347656 4.63867188 83.04882812 C2.75908129 83.0370068 0.87953101 83.01907078 -1 83 C-1.00142502 82.33316193 -1.00285004 81.66632385 -1.00431824 80.97927856 C-1.02409232 74.00270097 -1.07853141 67.02698924 -1.15258789 60.05078125 C-1.17570285 57.45156071 -1.19014822 54.85224738 -1.19555664 52.25292969 C-1.20489312 48.50397338 -1.24599133 44.75646376 -1.29296875 41.0078125 C-1.2890361 39.85636749 -1.28510345 38.70492249 -1.28105164 37.51858521 C-1.42750207 29.3145826 -3.062432 22.57293206 -8.52238464 16.23196411 C-12.1270382 12.77543636 -16.0934636 12.5820101 -20.9375 12.375 C-26.17354694 12.58644504 -29.96034105 13.26375163 -34.3515625 16.125 C-40.48619245 23.10277815 -40.5885768 30.11452374 -40.57421875 38.99609375 C-40.59546562 40.84002464 -40.59546562 40.84002464 -40.61714172 42.72120667 C-40.65891093 46.62672816 -40.67426682 50.53178688 -40.6875 54.4375 C-40.71387999 58.367998 -40.75097935 62.29838306 -40.78999329 66.22877502 C-40.81254926 68.67040168 -40.82832668 71.11210175 -40.83683777 73.55381775 C-40.84387222 74.64908279 -40.85090668 75.74434784 -40.8581543 76.87280273 C-40.86337349 78.32552834 -40.86337349 78.32552834 -40.86869812 79.80760193 C-41 82 -41 82 -42 83 C-47.28 83 -52.56 83 -58 83 C-58 54.62 -58 26.24 -58 -3 C-52.72 -3 -47.44 -3 -42 -3 C-40.03177114 -1.03177114 -40.33751619 2.34808709 -40 5 C-39.5153125 4.60167969 -39.030625 4.20335938 -38.53125 3.79296875 C-27.22940222 -5.13983786 -12.98014306 -7.76177474 0 0 Z " fill="#070707" transform="translate(1161,2768)"/>
<path d="M0 0 C5.94 0 11.88 0 18 0 C25.67728101 22.23392338 33.32572867 44.44009721 40 67 C43.14730471 59.46870072 45.7845827 51.82723328 48.29296875 44.0625 C48.68446609 42.86061035 49.07596344 41.6587207 49.47932434 40.42041016 C50.50871446 37.25902873 51.53540593 34.09680061 52.56048584 30.934021 C54.013244 26.45299815 55.46976244 21.97320056 56.92781067 17.49389648 C57.70192642 15.11506955 58.47434654 12.73569002 59.24491882 10.35571289 C59.76599968 8.75264282 59.76599968 8.75264282 60.29760742 7.1171875 C60.60309006 6.17472168 60.90857269 5.23225586 61.22331238 4.26123047 C62 2 62 2 63 0 C68.94 0 74.88 0 81 0 C78.17057896 10.02216172 74.58349956 19.76800723 71.0625 29.5625 C70.39491792 31.42436135 69.72743855 33.28625954 69.06005859 35.14819336 C67.37096314 39.85717981 65.67776726 44.56467881 63.98260498 49.27148438 C63.0347844 51.90341005 62.0878862 54.53566606 61.14111328 57.16796875 C59.7337143 61.07908861 58.32267651 64.98887462 56.90817261 68.89743042 C56.38725602 70.33749693 55.86717143 71.77786468 55.34793091 73.21853638 C54.63320992 75.20011153 53.9148474 77.18032491 53.1953125 79.16015625 C52.79328613 80.27011963 52.39125977 81.38008301 51.97705078 82.52368164 C51 85 51 85 50 86 C48.5112814 86.08669432 47.018555 86.10703494 45.52734375 86.09765625 C44.62822266 86.09443359 43.72910156 86.09121094 42.80273438 86.08789062 C41.38444336 86.07532227 41.38444336 86.07532227 39.9375 86.0625 C38.98810547 86.05798828 38.03871094 86.05347656 37.06054688 86.04882812 C34.70696935 86.0370011 32.35351523 86.02052025 30 86 C29.38910522 84.28792358 29.38910522 84.28792358 28.76586914 82.54125977 C19.37074625 56.20130921 19.37074625 56.20130921 9.9375 29.875 C9.58896973 28.90425537 9.24043945 27.93351074 8.88134766 26.93334961 C7.32879452 22.62484518 5.75451025 18.32691776 4.125 14.046875 C3.83761963 13.29164551 3.55023926 12.53641602 3.25415039 11.75830078 C2.50751411 9.80789486 1.75224701 7.86079854 0.99609375 5.9140625 C0 3 0 3 0 0 Z " fill="#060606" transform="translate(2156,2765)"/>
<path d="M0 0 C1.12535156 0.00580078 1.12535156 0.00580078 2.2734375 0.01171875 C3.02367187 0.00785156 3.77390625 0.00398438 4.546875 0 C10.14682697 0.01010822 10.14682697 0.01010822 11.2734375 1.13671875 C11.36013182 2.62543735 11.38047244 4.11816375 11.37109375 5.609375 C11.36787109 6.50849609 11.36464844 7.40761719 11.36132812 8.33398438 C11.35294922 9.27951172 11.34457031 10.22503906 11.3359375 11.19921875 C11.33142578 12.14861328 11.32691406 13.09800781 11.32226562 14.07617188 C11.31043878 16.42971406 11.29250271 18.78322407 11.2734375 21.13671875 C17.5434375 21.13671875 23.8134375 21.13671875 30.2734375 21.13671875 C30.2734375 26.08671875 30.2734375 31.03671875 30.2734375 36.13671875 C24.0034375 36.13671875 17.7334375 36.13671875 11.2734375 36.13671875 C11.6034375 53.95671875 11.9334375 71.77671875 12.2734375 90.13671875 C16.12091473 91.09858806 19.57511602 91.44330902 23.5234375 91.69921875 C25.7509375 91.84359375 27.9784375 91.98796875 30.2734375 92.13671875 C30.2734375 96.75671875 30.2734375 101.37671875 30.2734375 106.13671875 C26.60551258 106.2724561 22.9426735 106.37119733 19.2734375 106.44921875 C18.24347656 106.49111328 17.21351562 106.53300781 16.15234375 106.57617188 C9.20027887 106.68687355 4.57744517 105.79007692 -0.7265625 101.13671875 C-2.56640625 99.0390625 -2.56640625 99.0390625 -3.6640625 97.07421875 C-4.04433594 96.42324219 -4.42460938 95.77226562 -4.81640625 95.1015625 C-6.56282745 91.33139142 -6.84992602 87.94939794 -6.84008789 83.81738281 C-6.84001236 82.75658508 -6.83993683 81.69578735 -6.83985901 80.60284424 C-6.83469772 79.46417908 -6.82953644 78.32551392 -6.82421875 77.15234375 C-6.8228038 75.98161316 -6.82138885 74.81088257 -6.81993103 73.60467529 C-6.8143334 69.86533046 -6.8017813 66.12604549 -6.7890625 62.38671875 C-6.7840472 59.85156336 -6.77948434 57.31640704 -6.77539062 54.78125 C-6.76436474 48.56638582 -6.74762894 42.35155656 -6.7265625 36.13671875 C-9.6965625 36.13671875 -12.6665625 36.13671875 -15.7265625 36.13671875 C-15.7265625 31.51671875 -15.7265625 26.89671875 -15.7265625 22.13671875 C-12.7565625 22.13671875 -9.7865625 22.13671875 -6.7265625 22.13671875 C-6.73179932 21.50580322 -6.73703613 20.8748877 -6.74243164 20.22485352 C-6.76314076 17.38298528 -6.77620316 14.54113287 -6.7890625 11.69921875 C-6.79744141 10.70599609 -6.80582031 9.71277344 -6.81445312 8.68945312 C-6.81767578 7.74521484 -6.82089844 6.80097656 -6.82421875 5.828125 C-6.82945557 4.95357666 -6.83469238 4.07902832 -6.84008789 3.17797852 C-6.6012037 -1.11731338 -3.61184752 0.00651958 0 0 Z " fill="#090909" transform="translate(1226.7265625,2743.86328125)"/>
<path d="M0 0 C1.12535156 0.00580078 1.12535156 0.00580078 2.2734375 0.01171875 C3.02367188 0.00785156 3.77390625 0.00398438 4.546875 0 C10.14682697 0.01010822 10.14682697 0.01010822 11.2734375 1.13671875 C11.36013182 2.62543735 11.38047244 4.11816375 11.37109375 5.609375 C11.36787109 6.50849609 11.36464844 7.40761719 11.36132812 8.33398438 C11.35294922 9.27951172 11.34457031 10.22503906 11.3359375 11.19921875 C11.33142578 12.14861328 11.32691406 13.09800781 11.32226562 14.07617188 C11.31043878 16.42971406 11.29250271 18.78322407 11.2734375 21.13671875 C17.5434375 21.13671875 23.8134375 21.13671875 30.2734375 21.13671875 C30.2734375 26.08671875 30.2734375 31.03671875 30.2734375 36.13671875 C24.0034375 36.13671875 17.7334375 36.13671875 11.2734375 36.13671875 C11.6034375 53.95671875 11.9334375 71.77671875 12.2734375 90.13671875 C16.12091473 91.09858806 19.57511602 91.44330902 23.5234375 91.69921875 C25.7509375 91.84359375 27.9784375 91.98796875 30.2734375 92.13671875 C30.2734375 96.75671875 30.2734375 101.37671875 30.2734375 106.13671875 C26.60551258 106.2724561 22.9426735 106.37119733 19.2734375 106.44921875 C18.24347656 106.49111328 17.21351563 106.53300781 16.15234375 106.57617188 C9.18980252 106.68704037 4.59524495 105.77544608 -0.7265625 101.13671875 C-2.56640625 99.109375 -2.56640625 99.109375 -3.6640625 97.19921875 C-4.04433594 96.57144531 -4.42460937 95.94367187 -4.81640625 95.296875 C-7.45632133 89.03132548 -6.85593644 82.05970168 -6.82421875 75.39453125 C-6.8228038 74.27102264 -6.82138885 73.14751404 -6.81993103 71.98995972 C-6.81434914 68.41385192 -6.80179991 64.83780752 -6.7890625 61.26171875 C-6.78404516 58.83203216 -6.77948266 56.40234458 -6.77539062 53.97265625 C-6.76438564 48.02732224 -6.74766551 42.08202503 -6.7265625 36.13671875 C-9.6965625 36.13671875 -12.6665625 36.13671875 -15.7265625 36.13671875 C-15.7265625 31.51671875 -15.7265625 26.89671875 -15.7265625 22.13671875 C-12.7565625 22.13671875 -9.7865625 22.13671875 -6.7265625 22.13671875 C-6.73179932 21.50580322 -6.73703613 20.8748877 -6.74243164 20.22485352 C-6.76314076 17.38298528 -6.77620316 14.54113287 -6.7890625 11.69921875 C-6.79744141 10.70599609 -6.80582031 9.71277344 -6.81445312 8.68945312 C-6.81767578 7.74521484 -6.82089844 6.80097656 -6.82421875 5.828125 C-6.82945557 4.95357666 -6.83469238 4.07902832 -6.84008789 3.17797852 C-6.6012037 -1.11731338 -3.61184752 0.00651958 0 0 Z " fill="#090909" transform="translate(2954.7265625,2743.86328125)"/>
<path d="M0 0 C5.61 0 11.22 0 17 0 C17 6.93 17 13.86 17 21 C23.6 21 30.2 21 37 21 C37 25.95 37 30.9 37 36 C30.4 36 23.8 36 17 36 C17.09351399 43.04776204 17.19960437 50.09517973 17.31738281 57.14257812 C17.35567905 59.54031174 17.39053076 61.93810293 17.421875 64.3359375 C17.46751105 67.78145942 17.5255087 71.22658472 17.5859375 74.671875 C17.59748871 75.74491882 17.60903992 76.81796265 17.62094116 77.92352295 C17.64081085 78.92425842 17.66068054 79.9249939 17.68115234 80.95605469 C17.69447601 81.83541687 17.70779968 82.71477905 17.7215271 83.62078857 C18.02487932 86.21256347 18.55152559 87.83238052 20 90 C23.46712111 91.15570704 26.5414956 91.32835293 30.1875 91.5625 C32.435625 91.706875 34.68375 91.85125 37 92 C37 96.62 37 101.24 37 106 C33.29122416 106.08114826 29.58423489 106.14057594 25.875 106.1875 C24.30492187 106.22520508 24.30492187 106.22520508 22.703125 106.26367188 C16.03691912 106.32695864 11.32536759 105.99851522 6.171875 101.3515625 C5.46804688 100.49691406 5.46804688 100.49691406 4.75 99.625 C4.03070312 98.77808594 4.03070312 98.77808594 3.296875 97.9140625 C0.54428201 93.85150056 -0.24941386 90.24751354 -0.22705078 85.38354492 C-0.22682419 83.73239937 -0.22682419 83.73239937 -0.22659302 82.04789734 C-0.21110916 80.28202019 -0.21110916 80.28202019 -0.1953125 78.48046875 C-0.1924826 77.26676102 -0.18965271 76.05305328 -0.18673706 74.80256653 C-0.17555308 70.93077689 -0.1504513 67.05921959 -0.125 63.1875 C-0.11496792 60.56055022 -0.10584246 57.93359681 -0.09765625 55.30664062 C-0.07561954 48.87101464 -0.04215941 42.43552392 0 36 C-2.97 36 -5.94 36 -9 36 C-9 31.38 -9 26.76 -9 22 C-6.03 22 -3.06 22 0 22 C0 14.74 0 7.48 0 0 Z " fill="#050505" transform="translate(1576,2744)"/>
<path d="M0 0 C5.61 0 11.22 0 17 0 C17 6.93 17 13.86 17 21 C23.27 21 29.54 21 36 21 C36 25.62 36 30.24 36 35 C29.73 35 23.46 35 17 35 C17.04409419 42.19039385 17.1138681 49.37990472 17.20751953 56.56982422 C17.23575635 59.01604182 17.25695731 61.46235112 17.27099609 63.90869141 C17.29238731 67.42398114 17.33902038 70.93816512 17.390625 74.453125 C17.39185364 75.5480426 17.39308228 76.64296021 17.39434814 77.77105713 C17.42392609 79.30219147 17.42392609 79.30219147 17.45410156 80.86425781 C17.46298401 81.76138489 17.47186646 82.65851196 17.48101807 83.58282471 C18.16951779 86.78953465 19.45083815 87.99368946 22 90 C25.49272252 90.69779382 25.49272252 90.69779382 29.25 90.75 C32.59125 90.87375 32.59125 90.87375 36 91 C36 95.62 36 100.24 36 105 C32.64533852 105.08137993 29.29267609 105.14068359 25.9375 105.1875 C24.99455078 105.21263672 24.05160156 105.23777344 23.08007812 105.26367188 C15.82297728 105.33953007 11.05824206 104.43269255 5.25 99.8125 C-0.51905976 92.6011753 -0.41324756 85.26096118 -0.29296875 76.40625 C-0.28872391 75.21898315 -0.28447906 74.03171631 -0.28010559 72.80847168 C-0.26339339 69.0387446 -0.22575381 65.26956388 -0.1875 61.5 C-0.17244358 58.93490359 -0.15875685 56.36979874 -0.14648438 53.8046875 C-0.11351423 47.53627381 -0.06338896 41.26817595 0 35 C-2.97 35 -5.94 35 -9 35 C-9 30.38 -9 25.76 -9 21 C-6.03 21 -3.06 21 0 21 C0 14.07 0 7.14 0 0 Z " fill="#020202" transform="translate(1651,2745)"/>
<path d="M0 0 C5.61 0 11.22 0 17 0 C17 30.69 17 61.38 17 93 C28.55 93 40.1 93 52 93 C52 97.62 52 102.24 52 107 C51.67 107.33 51.34 107.66 51 108 C34.17 108 17.34 108 0 108 C0 72.36 0 36.72 0 0 Z " fill="#080808" transform="translate(2021,2743)"/>
<path d="M0 0 C5.28910072 3.61404963 9.66613703 8.77062007 11.59375 14.94140625 C13.47276483 25.3674443 12.7027552 35.29515295 7.03515625 44.390625 C2.22324275 50.02263875 -2.67084283 52.83030368 -10.078125 53.796875 C-16.92112117 53.99740236 -21.6099492 53.50682718 -27.09375 49.23046875 C-33.91836261 42.51983714 -36.24055457 34.487813 -36.33984375 25.015625 C-36.17619624 15.24490588 -33.41790083 9.118119 -26.734375 2.0546875 C-19.5081044 -4.74087823 -8.54239568 -4.40297708 0 0 Z " fill="#FCFCFC" transform="translate(2879.96484375,2782.609375)"/>
<path d="M0 0 C6.33113042 3.58289053 10.47399715 9.07222054 12.625 16 C12.95627632 18.89977207 13.00604973 21.7706238 13 24.6875 C12.99758301 25.88862427 12.99758301 25.88862427 12.99511719 27.11401367 C12.86512362 33.40277123 11.84162397 38.51149477 8.625 44 C8.08875 44.928125 7.5525 45.85625 7 46.8125 C1.60733193 51.77943112 -4.1527039 54.30208951 -11.5 54.5625 C-18.76149654 54.20873478 -23.68054262 52.07653832 -28.6875 46.8125 C-35.50792483 37.94780615 -35.13216688 27.69498223 -34.375 17 C-33.15590732 10.16292186 -29.08227115 4.81155463 -23.62890625 0.67578125 C-16.30638916 -3.6629243 -7.64723819 -3.39749287 0 0 Z " fill="#FDFDFD" transform="translate(2765.375,2782)"/>
<path d="M0 0 C0 5.94 0 11.88 0 18 C-7.1875 19.25 -7.1875 19.25 -9.42260742 19.61425781 C-13.98002913 20.46850512 -16.85438156 21.5806066 -20 25 C-23.2794091 31.86800822 -23.46948309 38.05936031 -23.51171875 45.59375 C-23.52966995 46.78101685 -23.54762115 47.96828369 -23.56611633 49.19152832 C-23.62003529 52.96098342 -23.6540569 56.73031319 -23.6875 60.5 C-23.72068921 63.06512153 -23.75518035 65.63022657 -23.79101562 68.1953125 C-23.87575165 74.46345101 -23.94265119 80.73155352 -24 87 C-29.61 87 -35.22 87 -41 87 C-41 58.62 -41 30.24 -41 1 C-35.39 1 -29.78 1 -24 1 C-23.67 4.3 -23.34 7.6 -23 11 C-22.34 10.278125 -21.68 9.55625 -21 8.8125 C-14.68070849 2.49320849 -8.87502368 0 0 0 Z " fill="#050505" transform="translate(3287,2764)"/>
<path d="M0 0 C5.61 0 11.22 0 17 0 C17.33 3.3 17.66 6.6 18 10 C18.60328125 9.44570312 19.2065625 8.89140625 19.828125 8.3203125 C20.62734375 7.59585938 21.4265625 6.87140625 22.25 6.125 C23.03890625 5.40570312 23.8278125 4.68640625 24.640625 3.9453125 C28.59262582 0.68687474 31.1171163 -0.26007589 36.25 -0.125 C38.60125 -0.063125 38.60125 -0.063125 41 0 C41 5.61 41 11.22 41 17 C38.03776042 17.42317708 35.07552083 17.84635417 32.11328125 18.26953125 C28.89035664 19.02572561 26.76736092 20.23102148 24 22 C23.34 22 22.68 22 22 22 C21.71125 22.721875 21.4225 23.44375 21.125 24.1875 C20.43370054 25.91574865 19.71446786 27.63351069 18.94961548 29.33049011 C17.92041252 32.22373221 17.72419452 34.4614902 17.68115234 37.5246582 C17.66128265 38.60540115 17.64141296 39.6861441 17.62094116 40.79963684 C17.60361435 42.53270332 17.60361435 42.53270332 17.5859375 44.30078125 C17.56657135 45.49229294 17.5472052 46.68380463 17.5272522 47.91142273 C17.46754104 51.71170932 17.42110419 55.51202634 17.375 59.3125 C17.3368125 61.89128915 17.29776032 64.47006565 17.2578125 67.04882812 C17.16184616 73.36578251 17.07778327 79.68279661 17 86 C11.39 86 5.78 86 0 86 C0 57.62 0 29.24 0 0 Z " fill="#050505" transform="translate(1833,2765)"/>
<path d="M0 0 C5.28 0 10.56 0 16 0 C16 27.72 16 55.44 16 84 C10.72 84 5.44 84 0 84 C0 56.28 0 28.56 0 0 Z " fill="#000000" transform="translate(2107,2766)"/>
<path d="M0 0 C4.29 -0.0825 8.58 -0.165 13 -0.25 C14.33675781 -0.28641602 15.67351562 -0.32283203 17.05078125 -0.36035156 C24.20767174 -0.42677779 28.96420245 0.05047336 35 4 C39.64305954 8.88116515 40.35728013 12.96700606 40.28125 19.49609375 C39.72745653 24.42639397 36.98376992 27.11220763 33.4375 30.3125 C29.42909647 33.0875486 26.34354491 33.11920156 21.58203125 33.09765625 C19.88784058 33.09390991 19.88784058 33.09390991 18.15942383 33.09008789 C16.00769653 33.07643188 16.00769653 33.07643188 13.8125 33.0625 C9.254375 33.041875 4.69625 33.02125 0 33 C0 22.11 0 11.22 0 0 Z " fill="#FDFDFD" transform="translate(1368,2803)"/>
<path d="M0 0 C5.445 -0.0928125 5.445 -0.0928125 11 -0.1875 C12.12792969 -0.21481201 13.25585938 -0.24212402 14.41796875 -0.27026367 C21.04552157 -0.32459745 27.33878573 -0.11159678 32.64257812 4.39599609 C37.01107936 8.95463713 36.52153293 14.62658701 36.46875 20.59765625 C35.78062682 25.59228367 34.19778102 28.89205256 30.5 32.3125 C26.64310225 34.91590598 23.78385456 35.12073023 19.23828125 35.09765625 C17.72681519 35.09390991 17.72681519 35.09390991 16.18481445 35.09008789 C14.2680188 35.07643188 14.2680188 35.07643188 12.3125 35.0625 C6.2178125 35.0315625 6.2178125 35.0315625 0 35 C0 23.45 0 11.9 0 0 Z " fill="#FDFDFD" transform="translate(897,2758)"/>
<path d="M0 0 C3.980625 -0.061875 7.96125 -0.12375 12.0625 -0.1875 C13.92467163 -0.22846802 13.92467163 -0.22846802 15.82446289 -0.27026367 C23.72565658 -0.32960398 28.71967 0.27802404 34.9375 5.4375 C37.84931628 9.28456853 37.63143777 13.49641144 37.41796875 18.15234375 C36.84688683 22.04317292 35.74265231 24.18517263 33 27 C28.66256558 29.58415957 25.5338831 30.36476976 20.5078125 30.29296875 C19.4264502 30.28547607 18.34508789 30.2779834 17.23095703 30.27026367 C15.87599121 30.24295166 14.52102539 30.21563965 13.125 30.1875 C8.79375 30.125625 4.4625 30.06375 0 30 C0 20.1 0 10.2 0 0 Z " fill="#FDFDFD" transform="translate(1368,2758)"/>
<path d="M0 0 C4.60270339 3.12297104 7.67082212 7.07332673 9.19921875 12.4921875 C9.19921875 14.1421875 9.19921875 15.7921875 9.19921875 17.4921875 C-5.32078125 17.4921875 -19.84078125 17.4921875 -34.80078125 17.4921875 C-33.58653328 8.99245174 -31.0039624 4.98214573 -24.51171875 -0.25 C-16.82967459 -5.89753018 -7.90923033 -4.39539645 0 0 Z " fill="#FAFAFA" transform="translate(2316.80078125,2782.5078125)"/>
<path d="M0 0 C5.33538014 2.95665493 9.65192235 6.95331957 11.6875 12.875 C11.6875 14.855 11.6875 16.835 11.6875 18.875 C-2.8325 18.875 -17.3525 18.875 -32.3125 18.875 C-30.27249779 9.69499003 -28.73647607 5.86156626 -21.42578125 0.48828125 C-14.3788781 -3.58548629 -7.2897557 -3.34700522 0 0 Z " fill="#FBFBFB" transform="translate(1767.3125,2781.125)"/>
<path d="M0 0 C6.01199192 2.84537022 10.89883288 7.15136743 13.671875 13.28125 C13.671875 15.59125 13.671875 17.90125 13.671875 20.28125 C-0.518125 20.28125 -14.708125 20.28125 -29.328125 20.28125 C-28.3409502 12.38385159 -27.63301066 9.59792429 -22.328125 4.28125 C-20.04535105 2.6378422 -17.88308522 1.50959626 -15.328125 0.28125 C-10.87136386 -1.94713057 -4.66685668 -1.44077455 0 0 Z " fill="#FAFAFA" transform="translate(1034.328125,2779.71875)"/>
<path d="M0 0 C4.77152076 2.41542348 8.79838037 5.7336482 11.3125 10.5 C11.8075 14.955 11.8075 14.955 12.3125 19.5 C-2.2075 19.5 -16.7275 19.5 -31.6875 19.5 C-29.20111943 9.55447772 -26.1690805 4.84670475 -17.6875 -0.5 C-11.82285813 -2.45488062 -5.76636937 -2.24522444 0 0 Z " fill="#FBFBFB" transform="translate(1506.6875,2780.5)"/>
<path d="M0 0 C5.18887944 2.90379263 8.70120899 6.10362698 10.625 11.875 C10.625 14.185 10.625 16.495 10.625 18.875 C-3.565 18.875 -17.755 18.875 -32.375 18.875 C-30.35565462 9.7879458 -28.90630194 4.82712396 -21.25 -0.0625 C-14.07693862 -3.64308288 -7.21485126 -3.3018933 0 0 Z " fill="#FBFBFB" transform="translate(3180.375,2781.125)"/>
<path d="M0 0 C5.94 0 11.88 0 18 0 C16.09398952 5.87960053 14.02269637 11.61323343 11.64453125 17.31640625 C11.18478157 18.42930275 11.18478157 18.42930275 10.71574402 19.56468201 C9.75086271 21.89848703 8.78176602 24.23051311 7.8125 26.5625 C7.15141111 28.15938866 6.49060139 29.75639292 5.83007812 31.35351562 C4.22327024 35.23701846 2.61268346 39.11893362 1 43 C-2.63 43 -6.26 43 -10 43 C-9.28516089 35.87776154 -7.75026446 29.0273528 -6.125 22.0625 C-5.74021484 20.36963867 -5.74021484 20.36963867 -5.34765625 18.64257812 C-3.87657739 12.28884806 -2.17757853 6.14807352 0 0 Z " fill="#060606" transform="translate(1910,2829)"/>
<path d="M0 0 C2.8100346 1.79363911 4.50940468 3.01880935 6 6 C6.60130441 10.77607501 6.92258656 15.50742541 4.125 19.625 C0.3156415 22.52011246 -1.93283004 22.80764848 -6.62109375 22.53515625 C-10.21651623 21.72633379 -11.85664862 19.90389542 -14 17 C-15.61429923 13.77140153 -15.59570657 10.49006347 -15 7 C-11.4227815 0.76656328 -7.01517113 -1.00792689 0 0 Z " fill="#050505" transform="translate(2119,2732)"/>
</svg>
