<svg width="4167" height="2006" viewBox="0 0 4167 2006" fill="none" xmlns="http://www.w3.org/2000/svg">
<path d="M2932.1 0.115479C2935.72 0.211711 2939.35 0.304976 2942.97 0.398242C3020.11 2.38702 3097.18 5.5379 3174.18 10.4392C3176.28 10.5725 3178.38 10.705 3180.47 10.8374C3188.29 11.332 3196.1 11.8428 3203.91 12.3769C3206.23 12.5351 3208.56 12.6903 3210.88 12.8421C3232.67 14.2781 3251.73 16.4783 3267.07 33.8477C3274.92 44.3102 3278.16 55.874 3278.13 68.7302C3278.13 70.1384 3278.13 70.1384 3278.13 71.575C3278.14 74.7448 3278.14 77.9145 3278.13 81.0843C3278.14 83.38 3278.14 85.6757 3278.14 87.9714C3278.15 94.3223 3278.15 100.673 3278.15 107.024C3278.15 113.207 3278.15 119.39 3278.16 125.573C3278.17 138.379 3278.17 151.185 3278.17 163.991C3278.18 176.973 3278.18 189.955 3278.19 202.938C3278.19 203.757 3278.19 204.576 3278.19 205.42C3278.19 208.757 3278.19 212.093 3278.19 215.429C3278.21 255.892 3278.23 296.354 3278.23 336.816C3278.24 349.936 3278.24 363.056 3278.24 376.175C3278.25 377.563 3278.25 377.563 3278.25 378.98C3278.25 382.723 3278.25 386.467 3278.25 390.211C3278.27 454.248 3278.28 518.284 3278.29 582.321C3278.29 587.352 3278.29 592.382 3278.29 597.413C3278.29 598.411 3278.29 599.409 3278.29 600.437C3278.29 610.548 3278.29 620.658 3278.3 630.769C3278.3 632.796 3278.3 634.823 3278.3 636.85C3278.3 701.962 3278.33 767.074 3278.36 832.187C3278.38 878.967 3278.4 925.748 3278.41 972.528C3278.41 973.49 3278.41 974.452 3278.41 975.443C3278.41 996.558 3278.42 1017.67 3278.42 1038.79C3278.42 1047.28 3278.42 1055.78 3278.42 1064.28C3278.42 1065.67 3278.42 1065.67 3278.42 1067.09C3278.42 1097.05 3278.44 1127.02 3278.46 1156.98C3278.48 1187.15 3278.48 1217.33 3278.47 1247.5C3278.47 1251.67 3278.47 1255.84 3278.47 1260.01C3278.47 1260.83 3278.47 1261.65 3278.47 1262.49C3278.47 1275.43 3278.48 1288.38 3278.49 1301.32C3278.51 1314.05 3278.51 1326.77 3278.5 1339.5C3278.49 1346.31 3278.49 1353.12 3278.51 1359.93C3278.52 1366.12 3278.52 1372.31 3278.5 1378.5C3278.5 1380.73 3278.5 1382.96 3278.51 1385.19C3278.6 1403.59 3276.59 1419.71 3263.38 1433.75C3251.89 1444.6 3239.58 1448.99 3224.02 1448.86C3222.85 1448.86 3221.68 1448.87 3220.48 1448.87C3217.26 1448.87 3214.05 1448.86 3210.83 1448.85C3207.35 1448.84 3203.87 1448.84 3200.4 1448.84C3194.38 1448.84 3188.36 1448.83 3182.35 1448.82C3173.65 1448.79 3164.95 1448.79 3156.25 1448.78C3142.14 1448.77 3128.02 1448.75 3113.91 1448.73C3100.2 1448.7 3086.5 1448.68 3072.79 1448.66C3071.52 1448.66 3071.52 1448.66 3070.23 1448.66C3065.98 1448.66 3061.74 1448.65 3057.5 1448.65C3022.33 1448.62 2987.17 1448.57 2952 1448.5C2952.03 1447.46 2952.06 1446.42 2952.09 1445.35C2953.37 1399.32 2954.54 1353.29 2955.19 1307.25C2955.2 1306.55 2955.21 1305.85 2955.22 1305.12C2955.43 1289.85 2955.63 1274.58 2955.81 1259.3C2955.89 1251.81 2955.98 1244.31 2956.08 1236.82C2956.09 1236.07 2956.1 1235.33 2956.11 1234.56C2956.4 1210.58 2956.97 1186.62 2957.68 1162.65C2958.41 1137.93 2958.86 1113.21 2958.97 1088.47C2958.99 1084.94 2959.01 1081.41 2959.03 1077.88C2959.04 1077.19 2959.04 1076.5 2959.05 1075.78C2959.11 1066.14 2959.36 1056.53 2959.77 1046.9C2963.08 975.173 2963.08 975.173 2929.78 914.163C2912.61 895.504 2893.12 879.049 2873.02 863.656C2867.04 859.031 2861.41 854.041 2856.07 848.691C2855.18 847.797 2854.28 846.903 2853.36 845.981C2852.39 845.008 2851.42 844.035 2850.45 843.062C2849.4 842.014 2848.35 840.965 2847.3 839.916C2844.44 837.052 2841.58 834.184 2838.72 831.316C2835.62 828.217 2832.53 825.12 2829.43 822.024C2824.07 816.662 2818.72 811.299 2813.36 805.934C2805.61 798.17 2797.85 790.409 2790.1 782.649C2777.5 770.046 2764.91 757.442 2752.32 744.836C2751.19 743.705 2751.19 743.705 2750.03 742.552C2743.92 736.436 2737.82 730.319 2731.71 724.203C2726.37 718.857 2721.03 713.51 2715.68 708.164C2714.93 707.411 2714.18 706.658 2713.41 705.883C2700.86 693.323 2688.31 680.765 2675.76 668.208C2668.03 660.469 2660.29 652.727 2652.56 644.984C2647.27 639.678 2641.97 634.374 2636.67 629.071C2633.61 626.013 2630.55 622.954 2627.5 619.894C2624.7 617.089 2621.9 614.286 2619.1 611.485C2618.09 610.475 2617.08 609.463 2616.07 608.451C2611.82 604.182 2607.58 599.935 2603.01 596.007C2597.86 591.585 2593.12 586.753 2588.34 581.949C2587.27 580.887 2586.21 579.826 2585.15 578.765C2582.25 575.867 2579.36 572.965 2576.46 570.063C2573.33 566.926 2570.2 563.793 2567.07 560.66C2561.64 555.234 2556.22 549.807 2550.8 544.379C2542.96 536.522 2535.11 528.669 2527.26 520.816C2514.52 508.064 2501.78 495.31 2489.03 482.554C2487.89 481.41 2487.89 481.41 2486.73 480.243C2480.54 474.054 2474.36 467.865 2468.18 461.676C2462.77 456.266 2457.37 450.856 2451.97 445.446C2451.21 444.684 2450.44 443.922 2449.66 443.137C2436.97 430.428 2424.27 417.721 2411.57 405.015C2403.74 397.184 2395.92 389.35 2388.09 381.514C2382.73 376.145 2377.37 370.778 2372.01 365.412C2368.91 362.318 2365.82 359.223 2362.73 356.126C2359.9 353.287 2357.07 350.451 2354.23 347.617C2353.21 346.595 2352.19 345.571 2351.17 344.547C2346.12 339.485 2341.05 334.529 2335.62 329.884C2331.9 326.7 2328.43 323.241 2324.94 319.813C2323.76 318.694 2323.76 318.694 2322.56 317.553C2321.83 316.83 2321.1 316.108 2320.34 315.363C2319.67 314.717 2319.01 314.07 2318.32 313.404C2317 311.5 2317 311.5 2317.07 309.747C2318.46 306.382 2320.94 304.159 2323.49 301.649C2324.07 301.075 2324.64 300.5 2325.23 299.908C2327.13 298.008 2329.03 296.119 2330.94 294.23C2332.27 292.908 2333.59 291.586 2334.92 290.262C2337.7 287.486 2340.48 284.715 2343.27 281.948C2346.83 278.418 2350.38 274.879 2353.93 271.337C2357.32 267.944 2360.73 264.556 2364.13 261.168C2364.77 260.528 2365.41 259.889 2366.07 259.23C2367.91 257.397 2369.76 255.567 2371.6 253.739C2372.13 253.209 2372.66 252.68 2373.21 252.134C2375.37 249.996 2377.5 247.9 2379.88 245.998C2385.28 241.648 2388.27 237.222 2391.38 231.078C2392.4 229.146 2393.43 227.216 2394.46 225.287C2395 224.261 2395.54 223.235 2396.11 222.178C2413.94 188.926 2435.55 158.462 2459.18 129.097C2460.27 127.743 2461.35 126.389 2462.44 125.032C2523.78 48.3056 2595.89 10.8202 2932.1 0.115479Z" fill="#1E1E1E"/>
<path d="M2215 410.5C2219.29 414.099 2223.4 417.779 2227.35 421.752C2228.08 422.482 2228.08 422.482 2228.82 423.228C2229.86 424.272 2230.9 425.318 2231.94 426.365C2233.59 428.03 2235.25 429.69 2236.9 431.35C2241.01 435.472 2245.11 439.6 2249.22 443.727C2252.69 447.223 2256.17 450.717 2259.65 454.208C2261.27 455.832 2262.88 457.458 2264.5 459.085C2265.51 460.096 2266.51 461.108 2267.52 462.119C2268.39 462.991 2269.26 463.864 2270.15 464.762C2272.23 466.761 2274.31 468.635 2276.5 470.502C2281.84 475.164 2286.82 480.184 2291.82 485.203C2292.89 486.281 2293.97 487.359 2295.05 488.436C2297.99 491.38 2300.94 494.328 2303.88 497.276C2307.06 500.461 2310.24 503.643 2313.42 506.826C2318.93 512.336 2324.43 517.849 2329.94 523.362C2337.9 531.342 2345.87 539.318 2353.85 547.294C2366.79 560.246 2379.73 573.2 2392.68 586.155C2393.45 586.93 2394.22 587.704 2395.02 588.503C2401.3 594.788 2407.58 601.075 2413.86 607.361C2419.35 612.856 2424.84 618.35 2430.32 623.845C2431.1 624.619 2431.87 625.393 2432.67 626.19C2445.56 639.098 2458.46 652.004 2471.35 664.908C2479.31 672.863 2487.25 680.819 2495.2 688.778C2500.64 694.231 2506.09 699.682 2511.54 705.132C2514.68 708.275 2517.82 711.419 2520.96 714.565C2523.83 717.448 2526.71 720.328 2529.59 723.207C2530.63 724.245 2531.67 725.285 2532.71 726.325C2541.59 735.243 2550.49 743.026 2560.83 750.211C2563.06 751.776 2565.28 753.343 2567.5 754.913C2568.08 755.327 2568.66 755.74 2569.27 756.166C2607.23 783.077 2643.21 812.307 2678.16 843.008C2680.49 845.057 2682.83 847.102 2685.17 849.146C2764.7 918.864 2818.52 988.115 2825.97 1096.48C2826.46 1104 2826.85 1111.52 2827.23 1119.04C2827.42 1122.38 2827.6 1125.72 2827.78 1129.06C2832.89 1235.06 2818.21 1344.02 2810 1448.5C2660.84 1448.5 2511.68 1448.5 2358 1448.5C2358 1293.73 2358 1138.96 2358 979.5C2263.95 979.5 2169.9 979.5 2073 979.5C2073 1134.27 2073 1289.04 2073 1448.5C1998.98 1448.58 1924.95 1448.66 1848.69 1448.75C1825.32 1448.79 1801.94 1448.82 1777.86 1448.86C1749.32 1448.88 1749.32 1448.88 1735.96 1448.88C1726.63 1448.89 1717.29 1448.9 1707.96 1448.92C1697.19 1448.95 1686.42 1448.96 1675.65 1448.95C1670.15 1448.95 1664.64 1448.96 1659.13 1448.98C1654.14 1449 1649.16 1449 1644.17 1448.98C1642.37 1448.98 1640.58 1448.99 1638.79 1449C1623.13 1449.1 1607.86 1446.96 1593.19 1441.25C1592.41 1440.95 1591.63 1440.66 1590.83 1440.35C1568.31 1431.5 1551.42 1415.1 1534.66 1398.25C1533.48 1397.07 1532.3 1395.89 1531.11 1394.71C1528.6 1392.19 1526.08 1389.67 1523.57 1387.14C1519.58 1383.15 1515.6 1379.15 1511.61 1375.16C1503.15 1366.69 1494.7 1358.22 1486.25 1349.75C1477.11 1340.59 1467.97 1331.42 1458.82 1322.26C1454.86 1318.3 1450.91 1314.34 1446.95 1310.37C1444.49 1307.9 1442.03 1305.43 1439.56 1302.97C1438.42 1301.83 1437.29 1300.69 1436.15 1299.55C1430.79 1294.16 1425.42 1288.86 1419.64 1283.91C1417.54 1282.1 1415.56 1280.18 1413.6 1278.22C1412.46 1277.08 1412.46 1277.08 1411.3 1275.91C1410.51 1275.12 1409.72 1274.32 1408.91 1273.5C1407.66 1272.25 1407.66 1272.25 1406.38 1270.98C1403.75 1268.34 1401.13 1265.7 1398.5 1263.06C1396.71 1261.26 1394.91 1259.46 1393.12 1257.67C1388.74 1253.28 1384.37 1248.89 1380 1244.5C1381.44 1241.21 1383.22 1239.03 1385.75 1236.5C1386.93 1235.31 1386.93 1235.31 1388.14 1234.1C1389 1233.24 1389.87 1232.38 1390.77 1231.49C1391.69 1230.56 1392.6 1229.64 1393.55 1228.69C1396.1 1226.14 1398.66 1223.58 1401.22 1221.03C1403.98 1218.28 1406.73 1215.52 1409.49 1212.76C1414.89 1207.36 1420.29 1201.96 1425.69 1196.57C1431.99 1190.28 1438.28 1183.99 1444.57 1177.7C1455.8 1166.47 1467.03 1155.25 1478.27 1144.03C1489.17 1133.14 1500.06 1122.26 1510.95 1111.37C1511.62 1110.7 1512.29 1110.03 1512.98 1109.34C1513.98 1108.33 1513.98 1108.33 1515.01 1107.31C1527.41 1094.91 1539.81 1082.51 1552.21 1070.12C1556.6 1065.73 1560.98 1061.35 1565.36 1056.97C1570.71 1051.63 1576.06 1046.28 1581.41 1040.94C1584.13 1038.22 1586.86 1035.49 1589.59 1032.77C1592.55 1029.81 1595.51 1026.85 1598.47 1023.89C1599.33 1023.04 1600.18 1022.18 1601.06 1021.3C1604.6 1017.77 1608.15 1014.31 1611.95 1011.06C1617.01 1006.69 1621.68 1001.95 1626.4 997.214C1627.43 996.182 1628.46 995.15 1629.5 994.118C1632.32 991.299 1635.13 988.477 1637.95 985.654C1640.99 982.604 1644.04 979.557 1647.08 976.509C1652.36 971.233 1657.63 965.954 1662.9 960.675C1670.53 953.034 1678.16 945.396 1685.79 937.759C1698.19 925.356 1710.58 912.951 1722.98 900.545C1723.72 899.803 1724.46 899.061 1725.22 898.297C1730.48 893.031 1735.74 887.766 1741 882.5C1747.01 876.485 1753.02 870.47 1759.02 864.455C1759.76 863.714 1760.5 862.973 1761.27 862.21C1773.61 849.849 1785.96 837.49 1798.31 825.132C1805.93 817.515 1813.54 809.897 1821.15 802.276C1826.36 797.054 1831.57 791.834 1836.79 786.615C1839.8 783.606 1842.81 780.596 1845.81 777.584C1848.56 774.823 1851.32 772.065 1854.08 769.309C1855.07 768.314 1856.07 767.319 1857.06 766.323C1861.89 761.478 1866.76 756.785 1871.95 752.328C1876.27 748.476 1880.31 744.318 1884.4 740.214C1885.43 739.182 1886.46 738.15 1887.5 737.118C1890.32 734.299 1893.13 731.477 1895.95 728.654C1898.99 725.604 1902.04 722.557 1905.08 719.509C1910.36 714.233 1915.63 708.954 1920.9 703.675C1928.53 696.034 1936.16 688.396 1943.79 680.759C1956.19 668.356 1968.58 655.951 1980.98 643.545C1981.72 642.803 1982.46 642.061 1983.22 641.297C1988.48 636.031 1993.74 630.766 1999 625.5C2005.01 619.485 2011.02 613.47 2017.02 607.455C2017.76 606.714 2018.5 605.973 2019.27 605.21C2031.61 592.849 2043.96 580.49 2056.31 568.132C2063.93 560.515 2071.54 552.897 2079.15 545.276C2084.36 540.054 2089.57 534.834 2094.79 529.615C2097.8 526.606 2100.81 523.596 2103.81 520.584C2106.56 517.823 2109.32 515.065 2112.08 512.309C2113.07 511.314 2114.07 510.319 2115.06 509.323C2120.01 504.353 2125 499.516 2130.33 494.945C2132.34 493.208 2134.24 491.386 2136.11 489.507C2136.82 488.799 2137.53 488.091 2138.26 487.362C2139.01 486.611 2139.76 485.86 2140.53 485.086C2141.34 484.276 2142.15 483.465 2142.98 482.63C2145.64 479.976 2148.29 477.318 2150.94 474.66C2152.79 472.809 2154.64 470.958 2156.49 469.108C2160.84 464.75 2165.19 460.39 2169.54 456.029C2174.5 451.06 2179.46 446.093 2184.42 441.127C2194.62 430.921 2204.81 420.712 2215 410.5Z" fill="#1E1E1E"/>
<path d="M1658.73 14.1333C1662.75 14.1437 1666.76 14.1364 1670.77 14.1315C1677.79 14.1253 1684.8 14.1302 1691.81 14.1424C1702.24 14.1606 1712.67 14.1614 1723.1 14.1588C1740.65 14.1549 1758.2 14.1649 1775.75 14.1829C1793.12 14.2006 1810.49 14.2122 1827.85 14.2154C1829.47 14.2157 1829.47 14.2157 1831.13 14.216C1836.62 14.2171 1842.11 14.218 1847.6 14.2188C1886.47 14.2251 1925.33 14.2453 1964.19 14.2737C2001.93 14.3013 2039.68 14.3225 2077.42 14.3353C2078.58 14.3357 2079.75 14.336 2080.95 14.3365C2092.64 14.3404 2104.33 14.3442 2116.02 14.348C2139.84 14.3556 2163.66 14.364 2187.47 14.373C2189.11 14.3736 2189.11 14.3736 2190.79 14.3743C2263.86 14.4019 2336.93 14.4494 2410 14.5001C2408.48 17.6851 2406.9 19.8469 2404.4 22.3507C2403.65 23.1034 2402.9 23.856 2402.13 24.6315C2401.31 25.4477 2400.48 26.2639 2399.64 27.1048C2398.77 27.9719 2397.91 28.8391 2397.02 29.7325C2394.64 32.1083 2392.27 34.4796 2389.89 36.8487C2387.39 39.3352 2384.9 41.827 2382.41 44.3181C2378.22 48.5053 2374.03 52.6886 2369.84 56.8694C2365 61.6876 2360.17 66.5108 2355.35 71.3372C2350.2 76.4901 2345.04 81.6392 2339.88 86.7871C2338.41 88.2624 2336.93 89.7384 2335.45 91.2146C2332.68 93.9818 2329.91 96.7447 2327.14 99.5071C2326.33 100.317 2325.52 101.127 2324.68 101.962C2323.92 102.723 2323.15 103.484 2322.37 104.268C2321.38 105.247 2321.38 105.247 2320.38 106.244C2318.42 108.1 2316.43 109.86 2314.38 111.617C2309.2 116.131 2304.37 120.994 2299.52 125.862C2298.48 126.902 2297.44 127.943 2296.4 128.983C2293.56 131.825 2290.72 134.669 2287.88 137.515C2284.82 140.59 2281.74 143.661 2278.67 146.734C2273.36 152.053 2268.04 157.374 2262.73 162.696C2255.04 170.398 2247.35 178.098 2239.65 185.796C2227.16 198.299 2214.66 210.804 2202.17 223.31C2201.42 224.057 2200.68 224.805 2199.91 225.576C2194.6 230.884 2189.3 236.192 2184 241.5C2177.94 247.564 2171.89 253.627 2165.83 259.69C2165.08 260.437 2164.34 261.184 2163.57 261.954C2151.12 274.414 2138.67 286.873 2126.22 299.33C2118.55 307.008 2110.88 314.688 2103.21 322.37C2097.95 327.634 2092.7 332.896 2087.44 338.157C2084.4 341.19 2081.37 344.225 2078.34 347.261C2075.57 350.044 2072.79 352.825 2070.01 355.603C2069.01 356.606 2068.01 357.609 2067.01 358.613C2062.16 363.481 2057.26 368.199 2052.05 372.677C2047.74 376.514 2043.71 380.659 2039.64 384.748C2038.61 385.776 2037.58 386.804 2036.55 387.832C2033.75 390.64 2030.94 393.45 2028.14 396.261C2025.11 399.299 2022.07 402.334 2019.04 405.37C2013.78 410.625 2008.53 415.882 2003.28 421.14C1995.69 428.75 1988.09 436.358 1980.48 443.964C1968.14 456.317 1955.79 468.672 1943.45 481.028C1942.71 481.767 1941.98 482.506 1941.21 483.267C1935.98 488.511 1930.74 493.756 1925.5 499C1919.52 504.991 1913.53 510.982 1907.55 516.972C1906.44 518.079 1906.44 518.079 1905.31 519.208C1893.02 531.52 1880.72 543.829 1868.42 556.137C1860.83 563.723 1853.25 571.311 1845.68 578.901C1840.49 584.102 1835.29 589.301 1830.1 594.498C1827.1 597.495 1824.1 600.493 1821.11 603.493C1818.37 606.243 1815.62 608.99 1812.88 611.735C1811.89 612.726 1810.9 613.717 1809.91 614.709C1805.09 619.544 1800.23 624.225 1795.05 628.673C1790.74 632.512 1786.71 636.657 1782.64 640.748C1781.61 641.776 1780.58 642.804 1779.55 643.832C1776.75 646.64 1773.94 649.45 1771.14 652.261C1768.11 655.299 1765.07 658.334 1762.04 661.37C1756.78 666.625 1751.53 671.882 1746.28 677.14C1738.69 684.75 1731.09 692.358 1723.48 699.964C1711.14 712.317 1698.79 724.672 1686.45 737.028C1685.34 738.136 1685.34 738.136 1684.21 739.267C1678.98 744.511 1673.74 749.756 1668.5 755C1662.52 760.991 1656.53 766.982 1650.55 772.972C1649.44 774.079 1649.44 774.079 1648.31 775.208C1636.02 787.52 1623.72 799.829 1611.42 812.137C1603.83 819.723 1596.25 827.311 1588.68 834.901C1583.49 840.102 1578.29 845.301 1573.1 850.498C1570.1 853.495 1567.1 856.493 1564.11 859.493C1561.37 862.243 1558.62 864.99 1555.88 867.735C1554.89 868.726 1553.9 869.717 1552.91 870.709C1548.09 875.544 1543.23 880.225 1538.05 884.673C1533.74 888.512 1529.71 892.657 1525.64 896.748C1524.61 897.776 1523.58 898.804 1522.55 899.832C1519.75 902.64 1516.94 905.45 1514.14 908.261C1511.11 911.299 1508.07 914.334 1505.04 917.37C1499.78 922.625 1494.53 927.882 1489.28 933.14C1481.69 940.75 1474.09 948.358 1466.48 955.964C1454.14 968.317 1441.79 980.672 1429.45 993.028C1428.34 994.136 1428.34 994.136 1427.21 995.267C1421.98 1000.51 1416.74 1005.76 1411.5 1011C1405.52 1016.99 1399.53 1022.98 1393.55 1028.97C1392.44 1030.08 1392.44 1030.08 1391.31 1031.21C1379.02 1043.52 1366.72 1055.83 1354.42 1068.14C1346.83 1075.72 1339.25 1083.31 1331.68 1090.9C1326.49 1096.1 1321.29 1101.3 1316.1 1106.5C1313.1 1109.5 1310.1 1112.49 1307.11 1115.49C1304.37 1118.24 1301.62 1120.99 1298.88 1123.74C1297.89 1124.73 1296.9 1125.72 1295.91 1126.71C1290.45 1132.19 1284.91 1137.5 1279 1142.5C1272.84 1137.41 1267.23 1131.86 1261.6 1126.2C1260.57 1125.17 1259.54 1124.13 1258.5 1123.1C1256.29 1120.88 1254.08 1118.67 1251.87 1116.45C1248.37 1112.94 1244.87 1109.43 1241.37 1105.92C1233.3 1097.84 1225.23 1089.75 1217.17 1081.66C1209.78 1074.25 1202.38 1066.84 1194.99 1059.43C1191.51 1055.95 1188.03 1052.47 1184.56 1048.98C1182.4 1046.81 1180.23 1044.63 1178.06 1042.46C1177.06 1041.46 1176.06 1040.46 1175.06 1039.46C1173.69 1038.08 1172.31 1036.7 1170.94 1035.33C1170.17 1034.56 1169.41 1033.79 1168.62 1033C1166.57 1031.05 1164.51 1029.2 1162.37 1027.36C1157.08 1022.77 1152.16 1017.82 1147.21 1012.88C1146.14 1011.81 1145.07 1010.74 1143.99 1009.68C1141.06 1006.76 1138.12 1003.83 1135.19 1000.91C1132.67 998.401 1130.15 995.892 1127.63 993.383C1118.61 984.405 1109.6 975.42 1100.59 966.434C1099.88 965.724 1099.17 965.014 1098.43 964.283C1084.29 950.176 1070.14 936.066 1056.01 921.951C1052.9 918.853 1049.8 915.755 1046.7 912.657C1045.93 911.887 1045.15 911.117 1044.36 910.324C1031.86 897.849 1019.35 885.388 1006.84 872.932C993.972 860.128 981.121 847.311 968.282 834.481C961.079 827.284 953.87 820.093 946.646 812.917C940.496 806.807 934.357 800.686 928.234 794.548C925.113 791.421 921.986 788.299 918.844 785.192C915.961 782.342 913.095 779.475 910.241 776.596C909.213 775.563 908.178 774.537 907.137 773.517C896.379 762.967 888.883 750.463 888.619 735.027C888.657 716.939 893.935 703.065 906.874 689.992C907.734 689.149 908.594 688.305 909.48 687.436C910.867 686.046 910.867 686.046 912.282 684.628C914.787 682.117 917.307 679.621 919.831 677.129C922.487 674.501 925.128 671.859 927.772 669.219C932.208 664.792 936.652 660.375 941.104 655.964C947.362 649.763 953.602 643.545 959.839 637.324C964.186 632.989 968.538 628.659 972.89 624.329C973.938 623.286 974.986 622.243 976.034 621.2C979.482 617.768 982.935 614.341 986.39 610.917C987.677 609.636 987.677 609.636 988.99 608.33C990.203 607.13 990.203 607.13 991.44 605.906C992.132 605.22 992.823 604.534 993.536 603.827C995.528 601.945 997.552 600.156 999.63 598.372C1004.81 593.862 1009.63 589.002 1014.47 584.138C1015.52 583.098 1016.56 582.057 1017.6 581.017C1020.44 578.175 1023.28 575.331 1026.12 572.485C1029.18 569.411 1032.26 566.339 1035.33 563.266C1040.64 557.947 1045.96 552.627 1051.27 547.305C1058.96 539.602 1066.65 531.902 1074.35 524.204C1086.84 511.701 1099.34 499.196 1111.83 486.69C1112.58 485.943 1113.32 485.195 1114.09 484.424C1119.4 479.116 1124.7 473.808 1130 468.5C1136.06 462.437 1142.11 456.373 1148.17 450.31C1148.92 449.563 1149.66 448.816 1150.43 448.046C1162.88 435.586 1175.33 423.127 1187.78 410.67C1195.45 402.992 1203.12 395.312 1210.79 387.63C1216.05 382.366 1221.3 377.104 1226.56 371.843C1229.59 368.81 1232.63 365.775 1235.66 362.739C1238.43 359.956 1241.21 357.176 1243.99 354.397C1244.99 353.395 1245.99 352.391 1246.99 351.387C1251.84 346.521 1256.73 341.806 1261.94 337.33C1266.3 333.454 1270.36 329.268 1274.47 325.138C1275.52 324.098 1276.56 323.057 1277.6 322.017C1280.44 319.175 1283.28 316.331 1286.12 313.485C1289.18 310.411 1292.26 307.339 1295.33 304.266C1300.64 298.947 1305.96 293.627 1311.27 288.305C1318.96 280.602 1326.65 272.902 1334.35 265.204C1346.84 252.701 1359.34 240.197 1371.83 227.69C1372.58 226.943 1373.32 226.195 1374.09 225.424C1379.4 220.116 1384.7 214.808 1390 209.5C1396.06 203.437 1402.11 197.373 1408.17 191.31C1408.92 190.563 1409.66 189.816 1410.43 189.046C1422.88 176.586 1435.33 164.127 1447.78 151.67C1455.45 143.992 1463.12 136.312 1470.79 128.63C1476.05 123.366 1481.3 118.104 1486.56 112.843C1489.59 109.81 1492.63 106.775 1495.66 103.739C1498.43 100.956 1501.21 98.1756 1503.99 95.3969C1504.99 94.3945 1505.99 93.3913 1506.99 92.3871C1511.94 87.4226 1516.91 82.5627 1522.26 78.025C1525.51 75.1774 1528.49 72.0487 1531.51 68.9493C1532.92 67.5133 1534.34 66.0777 1535.75 64.6426C1537.93 62.4228 1540.11 60.2002 1542.28 57.969C1553.45 46.5154 1564.76 36.237 1579.06 28.8126C1579.76 28.4508 1580.45 28.0891 1581.17 27.7164C1586.74 24.9318 1592.44 22.6642 1598.31 20.6251C1599.08 20.3509 1599.85 20.0767 1600.64 19.7942C1619.45 13.6625 1639.2 14.0659 1658.73 14.1333ZM1141.54 675.648C1137.72 679.941 1134.78 684.486 1132 689.5C1131.47 690.435 1130.93 691.369 1130.38 692.332C1119.98 711.662 1118.24 734.479 1124 755.5C1128.11 768.323 1134.11 779.391 1143 789.5C1143.65 790.25 1144.31 791.001 1144.98 791.773C1155.19 802.708 1167.92 809.847 1182 814.5C1183.48 815.009 1183.48 815.009 1184.99 815.527C1200.9 820.1 1219.47 818.901 1235 813.5C1236.78 812.881 1236.78 812.881 1238.59 812.25C1260.5 803.72 1275.9 786.91 1286.31 766.25C1295.55 745.003 1295.61 721.27 1287.25 699.75C1278.1 677.592 1261.2 661.596 1239.53 651.957C1203.87 637.752 1167.89 648.701 1141.54 675.648Z" fill="#1E1E1E"/>
<path d="M598.33 2005.5C573.997 2005.5 551.997 2001.33 532.33 1993C512.997 1984.67 497.663 1972.67 486.33 1957C474.997 1941.33 469.163 1922.83 468.83 1901.5H543.83C544.83 1915.83 549.83 1927.17 558.83 1935.5C568.163 1943.83 580.83 1948 596.83 1948C613.163 1948 625.997 1944.17 635.33 1936.5C644.663 1928.5 649.33 1918.17 649.33 1905.5C649.33 1895.17 646.163 1886.67 639.83 1880C633.497 1873.33 625.497 1868.17 615.83 1864.5C606.497 1860.5 593.497 1856.17 576.83 1851.5C554.163 1844.83 535.663 1838.33 521.33 1832C507.33 1825.33 495.163 1815.5 484.83 1802.5C474.83 1789.17 469.83 1771.5 469.83 1749.5C469.83 1728.83 474.997 1710.83 485.33 1695.5C495.663 1680.17 510.163 1668.5 528.83 1660.5C547.497 1652.17 568.83 1648 592.83 1648C628.83 1648 657.997 1656.83 680.33 1674.5C702.997 1691.83 715.497 1716.17 717.83 1747.5H640.83C640.163 1735.5 634.997 1725.67 625.33 1718C615.997 1710 603.497 1706 587.83 1706C574.163 1706 563.163 1709.5 554.83 1716.5C546.83 1723.5 542.83 1733.67 542.83 1747C542.83 1756.33 545.83 1764.17 551.83 1770.5C558.163 1776.5 565.83 1781.5 574.83 1785.5C584.163 1789.17 597.163 1793.5 613.83 1798.5C636.497 1805.17 654.997 1811.83 669.33 1818.5C683.663 1825.17 695.997 1835.17 706.33 1848.5C716.663 1861.83 721.83 1879.33 721.83 1901C721.83 1919.67 716.997 1937 707.33 1953C697.663 1969 683.497 1981.83 664.83 1991.5C646.163 2000.83 623.997 2005.5 598.33 2005.5ZM1163.02 1653V2002H1093.02V1775L999.518 2002H946.518L852.518 1775V2002H782.518V1653H862.018L973.018 1912.5L1084.02 1653H1163.02ZM1394.22 2005.5C1361.56 2005.5 1331.56 1997.83 1304.22 1982.5C1276.89 1967.17 1255.22 1946 1239.22 1919C1223.22 1891.67 1215.22 1860.83 1215.22 1826.5C1215.22 1792.5 1223.22 1762 1239.22 1735C1255.22 1707.67 1276.89 1686.33 1304.22 1671C1331.56 1655.67 1361.56 1648 1394.22 1648C1427.22 1648 1457.22 1655.67 1484.22 1671C1511.56 1686.33 1533.06 1707.67 1548.72 1735C1564.72 1762 1572.72 1792.5 1572.72 1826.5C1572.72 1860.83 1564.72 1891.67 1548.72 1919C1533.06 1946 1511.56 1967.17 1484.22 1982.5C1456.89 1997.83 1426.89 2005.5 1394.22 2005.5ZM1394.22 1943C1415.22 1943 1433.72 1938.33 1449.72 1929C1465.72 1919.33 1478.22 1905.67 1487.22 1888C1496.22 1870.33 1500.72 1849.83 1500.72 1826.5C1500.72 1803.17 1496.22 1782.83 1487.22 1765.5C1478.22 1747.83 1465.72 1734.33 1449.72 1725C1433.72 1715.67 1415.22 1711 1394.22 1711C1373.22 1711 1354.56 1715.67 1338.22 1725C1322.22 1734.33 1309.72 1747.83 1300.72 1765.5C1291.72 1782.83 1287.22 1803.17 1287.22 1826.5C1287.22 1849.83 1291.72 1870.33 1300.72 1888C1309.72 1905.67 1322.22 1919.33 1338.22 1929C1354.56 1938.33 1373.22 1943 1394.22 1943ZM1786.8 2005.5C1754.14 2005.5 1724.14 1997.83 1696.8 1982.5C1669.47 1967.17 1647.8 1946 1631.8 1919C1615.8 1891.67 1607.8 1860.83 1607.8 1826.5C1607.8 1792.5 1615.8 1762 1631.8 1735C1647.8 1707.67 1669.47 1686.33 1696.8 1671C1724.14 1655.67 1754.14 1648 1786.8 1648C1819.8 1648 1849.8 1655.67 1876.8 1671C1904.14 1686.33 1925.64 1707.67 1941.3 1735C1957.3 1762 1965.3 1792.5 1965.3 1826.5C1965.3 1860.83 1957.3 1891.67 1941.3 1919C1925.64 1946 1904.14 1967.17 1876.8 1982.5C1849.47 1997.83 1819.47 2005.5 1786.8 2005.5ZM1786.8 1943C1807.8 1943 1826.3 1938.33 1842.3 1929C1858.3 1919.33 1870.8 1905.67 1879.8 1888C1888.8 1870.33 1893.3 1849.83 1893.3 1826.5C1893.3 1803.17 1888.8 1782.83 1879.8 1765.5C1870.8 1747.83 1858.3 1734.33 1842.3 1725C1826.3 1715.67 1807.8 1711 1786.8 1711C1765.8 1711 1747.14 1715.67 1730.8 1725C1714.8 1734.33 1702.3 1747.83 1693.3 1765.5C1684.3 1782.83 1679.8 1803.17 1679.8 1826.5C1679.8 1849.83 1684.3 1870.33 1693.3 1888C1702.3 1905.67 1714.8 1919.33 1730.8 1929C1747.14 1938.33 1765.8 1943 1786.8 1943ZM2254.88 1653V1709.5H2161.88V2002H2091.88V1709.5H1998.88V1653H2254.88ZM2595.46 1653V2002H2525.46V1853.5H2375.96V2002H2305.96V1653H2375.96V1796.5H2525.46V1653H2595.46ZM2963.49 2002L2886.49 1866H2853.49V2002H2783.49V1653H2914.49C2941.49 1653 2964.49 1657.83 2983.49 1667.5C3002.49 1676.83 3016.66 1689.67 3025.99 1706C3035.66 1722 3040.49 1740 3040.49 1760C3040.49 1783 3033.83 1803.83 3020.49 1822.5C3007.16 1840.83 2987.33 1853.5 2960.99 1860.5L3044.49 2002H2963.49ZM2853.49 1813.5H2911.99C2930.99 1813.5 2945.16 1809 2954.49 1800C2963.83 1790.67 2968.49 1777.83 2968.49 1761.5C2968.49 1745.5 2963.83 1733.17 2954.49 1724.5C2945.16 1715.5 2930.99 1711 2911.99 1711H2853.49V1813.5ZM3173.81 1709.5V1797H3291.31V1852.5H3173.81V1945H3306.31V2002H3103.81V1652.5H3306.31V1709.5H3173.81ZM3668.42 2002H3598.42L3439.92 1762.5V2002H3369.92V1652.5H3439.92L3598.42 1892.5V1652.5H3668.42V2002ZM3975.1 1653V1709.5H3882.1V2002H3812.1V1709.5H3719.1V1653H3975.1Z" fill="#1E1E1E"/>
</svg>
