<?xml version="1.0" encoding="UTF-8"?>
<svg version="1.1" xmlns="http://www.w3.org/2000/svg" width="4167" height="4167">
<path d="M0 0 C3.62254324 0.0962324 7.24516038 0.18949767 10.86778102 0.28276317 C88.00477855 2.27154465 165.07412975 5.42241728 242.08292099 10.32371554 C244.17930558 10.45700919 246.27573675 10.58954962 248.37217715 10.72196238 C256.18600058 11.21655149 263.99857998 11.72734279 271.80981655 12.26146915 C274.13268695 12.41962569 276.45576377 12.57478582 278.77905697 12.72660511 C300.56477438 14.16263027 319.62714975 16.36281834 334.97346962 33.73219357 C342.81612963 44.19474433 346.0580533 55.75854265 346.02805204 68.61475048 C346.03071455 70.02292075 346.03071455 70.02292075 346.03343086 71.4595389 C346.03819054 74.62931588 346.03579308 77.79904773 346.03347195 80.96882687 C346.03542411 83.26452128 346.03781265 85.56021536 346.04059992 87.85590891 C346.0470201 94.20677066 346.04715994 100.5576198 346.04632251 106.90848418 C346.04598745 113.09160423 346.05129977 119.2747208 346.05598002 125.45783866 C346.06549666 138.26373762 346.07019994 151.06963439 346.07228936 163.87553654 C346.07441684 176.85776044 346.0786743 189.83998096 346.08553208 202.82220326 C346.08596269 203.6414109 346.0863933 204.46061855 346.08683697 205.30465066 C346.08859529 208.64103411 346.09036493 211.97741754 346.09214999 215.31380097 C346.11375631 255.7761734 346.12462963 296.23854649 346.13362623 336.70092337 C346.13655964 349.82059091 346.13992945 362.94025829 346.14359344 376.05992565 C346.14398087 377.44800781 346.14398087 377.44800781 346.14437614 378.86413203 C346.14542235 382.60783569 346.14647077 386.35153935 346.14752196 390.095243 C346.16548696 454.132036 346.18086659 518.16882926 346.18828099 582.20562441 C346.18886497 587.23626731 346.18946223 592.2669102 346.19005861 597.2975531 C346.19017673 598.29548033 346.19029485 599.29340755 346.19041655 600.321575 C346.19161395 610.43210475 346.1928227 620.5426345 346.19404908 630.65316425 C346.19429431 632.68036664 346.19453817 634.70756902 346.19478065 636.7347714 C346.20257108 701.84689067 346.22495584 766.95899193 346.25745708 832.07110332 C346.28080009 878.85163652 346.30235319 925.63216613 346.30946339 972.41270504 C346.30961041 973.37460425 346.30975743 974.33650346 346.30990891 975.32755113 C346.31309361 996.44289142 346.31514459 1017.55823168 346.31613645 1038.67357219 C346.3165512 1047.16939033 346.3171061 1055.66520845 346.31769837 1064.16102657 C346.31778937 1065.55575926 346.31778937 1065.55575926 346.31788221 1066.97866836 C346.31989882 1096.93953853 346.33414183 1126.90038745 346.35464337 1156.8612502 C346.37521857 1187.03675006 346.38312141 1217.21222533 346.37356561 1247.3877315 C346.37224714 1251.55704193 346.3710691 1255.72635239 346.36997498 1259.89566288 C346.36975513 1260.71296703 346.36953528 1261.53027118 346.36930877 1262.37234211 C346.36619378 1275.31657209 346.37652354 1288.26075506 346.39245053 1301.20497415 C346.40783113 1313.93155032 346.40895794 1326.65806145 346.39490229 1339.38463987 C346.38777354 1346.1932246 346.38743757 1353.0016379 346.40446238 1359.81021032 C346.41982263 1366.00338465 346.41679117 1372.19626634 346.3990521 1378.38943182 C346.39590061 1380.61671677 346.39946223 1382.84402387 346.41054385 1385.07128349 C346.49612973 1403.47056136 344.4926919 1419.58994373 331.27425087 1433.63453732 C319.78926136 1444.48147186 307.47471503 1448.87167796 291.91496743 1448.74530087 C290.74669431 1448.74786414 289.57842119 1448.75042742 288.37474585 1448.75306837 C285.15915472 1448.75713173 281.94393311 1448.74784701 278.72838558 1448.73273418 C275.25068358 1448.71970893 271.77299703 1448.72416784 268.29527748 1448.726441 C262.2789135 1448.72800966 256.26264755 1448.71864327 250.24630821 1448.70172749 C241.54784116 1448.67728652 232.84942124 1448.66952702 224.15092357 1448.66576351 C210.03624412 1448.65920701 195.92161685 1448.63926763 181.80696572 1448.61085568 C168.10058815 1448.58329435 154.39422479 1448.56207093 140.68782509 1448.54933224 C139.41930583 1448.54814998 139.41930583 1448.54814998 138.12515991 1448.54694384 C133.88239011 1448.54302857 129.63962021 1448.53923748 125.39685024 1448.53550813 C90.23094659 1448.50443717 55.06510356 1448.45162324 19.89925087 1448.38453732 C19.92827197 1447.34499374 19.95729307 1446.30545016 19.98719359 1445.23440526 C21.2666152 1399.20627251 22.43728073 1353.17690194 23.08537758 1307.13523922 C23.09528852 1306.4332327 23.10519947 1305.73122619 23.11541074 1305.00794675 C23.33041955 1289.73474192 23.52690301 1274.46135093 23.70442562 1259.18766557 C23.79165205 1251.69253743 23.88295252 1244.19746139 23.97639931 1236.70240841 C23.98562671 1235.95674025 23.99485411 1235.21107209 24.00436113 1234.44280793 C24.30296538 1210.46582528 24.86801092 1186.50457417 25.57834163 1162.53654713 C26.30967676 1137.81053718 26.75814762 1113.09398672 26.87354396 1088.35709971 C26.89013486 1084.82757189 26.9098085 1081.2980675 26.93136681 1077.76856671 C26.93551234 1077.07422125 26.93965788 1076.37987579 26.94392904 1075.66448956 C27.00832254 1066.02711859 27.26058346 1056.41136327 27.66873345 1046.78264564 C30.97858848 975.05772484 30.97858848 975.05772484 -2.32225502 914.04730811 C-19.48684131 895.38871215 -38.98261691 878.93314243 -59.08103346 863.54064033 C-65.06146568 858.91517784 -70.68686905 853.92511626 -76.02959739 848.57594357 C-76.92537467 847.68154064 -77.82115194 846.78713772 -78.74407398 845.86563168 C-79.71335195 844.89281118 -80.68258384 843.91994477 -81.65177452 842.94703732 C-82.70046129 841.89807007 -83.74937051 840.84932519 -84.7984811 839.80078182 C-87.66320735 836.93634948 -90.52482132 834.06882586 -93.38592111 831.20077191 C-96.47887568 828.10141751 -99.57475791 825.00498994 -102.67029869 821.90821896 C-108.02904861 816.54658788 -113.38602051 811.1831857 -118.74183189 805.81861935 C-126.49355811 798.05431531 -134.24854273 790.29327222 -142.00441145 782.53310642 C-154.59980513 769.93065154 -167.19332928 757.32633036 -179.78531944 744.72047482 C-180.91480992 743.58974261 -180.91480992 743.58974261 -182.0671184 742.43616734 C-188.17645534 736.320086 -194.2857017 730.20391419 -200.3949443 724.08773861 C-205.73531346 718.74131671 -211.07571878 713.39493094 -216.41617882 708.04859982 C-217.16825068 707.29569983 -217.92032254 706.54279984 -218.69518446 705.7670847 C-231.24135414 693.2072225 -243.78949241 680.64932884 -256.33903324 668.09283505 C-264.07413944 660.35325225 -271.80746387 652.61189725 -279.53848731 644.86823616 C-284.83600159 639.56228678 -290.13529054 634.25811428 -295.43597066 628.95532761 C-298.4924105 625.8975449 -301.54801826 622.83894253 -304.6014167 619.77812252 C-307.39966478 616.97309889 -310.2002397 614.17041996 -313.00263499 611.36953983 C-314.01283366 610.35907098 -315.02219003 609.34775915 -316.03058838 608.33549366 C-320.28415131 604.06638478 -324.52004442 599.81952024 -329.0936309 595.89165554 C-334.24121903 591.46959466 -338.97899172 586.63795589 -343.76566612 581.83314572 C-344.82672729 580.77180408 -345.88801091 579.71068478 -346.9494959 578.64976702 C-349.84842684 575.75113003 -352.7442453 572.8494013 -355.63955008 569.94714294 C-358.76931515 566.81097871 -361.90200724 563.67774067 -365.03435814 560.54415951 C-370.45695074 555.1186856 -375.87776531 549.69144051 -381.29741966 544.26303158 C-389.1414535 536.40642062 -396.98874514 528.55306997 -404.83692103 520.70059685 C-417.58205751 507.94839899 -430.3253245 495.19433482 -443.06705772 482.43873654 C-444.21000597 481.29454657 -444.21000597 481.29454657 -445.37604409 480.12724165 C-451.55818673 473.9383546 -457.74023879 467.74937709 -463.9222871 461.56039581 C-469.3262959 456.15033427 -474.73034087 450.74030887 -480.13444053 445.3303381 C-480.89547338 444.56847712 -481.65650623 443.80661614 -482.44060069 443.02166847 C-495.13593217 430.3126448 -507.833232 417.60558941 -520.53193437 404.89993391 C-528.35916885 397.06822265 -536.18462149 389.23473902 -544.00777363 381.39894984 C-549.36836249 376.02992634 -554.73072563 370.66267929 -560.09448003 365.29681823 C-563.18737458 362.20258072 -566.27943687 359.10752318 -569.36929046 356.01024876 C-572.20084658 353.17191799 -575.03472864 350.33593083 -577.87043159 347.50174323 C-578.89274321 346.47916139 -579.91421226 345.45573631 -580.93472391 344.43135814 C-585.97794536 339.36992606 -591.0506533 334.41315128 -596.48304903 329.76864348 C-600.20457569 326.58450077 -603.66873691 323.12533139 -607.16324913 319.69703732 C-608.33790733 318.57845333 -608.33790733 318.57845333 -609.536296 317.43727169 C-610.2704171 316.71475216 -611.00453819 315.99223263 -611.76090538 315.24781857 C-612.42743126 314.60111202 -613.09395714 313.95440548 -613.78068077 313.28810177 C-615.10074913 311.38453732 -615.10074913 311.38453732 -615.02665245 309.63124142 C-613.63989832 306.26628299 -611.15946824 304.04363414 -608.60636436 301.53370724 C-608.03385444 300.95915295 -607.46134453 300.38459866 -606.87148582 299.79263363 C-604.97461512 297.89275252 -603.06720621 296.0038431 -601.15934288 294.11500607 C-599.83413917 292.79286183 -598.50952704 291.47012439 -597.18548118 290.14682064 C-594.40485208 287.37079753 -591.61938372 284.59975835 -588.82999717 281.83253536 C-585.27155352 278.3022361 -581.72171251 274.76344872 -578.17507374 271.22129402 C-574.77713687 267.82854348 -571.37454134 264.44047975 -567.97184288 261.05250607 C-567.33030203 260.41284594 -566.68876117 259.77318581 -566.02777969 259.11414204 C-564.18803623 257.28135617 -562.34497466 255.45197332 -560.50089561 253.62355099 C-559.97018455 253.09395779 -559.43947349 252.56436459 -558.89268028 252.01872311 C-556.73087892 249.88091896 -554.6002729 247.78433434 -552.22403192 245.88249478 C-546.82321697 241.53213108 -543.82631245 237.10645417 -540.72420799 230.96292172 C-539.70050025 229.03067068 -538.67350461 227.10015906 -537.64375126 225.17112312 C-537.09999485 224.14544586 -536.55623845 223.11976859 -535.99600457 222.06301019 C-518.16202245 188.81068373 -496.54620309 158.34646281 -472.92379957 128.98104385 C-471.83572538 127.62789084 -470.7495924 126.27317455 -469.66543215 124.91688363 C-408.32022166 48.19016458 -336.21201526 10.70472572 0 0 Z " fill="#0356EF" transform="translate(2932.100749127567,1351.6154626831412)"/>
<path d="M0 0 C4.28598996 3.59893302 8.40064084 7.27911538 12.34936523 11.25170898 C13.07777115 11.9823053 13.07777115 11.9823053 13.82089233 12.72766113 C14.8619178 13.77245511 15.90178811 14.81840118 16.94058037 15.86541557 C18.59174541 17.5295049 20.24615443 19.19030958 21.90138245 20.85035706 C26.01020996 24.97245719 30.11355297 29.10000272 34.21704102 33.22741699 C37.69311905 36.7233433 41.17131862 40.21713338 44.65226936 43.70820808 C46.26941528 45.33176008 47.88348027 46.95833075 49.49742126 48.58506775 C50.50520986 49.59649453 51.51314232 50.607778 52.52124023 51.61889648 C53.38837143 52.4912645 54.25550262 53.36363251 55.14891052 54.26243591 C57.23003967 56.26069815 59.31109821 58.13509345 61.50214481 60.00214481 C66.84288274 64.66383384 71.8157433 69.68356903 76.81677246 74.70324707 C77.89433284 75.78108791 78.97211564 76.85870642 80.05009985 77.93612337 C82.99463704 80.88036656 85.93606149 83.82770209 88.87697291 86.77556634 C92.05581863 89.96081036 95.23759054 93.14312901 98.41902161 96.32579041 C103.92673778 101.83638808 109.43267592 107.34875705 114.93745422 112.86228943 C122.90456489 120.8419763 130.87493256 128.81840368 138.84618467 136.79395324 C151.79097823 149.7458084 164.73390233 162.69952987 177.67529297 175.65478516 C178.44922093 176.42954093 179.22314889 177.2042967 180.02052921 178.00252992 C186.29974611 184.28849124 192.57887245 190.57454302 198.85799503 196.86059856 C204.34685669 202.35551295 209.83575452 207.85039121 215.32470703 213.34521484 C216.09768786 214.1190238 216.8706687 214.89283276 217.66707319 215.69009048 C230.56128709 228.59799612 243.45746898 241.50393381 256.35505342 254.40847158 C264.3051256 262.3630208 272.25341587 270.3193426 280.19940627 278.27796924 C285.64409456 283.73109158 291.09055662 289.18243801 296.53841007 294.63239825 C299.67991091 297.77524218 302.82057922 300.91890659 305.95903969 304.06478691 C308.83500651 306.94752719 311.71329811 309.82792532 314.59341127 312.70652288 C315.63187348 313.74525538 316.66949277 314.78483145 317.70615548 315.82535988 C326.59228529 324.74307099 335.49446302 332.52549659 345.8326416 339.7111969 C348.05531656 341.27624854 350.27664841 342.84299917 352.49554825 344.41337967 C353.07982772 344.82682532 353.66410719 345.24027097 354.26609211 345.66624527 C392.22684183 372.57653397 428.20849544 401.80732843 463.15967679 432.50766683 C465.49344528 434.55674488 467.83091077 436.60154936 470.16847801 438.64629173 C549.69615281 508.36359774 603.52020266 577.61459308 610.97243762 685.98178047 C611.45556937 693.49910012 611.85197883 701.01996334 612.234375 708.54296875 C612.4150291 711.8814543 612.59581426 715.21993094 612.77804548 718.55833079 C617.88537238 824.55551067 603.21188857 933.51951004 595 1038 C445.84 1038 296.68 1038 143 1038 C143 883.23 143 728.46 143 569 C48.95 569 -45.1 569 -142 569 C-142 723.77 -142 878.54 -142 1038 C-216.023125 1038.0825 -290.04625 1038.165 -366.3125 1038.25 C-389.68489502 1038.28641602 -413.05729004 1038.32283203 -437.13793945 1038.36035156 C-465.68005371 1038.37841797 -465.68005371 1038.37841797 -479.04216003 1038.3817749 C-488.37386617 1038.38550123 -497.70547624 1038.40015782 -507.03715515 1038.42230225 C-517.80771566 1038.44782325 -528.57818421 1038.45932984 -539.34877516 1038.4537798 C-544.85449737 1038.45137749 -550.36001422 1038.45509832 -555.86569846 1038.47686052 C-560.85541325 1038.49646251 -565.84477929 1038.49720587 -570.8345108 1038.48360443 C-572.62765141 1038.48192346 -574.42081476 1038.48686294 -576.21391141 1038.49953032 C-591.87077205 1038.6035354 -607.13762514 1036.46315834 -621.8125 1030.75 C-622.59109375 1030.45407959 -623.3696875 1030.15815918 -624.171875 1029.85327148 C-646.68721212 1021.00102841 -663.57656228 1004.60293467 -680.34277344 987.75488281 C-681.52344105 986.57228985 -682.70434111 985.38992891 -683.88545227 984.20777893 C-686.40273323 981.68736779 -688.91846028 979.16542007 -691.43294525 976.64221954 C-695.4154806 972.64602194 -699.40195288 968.65376674 -703.38897705 964.66204834 C-711.84564091 956.19434751 -720.29803957 947.72239512 -728.75 939.25 C-737.89197999 930.08594333 -747.03472004 920.92265223 -756.18234849 911.76423335 C-760.13971564 907.80190824 -764.094638 903.83716434 -768.04765368 899.87049818 C-770.51021116 897.40044691 -772.97486975 894.93250022 -775.44008446 892.46510124 C-776.57609245 891.32723216 -777.71124126 890.18850449 -778.84543037 889.0488224 C-784.20659276 883.66252835 -789.58153833 878.35618181 -795.36087418 873.41230202 C-797.4635271 871.60061622 -799.43764213 869.68250097 -801.39648438 867.71704102 C-802.53676086 866.57665123 -802.53676086 866.57665123 -803.70007324 865.41322327 C-804.48998657 864.61814865 -805.2798999 863.82307404 -806.09375 863.00390625 C-807.34194519 861.75358864 -807.34194519 861.75358864 -808.61535645 860.47801208 C-811.24594935 857.84186738 -813.87302441 855.20224895 -816.5 852.5625 C-818.29403855 850.76344021 -820.08830715 848.9646098 -821.8828125 847.16601562 C-826.25787125 842.77999188 -830.63005512 838.39111858 -835 834 C-833.55988991 830.70769403 -831.78111342 828.53141602 -829.24672508 825.99783611 C-828.06728122 824.81149406 -828.06728122 824.81149406 -826.86401021 823.6011855 C-825.99593854 822.73825739 -825.12786687 821.87532928 -824.23348999 820.98625183 C-823.31454283 820.06489026 -822.39559568 819.14352869 -821.44880164 818.19424707 C-818.89649943 815.63552515 -816.33798726 813.08309229 -813.77842546 810.53163517 C-811.01939752 807.77918014 -808.2661323 805.02097129 -805.512146 802.26347351 C-800.11431944 796.86060149 -794.71116034 791.46309261 -789.30619018 786.06736799 C-783.01019936 779.78175976 -776.71943753 773.49092915 -770.42887945 767.19988469 C-759.20034989 755.97085426 -747.96699362 744.74666476 -736.73095703 733.52514648 C-725.83410815 722.64237033 -714.94075255 711.75611342 -704.05126953 700.8659668 C-703.3812572 700.19591451 -702.71124487 699.52586223 -702.02092914 698.83550533 C-701.0176336 697.83214925 -701.0176336 697.83214925 -699.99406946 696.80852336 C-687.59424162 684.40800476 -675.19112194 672.01078333 -662.78647672 659.61508384 C-658.40323012 655.23484889 -654.02095614 650.85364228 -649.63898849 646.47212791 C-644.29290771 641.12673093 -638.94492961 635.78324022 -633.59461181 630.44208404 C-630.86636295 627.71843745 -628.1388874 624.99402896 -625.4135704 622.26744843 C-622.45456543 619.30713817 -619.49168332 616.35073861 -616.52841187 613.3946991 C-615.67372452 612.53846315 -614.81903718 611.68222721 -613.93845022 610.80004472 C-610.39703385 607.27286766 -606.84625588 603.81365085 -603.05442238 600.55568409 C-597.98994969 596.1936283 -593.31533245 591.44723592 -588.60083008 586.71435547 C-587.56864252 585.68188742 -586.53623247 584.64964176 -585.5036211 583.61759758 C-582.6845011 580.79877144 -579.8684931 577.97685464 -577.05299997 575.15440655 C-574.00912609 572.10413192 -570.96232365 569.05678498 -567.91586304 566.00909424 C-562.64223668 560.73258693 -557.37038835 555.45430865 -552.09970093 550.17486572 C-544.47105155 542.53363757 -536.83914295 534.89567123 -529.20635045 527.25858188 C-516.81061384 514.8557843 -504.41674679 502.45112042 -492.02441406 490.04492188 C-491.28338287 489.30306287 -490.54235167 488.56120386 -489.77886498 487.79686427 C-484.51919348 482.53129263 -479.25958895 477.26565409 -474 472 C-467.99190818 465.98497989 -461.98378606 459.96999006 -455.97558594 453.95507812 C-455.23546206 453.21412612 -454.49533818 452.47317411 -453.7327863 451.70976901 C-441.38549905 439.34878877 -429.03624283 426.98977743 -416.68558407 414.63216591 C-409.07331555 407.01542107 -401.46282875 399.39690426 -393.85464358 391.77608061 C-388.64122875 386.55423005 -383.42603872 381.33415694 -378.20945764 376.11546946 C-375.20162408 373.10629317 -372.19462232 370.09629769 -369.18983078 367.08408356 C-366.43599344 364.3234694 -363.67982802 361.56520149 -360.92184293 358.80873132 C-359.92779486 357.81441312 -358.93458872 356.8192523 -357.94234145 355.82313704 C-353.11473383 350.97759476 -348.24118666 346.2852303 -343.05414867 341.82788277 C-338.72596694 337.97645327 -334.68820634 333.81766515 -330.60083008 329.71435547 C-329.56864252 328.68188742 -328.53623247 327.64964176 -327.5036211 326.61759758 C-324.6845011 323.79877144 -321.8684931 320.97685464 -319.05299997 318.15440655 C-316.00912609 315.10413192 -312.96232365 312.05678498 -309.91586304 309.00909424 C-304.64223668 303.73258693 -299.37038835 298.45430865 -294.09970093 293.17486572 C-286.47105155 285.53363757 -278.83914295 277.89567123 -271.20635045 270.25858188 C-258.81061384 257.8557843 -246.41674679 245.45112042 -234.02441406 233.04492188 C-233.28338287 232.30306287 -232.54235167 231.56120386 -231.77886498 230.79686427 C-226.51919348 225.53129263 -221.25958895 220.26565409 -216 215 C-209.99190818 208.98497989 -203.98378606 202.96999006 -197.97558594 196.95507812 C-197.23546206 196.21412612 -196.49533818 195.47317411 -195.7327863 194.70976901 C-183.38549905 182.34878877 -171.03624283 169.98977743 -158.68558407 157.63216591 C-151.07331555 150.01542107 -143.46282875 142.39690426 -135.85464358 134.77608061 C-130.64122875 129.55423005 -125.42603872 124.33415694 -120.20945764 119.11546946 C-117.20162408 116.10629317 -114.19462232 113.09629769 -111.18983078 110.08408356 C-108.43599344 107.3234694 -105.67982802 104.56520149 -102.92184293 101.80873132 C-101.92779486 100.81441312 -100.93458872 99.8192523 -99.94234145 98.82313704 C-94.99082091 93.8532215 -89.99513412 89.01555464 -84.67154217 84.44486511 C-82.6626999 82.70844101 -80.76285781 80.88597192 -78.88696289 79.00721741 C-78.17759079 78.29921997 -77.46821869 77.59122253 -76.73735046 76.86177063 C-75.99000137 76.11082626 -75.24265228 75.3598819 -74.47265625 74.58618164 C-73.66194168 73.7756131 -72.85122711 72.96504456 -72.01594543 72.12991333 C-69.36241698 69.47569354 -66.71243867 66.81795961 -64.0625 64.16015625 C-62.21327234 62.30906164 -60.36382237 60.45818908 -58.51416016 58.60752869 C-54.15978976 54.25006458 -49.8079722 49.89006035 -45.45709229 45.52911133 C-40.49890056 40.55969722 -35.53782961 35.5931617 -30.57652855 30.62685215 C-20.38117181 20.42107547 -10.1893906 10.21173321 0 0 Z " fill="#0356EF" transform="translate(2215,1762)"/>
<path d="M0 0 C4.01274456 0.01042927 8.02546675 0.00316645 12.03821655 -0.00173247 C19.05266017 -0.00791672 26.06702699 -0.00308611 33.08146163 0.00918215 C43.51146668 0.02737324 53.94142387 0.02818162 64.37144189 0.02555619 C81.92089998 0.02162467 99.47032405 0.03159991 117.01977225 0.04960841 C134.38613241 0.06738319 151.75247838 0.07891103 169.11884757 0.08216685 C170.74089063 0.08247618 170.74089063 0.08247618 172.39570224 0.08279176 C177.88779813 0.08380681 183.37989404 0.08471094 188.87198995 0.08557238 C227.73305082 0.09186708 266.59409319 0.1120609 305.45514365 0.14048022 C343.19895776 0.16805056 380.9427668 0.18929305 418.68658896 0.20200366 C419.85081611 0.20239824 421.01504325 0.20279281 422.21455 0.20319935 C433.90661291 0.20715504 445.59867586 0.21098246 457.29073884 0.21471593 C481.10703567 0.22232377 504.92333216 0.23078753 528.73962851 0.23976916 C530.38204009 0.24038696 530.38204009 0.24038696 532.05763169 0.24101725 C605.1274806 0.26860107 678.19731927 0.31613454 751.26715537 0.36679858 C749.74760875 3.55185686 748.16960239 5.71368519 745.6637313 8.21746081 C744.91526938 8.97011721 744.16680747 9.72277362 743.39566489 10.49823779 C742.57385733 11.31442584 741.75204978 12.13061389 740.90533896 12.97153491 C740.0400759 13.83869631 739.17481284 14.70585772 738.28332968 15.59929675 C735.91061513 17.9750814 733.53351539 20.34630678 731.15420171 22.71547168 C728.65890636 25.2019655 726.16890265 27.69374818 723.67819663 30.18483752 C719.49006016 34.37203742 715.298071 38.55534841 711.10358115 42.73618334 C706.2697792 47.55430608 701.44117653 52.37758832 696.61557587 57.20392418 C691.46334743 62.35683131 686.30730502 67.50590933 681.15015908 72.65389436 C679.67275146 74.12918152 678.19604568 75.60516803 676.71949835 77.08131617 C673.95110293 79.84850868 671.1784455 82.61140701 668.40533896 85.37387866 C667.59567679 86.18399401 666.78601462 86.99410937 665.95181723 87.82877368 C665.18643637 88.58988955 664.42105551 89.35100543 663.6324813 90.13518542 C662.65190284 91.1132501 662.65190284 91.1132501 661.65151473 92.11107367 C659.69039051 93.96639666 657.69618728 95.72629992 655.6490161 97.48367613 C650.46440317 101.99734256 645.64106319 106.86061762 640.79205771 111.72837084 C639.75162055 112.76908849 638.71096091 113.80958376 637.67009993 114.84987754 C634.82817681 117.69150678 631.98936582 120.53622698 629.15106936 123.38147801 C626.08265513 126.45629252 623.0113128 129.52817978 619.94031211 132.60041064 C614.62412397 137.91947983 609.30971385 143.24032006 603.99646445 148.5623247 C596.30627665 156.26509079 588.61283004 163.96459551 580.91849943 171.66322309 C568.42293429 184.16584932 555.92923869 196.67034185 543.43707724 209.17636889 C542.69006482 209.92420913 541.94305239 210.67204937 541.17340322 211.44255143 C535.87127077 216.75058404 530.56920528 222.05868353 525.26715537 227.36679858 C519.21056094 233.43032129 513.15393621 239.49381373 507.09723349 245.55722827 C506.35113562 246.30415427 505.60503775 247.05108026 504.83633085 247.82064038 C492.38960239 260.2810616 479.94090514 272.7395141 467.49080535 285.19656676 C459.81711799 292.87473058 452.14521237 300.55466648 444.47560807 308.23690885 C439.22014351 313.50080882 433.96290402 318.76293162 428.70427342 324.02366871 C425.67213672 327.0571482 422.64083196 330.09144713 419.61173697 333.1279642 C416.83569426 335.91078309 414.05732409 338.69125651 411.2771339 341.46993166 C410.27501053 342.47232519 409.27372928 343.47556151 408.27340646 344.47975188 C403.42288466 349.34814626 398.52834549 354.06588594 393.31632395 358.5438959 C389.00267457 362.38123904 384.97902006 366.52546508 380.90594931 370.61447924 C379.87788656 371.64282249 378.84960131 372.67094335 377.82111474 373.69886273 C375.0133963 376.50628732 372.20878979 379.31680241 369.40469833 382.12784904 C366.37309462 385.16585373 363.33856212 388.20093051 360.30437155 391.23635119 C355.05202609 396.49157755 349.80145865 401.74857486 344.55205222 407.00673693 C336.95417205 414.61719612 329.35303245 422.22439326 321.75100901 429.83071351 C309.40518666 442.18359676 297.0612339 454.53834631 284.71881552 466.89463061 C283.98077494 467.633499 283.24273436 468.3723674 282.48232891 469.13362574 C277.24388789 474.37796691 272.00551384 479.62237496 266.76715537 484.86679858 C260.78331485 490.85756738 254.79944403 496.84830592 248.81549521 502.83896655 C247.70978988 503.94591407 247.70978988 503.94591407 246.58174707 505.07522416 C234.28418043 517.38648391 221.98464473 529.69577467 209.68370648 542.00366563 C202.10214739 549.58970098 194.52236999 557.17750824 186.94489439 564.76762253 C181.75250443 569.96844838 176.55833912 575.16749664 171.36278279 580.36515933 C168.36710081 583.36218401 165.37225055 586.36002777 162.37961074 589.36009043 C159.63687608 592.10960222 156.89181304 594.85676737 154.1449305 597.60213506 C153.15492008 598.5924156 152.16575149 599.58353866 151.17754199 600.57561636 C146.36027109 605.41085754 141.496112 610.09185009 136.32032796 614.5398919 C132.00570857 618.37902701 127.9803764 622.52410343 123.90594931 626.61447924 C122.87788656 627.64282249 121.84960131 628.67094335 120.82111474 629.69886273 C118.0133963 632.50628732 115.20878979 635.31680241 112.40469833 638.12784904 C109.37309462 641.16585373 106.33856212 644.20093051 103.30437155 647.23635119 C98.05202609 652.49157755 92.80145865 657.74857486 87.55205222 663.00673693 C79.95417205 670.61719612 72.35303245 678.22439326 64.75100901 685.83071351 C52.40518666 698.18359676 40.0612339 710.53834631 27.71881552 722.89463061 C26.61175465 724.0029332 26.61175465 724.0029332 25.48232891 725.13362574 C20.24388789 730.37796691 15.00551384 735.62237496 9.76715537 740.86679858 C3.78331485 746.85756738 -2.20055597 752.84830592 -8.18450479 758.83896655 C-9.29021012 759.94591407 -9.29021012 759.94591407 -10.41825293 761.07522416 C-22.71581957 773.38648391 -35.01535527 785.69577467 -47.31629352 798.00366563 C-54.89785261 805.58970098 -62.47763001 813.17750824 -70.05510561 820.76762253 C-75.24749557 825.96844838 -80.44166088 831.16749664 -85.63721721 836.36515933 C-88.63289919 839.36218401 -91.62774945 842.36002777 -94.62038926 845.36009043 C-97.36312392 848.10960222 -100.10818696 850.85676737 -102.8550695 853.60213506 C-103.84507992 854.5924156 -104.83424851 855.58353866 -105.82245801 856.57561636 C-110.63972891 861.41085754 -115.503888 866.09185009 -120.67967204 870.5398919 C-124.99429143 874.37902701 -129.0196236 878.52410343 -133.09405069 882.61447924 C-134.12211344 883.64282249 -135.15039869 884.67094335 -136.17888526 885.69886273 C-138.9866037 888.50628732 -141.79121021 891.31680241 -144.59530167 894.12784904 C-147.62690538 897.16585373 -150.66143788 900.20093051 -153.69562845 903.23635119 C-158.94797391 908.49157755 -164.19854135 913.74857486 -169.44794778 919.00673693 C-177.04582795 926.61719612 -184.64696755 934.22439326 -192.24899099 941.83071351 C-204.59481334 954.18359676 -216.9387661 966.53834631 -229.28118448 978.89463061 C-230.38824535 980.0029332 -230.38824535 980.0029332 -231.51767109 981.13362574 C-236.75611211 986.37796691 -241.99448616 991.62237496 -247.23284463 996.86679858 C-253.21668515 1002.85756738 -259.20055597 1008.84830592 -265.18450479 1014.83896655 C-266.29021012 1015.94591407 -266.29021012 1015.94591407 -267.41825293 1017.07522416 C-279.71581957 1029.38648391 -292.01535527 1041.69577467 -304.31629352 1054.00366563 C-311.89785261 1061.58970098 -319.47763001 1069.17750824 -327.05510561 1076.76762253 C-332.24749557 1081.96844838 -337.44166088 1087.16749664 -342.63721721 1092.36515933 C-345.63289919 1095.36218401 -348.62774945 1098.36002777 -351.62038926 1101.36009043 C-354.36312392 1104.10960222 -357.10818696 1106.85676737 -359.8550695 1109.60213506 C-360.84507992 1110.5924156 -361.83424851 1111.58353866 -362.82245801 1112.57561636 C-368.28498998 1118.05852569 -373.81969552 1123.3700568 -379.73284463 1128.36679858 C-385.8883595 1123.27797378 -391.50284355 1117.7254417 -397.13103799 1112.06626147 C-398.16318812 1111.03218882 -399.19556863 1109.99834609 -400.22816018 1108.96471423 C-402.43994989 1106.74977915 -404.65018012 1104.53330398 -406.85920076 1102.31560725 C-410.35829558 1098.80291236 -413.86127084 1095.29410418 -417.3648179 1091.7858507 C-425.43425734 1083.70440189 -433.49866852 1075.61794153 -441.56302194 1067.53141802 C-448.95571675 1060.1185004 -456.3494903 1052.70666718 -463.74733577 1045.29888928 C-467.22383516 1041.81743295 -470.6978875 1038.33355918 -474.17003362 1034.84776145 C-476.33759185 1032.67269805 -478.50726113 1030.49974963 -480.67748384 1028.32734507 C-481.67642181 1027.32654889 -482.6745021 1026.32489569 -483.67161493 1025.32228106 C-485.04328755 1023.94328447 -486.41845727 1022.56776914 -487.79374246 1021.19237536 C-488.55895684 1020.42494037 -489.32417121 1019.65750538 -490.1125739 1018.86681479 C-492.15769023 1016.91555688 -494.225191 1015.06831404 -496.36744241 1013.22883624 C-501.64861089 1008.63764199 -506.56799288 1003.69012605 -511.51838235 998.74861926 C-512.59254927 997.67990966 -513.66691936 996.61140424 -514.74147342 995.54308391 C-517.67653401 992.62376277 -520.60851812 989.70136929 -523.5399336 986.77838856 C-526.05878374 984.26758155 -528.57944774 981.7585994 -531.10011755 979.24961942 C-540.1196693 970.27181551 -549.13202752 961.28680513 -558.14300088 952.30039233 C-558.85469181 951.5906763 -559.56638275 950.88096026 -560.29964007 950.14973768 C-574.44568885 936.04286037 -588.58898461 921.93322545 -602.72658185 907.81787795 C-605.82962263 904.71980591 -608.93270122 901.62177175 -612.03582315 898.523781 C-612.8070228 897.75385202 -613.57822246 896.98392303 -614.3727918 896.19066287 C-626.86926648 883.71555394 -639.37949776 871.25433308 -651.89526521 858.79858308 C-664.76025977 845.99477107 -677.61194158 833.17771412 -690.45101951 820.3479135 C-697.65388758 813.15094696 -704.86252526 805.95997326 -712.08631639 798.78400248 C-718.23688806 792.67411151 -724.37537291 786.55239351 -730.49858629 780.41507976 C-733.61978287 777.28743524 -736.74626856 774.16563277 -739.88846521 771.05907458 C-742.77139036 768.20858494 -745.63732378 765.34204179 -748.49122259 762.46250016 C-749.51999541 761.4301084 -750.55458294 760.40346707 -751.59583812 759.38366615 C-762.35393407 748.83380128 -769.84998121 736.32971597 -770.11345987 720.89389819 C-770.07604426 702.8058906 -764.79754012 688.9318547 -751.8584855 675.85923022 C-750.99854989 675.01569995 -750.13861429 674.17216967 -749.25262002 673.30307788 C-747.8658481 671.91280131 -747.8658481 671.91280131 -746.45106057 670.49443835 C-743.94563768 667.98337436 -741.4251868 665.48793376 -738.90134672 662.99539941 C-736.24577165 660.36765695 -733.60424895 657.72585619 -730.96097879 655.08574694 C-726.52506153 650.65899229 -722.08013665 646.24146345 -717.62859659 641.83042163 C-711.37105718 635.62976305 -705.13086262 629.41186894 -698.89365713 623.19076687 C-694.5463923 618.85599735 -690.19506344 614.52530799 -685.8429337 610.19542354 C-684.79474309 609.15257501 -683.74665418 608.10962424 -682.69866804 607.06657022 C-679.25046263 603.63498443 -675.79758741 600.20816692 -672.34246377 596.78354663 C-671.05559671 595.50306948 -671.05559671 595.50306948 -669.74273233 594.19672412 C-668.52977235 592.99666484 -668.52977235 592.99666484 -667.29230813 591.77236193 C-666.6008372 591.0864633 -665.90936626 590.40056466 -665.19694166 589.69388121 C-663.20415632 587.81190331 -661.18093382 586.02321994 -659.10257177 584.23904914 C-653.92194629 579.72918623 -649.10286552 574.86907757 -644.25774698 570.00522631 C-643.21730981 568.96450867 -642.17665018 567.92401339 -641.1357892 566.88371962 C-638.29386607 564.04209038 -635.45505508 561.19737017 -632.61675863 558.35211915 C-629.5483444 555.27730464 -626.47700206 552.20541738 -623.40600137 549.13318652 C-618.08981323 543.81411733 -612.77540312 538.49327709 -607.46215371 533.17127246 C-599.77196591 525.46850636 -592.0785193 517.76900165 -584.38418869 510.07037407 C-571.88862355 497.56774784 -559.39492795 485.06325531 -546.90276651 472.55722827 C-546.15575408 471.80938803 -545.40874165 471.06154779 -544.63909249 470.29104572 C-539.33696003 464.98301312 -534.03489455 459.67491363 -528.73284463 454.36679858 C-522.6762502 448.30327587 -516.61962548 442.23978343 -510.56292276 436.17636889 C-509.81682488 435.42944289 -509.07072701 434.68251689 -508.30202011 433.91295677 C-495.85529165 421.45253555 -483.4065944 408.99408306 -470.95649461 396.5370304 C-463.28280725 388.85886658 -455.61090164 381.17893067 -447.94129733 373.49668831 C-442.68583278 368.23278834 -437.42859328 362.97066553 -432.16996269 357.70992845 C-429.13782599 354.67644896 -426.10652123 351.64215002 -423.07742624 348.60563296 C-420.30138352 345.82281407 -417.52301336 343.04234065 -414.74282316 340.2636655 C-413.74069979 339.26127197 -412.73941854 338.25803564 -411.73909573 337.25384527 C-406.89081741 332.38770265 -401.99849235 327.67258751 -396.78894548 323.19663352 C-392.43364081 319.3206132 -388.3710215 315.13440402 -384.25774698 311.00522631 C-383.21730981 309.96450867 -382.17665018 308.92401339 -381.1357892 307.88371962 C-378.29386607 305.04209038 -375.45505508 302.19737017 -372.61675863 299.35211915 C-369.5483444 296.27730464 -366.47700206 293.20541738 -363.40600137 290.13318652 C-358.08981323 284.81411733 -352.77540312 279.49327709 -347.46215371 274.17127246 C-339.77196591 266.46850636 -332.0785193 258.76900165 -324.38418869 251.07037407 C-311.88862355 238.56774784 -299.39492795 226.06325531 -286.90276651 213.55722827 C-286.15575408 212.80938803 -285.40874165 212.06154779 -284.63909249 211.29104572 C-279.33696003 205.98301312 -274.03489455 200.67491363 -268.73284463 195.36679858 C-262.6762502 189.30327587 -256.61962548 183.23978343 -250.56292276 177.17636889 C-249.81682488 176.42944289 -249.07072701 175.68251689 -248.30202011 174.91295677 C-235.85529165 162.45253555 -223.4065944 149.99408306 -210.95649461 137.5370304 C-203.28280725 129.85886658 -195.61090164 122.17893067 -187.94129733 114.49668831 C-182.68583278 109.23278834 -177.42859328 103.97066553 -172.16996269 98.70992845 C-169.13782599 95.67644896 -166.10652123 92.64215002 -163.07742624 89.60563296 C-160.30138352 86.82281407 -157.52301336 84.04234065 -154.74282316 81.2636655 C-153.74069979 80.26127197 -152.73941854 79.25803564 -151.73909573 78.25384527 C-146.79282644 73.28935062 -141.82092612 68.42949843 -136.47740487 63.89171237 C-133.21964988 61.04412053 -130.24055113 57.91542132 -127.22503213 54.81601733 C-125.81143139 53.38001576 -124.39735345 51.9444838 -122.98284463 50.5093767 C-120.79986961 48.28954689 -118.62011245 46.06690347 -116.44866494 43.83579272 C-105.28590565 32.38215133 -93.97541834 22.10371274 -79.67034463 14.67929858 C-78.97465371 14.31755541 -78.2789628 13.95581225 -77.56219034 13.58310717 C-71.99741614 10.79857813 -66.29625539 8.53093996 -60.42034463 6.49179858 C-59.65262735 6.2176311 -58.88491006 5.94346362 -58.09392862 5.66098803 C-39.28745715 -0.47077071 -19.53463584 -0.06731109 0 0 Z M-517.19378213 661.51523608 C-521.01587281 665.80773792 -523.9495477 670.35266818 -526.73284463 675.36679858 C-527.26651651 676.30136889 -527.80018838 677.2359392 -528.35003213 678.19882983 C-538.75239555 697.52859469 -540.49516275 720.3458621 -534.73284463 741.36679858 C-530.62375865 754.18947825 -524.62378418 765.25747102 -515.73284463 775.36679858 C-515.07800088 776.11703295 -514.42315713 776.86726733 -513.74846963 777.64023608 C-503.54259785 788.5750987 -490.81512342 795.71365739 -476.73284463 800.36679858 C-475.25364541 800.87533374 -475.25364541 800.87533374 -473.74456338 801.39414233 C-457.83649181 805.96639601 -439.25985323 804.76749722 -423.73284463 799.36679858 C-421.95393838 798.74804858 -421.95393838 798.74804858 -420.13909463 798.11679858 C-398.23120082 789.58629125 -382.82837601 772.77674086 -372.42034463 752.11679858 C-363.18564518 730.86927283 -363.12547787 707.13633744 -371.48284463 685.61679858 C-380.63073292 663.45864354 -397.53334306 647.46229759 -419.20159463 637.82382983 C-454.85970396 623.61890544 -490.84015132 634.56772062 -517.19378213 661.51523608 Z " fill="#0356EF" transform="translate(1658.732844632119,1365.6332014212385)"/>
</svg>
